<svg width="44" height="44" viewBox="0 0 44 44" fill="none" xmlns="http://www.w3.org/2000/svg">
<path d="M40.6999 6.24802C40.0399 5.58802 39.1599 5.23602 38.1919 5.23602C37.2679 5.23602 36.3879 5.58802 35.6839 6.24802L28.7319 13.244H5.7639C3.8279 13.244 2.2439 14.828 2.2439 16.764V29.964C2.2439 31.9 3.8279 33.484 5.7639 33.484H6.6439V37.884C6.6439 38.236 6.8639 38.544 7.1719 38.676C7.3039 38.72 7.4359 38.764 7.5239 38.764C7.7439 38.764 7.9199 38.676 8.0959 38.544L13.9919 33.484H29.5239C31.4599 33.484 33.0439 31.9 33.0439 29.964V18.876L39.4239 12.452L40.6559 11.22C42.0639 9.85602 42.0639 7.61202 40.6999 6.24802ZM31.2839 29.964C31.2839 30.932 30.4919 31.724 29.5239 31.724H13.6839C13.4639 31.724 13.2879 31.812 13.1119 31.944L8.4039 35.992V32.648C8.4039 32.164 8.0079 31.768 7.5239 31.768H5.7639C4.7959 31.768 4.0039 30.976 4.0039 30.008V16.808C4.0039 15.84 4.7959 15.048 5.7639 15.048H26.9719L21.6919 20.328H11.9239C11.4399 20.328 11.0439 20.724 11.0439 21.208C11.0439 21.692 11.4399 22.088 11.9239 22.088H21.0319L20.6359 24.728H11.9239C11.4399 24.728 11.0439 25.124 11.0439 25.608C11.0439 26.092 11.4399 26.488 11.9239 26.488H21.1639C21.2519 26.488 21.2959 26.488 21.3839 26.444H21.5599L25.9159 25.828C26.0919 25.784 26.2679 25.696 26.3999 25.564L31.2839 20.68V29.964ZM22.9679 21.516L25.4759 24.024L25.3879 24.112L22.4399 24.508L22.8359 21.604L22.9679 21.516ZM26.7079 22.748L24.1999 20.24L35.1119 9.32802L37.6199 11.836L26.7079 22.748ZM39.4679 9.98802L38.8519 10.604L36.3439 8.09602L36.9599 7.48002C37.3119 7.12802 37.7519 6.95202 38.1919 6.95202C38.6319 6.95202 39.1159 7.12802 39.4239 7.48002C40.1719 8.18402 40.1719 9.28402 39.4679 9.98802Z" fill="black"/>
</svg>
