<svg width="44" height="44" viewBox="0 0 44 44" fill="none" xmlns="http://www.w3.org/2000/svg">
<g clip-path="url(#clip0_5410_562)">
<path d="M40.3288 15.0218H25.5819V10.5943C25.5819 8.57309 23.9388 6.92309 21.9106 6.92309L3.67125 6.91622C1.65 6.90935 0 8.55934 0 10.5806V22.2612C0 24.2825 1.64313 25.9325 3.67125 25.9325H4.35187V27.995C4.35187 28.3593 4.55125 28.6893 4.87438 28.8612C5.03246 28.946 5.21059 28.9863 5.38978 28.9778C5.56897 28.9694 5.7425 28.9124 5.89187 28.8131L10.2025 25.9325H18.425V30.3668C18.425 32.3881 20.0681 34.0312 22.0894 34.0312H33.8044L38.115 36.9187C38.2644 37.018 38.4379 37.075 38.6171 37.0835C38.7963 37.0919 38.9744 37.0516 39.1325 36.9668C39.4556 36.795 39.655 36.465 39.655 36.1006V34.0381H40.3356C42.3638 34.0381 44.0069 32.395 44.0137 30.3737V18.7C44 16.6718 42.35 15.0218 40.3288 15.0218ZM19.4356 23.9593H9.89313C9.70063 23.9593 9.50813 24.0143 9.34313 24.1243L6.31812 26.1456V24.9425C6.31812 24.3993 5.87813 23.9593 5.335 23.9593H3.67125C2.73625 23.9593 1.97312 23.1962 1.97312 22.2612V10.5806C1.97312 9.64559 2.73625 8.88247 3.67125 8.88247L21.9106 8.88934C22.8456 8.88934 23.6087 9.65247 23.6087 10.5875V22.2612C23.6087 23.1962 22.8456 23.9593 21.9106 23.9593H19.4356ZM42.0269 30.3737C42.0269 31.3087 41.2638 32.0718 40.3219 32.0718H38.6581C38.115 32.0718 37.675 32.5118 37.675 33.055V34.2581L34.65 32.23C34.485 32.12 34.2994 32.065 34.1 32.065H22.0825C21.1475 32.065 20.3844 31.3018 20.3844 30.3668V25.9325H21.9038C23.925 25.9325 25.575 24.2893 25.575 22.2612V16.9812H40.3219C40.7741 16.9812 41.2077 17.1609 41.5275 17.4806C41.8472 17.8004 42.0269 18.234 42.0269 18.6862V30.3737Z" fill="black"/>
<path d="M16.0601 19.2225C16.0163 19.1842 15.9647 19.156 15.9088 19.14C15.8469 19.1194 15.7576 19.085 15.6476 19.0369C15.5376 18.9888 15.4069 18.92 15.2419 18.8237C15.0838 18.7275 14.8982 18.59 14.6919 18.4113C14.8294 18.2738 14.9532 18.1156 15.0563 17.9369C15.1663 17.7581 15.2557 17.5587 15.3244 17.3387C15.4001 17.1187 15.4551 16.885 15.4894 16.6306C15.5307 16.3763 15.5444 16.1012 15.5444 15.8125C15.5444 15.2487 15.4757 14.7675 15.3451 14.355C15.2144 13.9425 15.0219 13.6056 14.7607 13.3375C14.5063 13.0694 14.1901 12.87 13.8188 12.7394C13.4476 12.6088 13.0144 12.5469 12.5332 12.5469C12.0176 12.5469 11.5638 12.6225 11.1788 12.7806C10.7869 12.9388 10.4638 13.1656 10.1957 13.4544C9.93444 13.75 9.73507 14.1006 9.59757 14.52C9.46694 14.9394 9.39819 15.4138 9.39819 15.9363C9.39819 16.5138 9.46007 17.0156 9.58382 17.435C9.70757 17.8544 9.90007 18.1981 10.1476 18.4731C10.3951 18.7413 10.7113 18.9406 11.0894 19.0712C11.4676 19.2019 11.9076 19.2638 12.4094 19.2638C12.6776 19.2638 12.9182 19.2362 13.1382 19.1881C13.3582 19.1331 13.5438 19.0781 13.6951 19.0025C13.8807 19.2156 14.0801 19.4013 14.2932 19.5594C14.5063 19.7244 14.7194 19.8619 14.9257 19.9719C15.1319 20.0819 15.3244 20.1713 15.5032 20.2331C15.6819 20.295 15.8263 20.3225 15.9363 20.3225C15.9638 20.3225 15.9913 20.3156 16.0119 20.3019C16.0326 20.2881 16.0601 20.2675 16.0738 20.2263C16.0976 20.1714 16.1138 20.1136 16.1219 20.0544C16.1357 19.9788 16.1426 19.8825 16.1426 19.7656C16.1426 19.6144 16.1357 19.4975 16.1151 19.415C16.0944 19.3325 16.1013 19.2569 16.0601 19.2225ZM14.0869 16.7681C14.0319 17.0431 13.9357 17.2906 13.8051 17.4969C13.6744 17.7031 13.4957 17.8681 13.2757 17.985C13.0557 18.1087 12.7876 18.1638 12.4644 18.1638C12.1413 18.1638 11.8732 18.1088 11.6601 18.0056C11.4469 17.9025 11.2751 17.7444 11.1513 17.545C11.0149 17.3221 10.9238 17.0744 10.8832 16.8162C10.8251 16.4988 10.7975 16.1765 10.8007 15.8537C10.8007 15.5512 10.8282 15.2694 10.8832 14.9944C10.9382 14.7194 11.0344 14.4856 11.1651 14.2794C11.2957 14.0731 11.4744 13.915 11.6944 13.7912C11.9144 13.6675 12.1826 13.6125 12.5057 13.6125C12.8288 13.6125 13.0969 13.6675 13.3101 13.7775C13.5232 13.8875 13.6951 14.0387 13.8257 14.2381C13.9563 14.4375 14.0457 14.6781 14.1007 14.9531C14.1557 15.2281 14.1832 15.5375 14.1832 15.8744C14.1763 16.1906 14.1419 16.4862 14.0869 16.7681ZM32.1613 21.2987C32.1459 21.2419 32.1203 21.1883 32.0857 21.1406C32.0582 21.0994 32.0032 21.0719 31.9344 21.0513C31.8403 21.0262 31.7431 21.0146 31.6457 21.0169C31.5219 21.01 31.3569 21.01 31.1438 21.01C30.9651 21.01 30.8207 21.01 30.7107 21.0169C30.6007 21.0237 30.5182 21.0375 30.4563 21.0513C30.3944 21.0719 30.3463 21.0994 30.3188 21.1337C30.2913 21.1681 30.2638 21.2163 30.2432 21.2781L28.1257 27.3694C28.0844 27.4931 28.0569 27.5894 28.0432 27.665C28.0294 27.7406 28.0432 27.7956 28.0776 27.8369C28.1119 27.8781 28.1738 27.9056 28.2701 27.9125C28.3594 27.9262 28.4901 27.9262 28.6551 27.9262C28.8063 27.9262 28.9301 27.9194 29.0263 27.9125C29.1226 27.9056 29.1913 27.8919 29.2463 27.8713C29.2944 27.8506 29.3357 27.8231 29.3563 27.7887C29.38 27.7501 29.3985 27.7085 29.4113 27.665L29.8444 26.3244H32.4226L32.8832 27.7062C32.8969 27.7544 32.9176 27.7887 32.9382 27.8162C32.9588 27.8437 32.9932 27.8644 33.0482 27.885C33.1032 27.8988 33.1788 27.9125 33.2819 27.9194C33.3851 27.9263 33.5226 27.9262 33.7013 27.9262C33.8732 27.9262 34.0107 27.9194 34.1069 27.9125C34.2032 27.9056 34.2719 27.8781 34.3132 27.8438C34.3544 27.8094 34.3682 27.7544 34.3544 27.6787C34.3362 27.5756 34.3086 27.4744 34.2719 27.3762L32.1613 21.2987ZM30.1607 25.2656L31.1301 22.3506H31.1369L32.1063 25.2656H30.1607Z" fill="black"/>
</g>
<defs>
<clipPath id="clip0_5410_562">
<rect width="44" height="44" fill="white"/>
</clipPath>
</defs>
</svg>
