<svg width="44" height="44" viewBox="0 0 44 44" fill="none" xmlns="http://www.w3.org/2000/svg">
<path d="M22 42.625C26.0792 42.625 30.0669 41.4154 33.4586 39.1491C36.8504 36.8828 39.494 33.6616 41.055 29.8929C42.6161 26.1241 43.0245 21.9771 42.2287 17.9763C41.4329 13.9754 39.4685 10.3004 36.5841 7.41593C33.6996 4.53147 30.0246 2.56713 26.0237 1.77131C22.0229 0.975493 17.8759 1.38394 14.1072 2.94499C10.3384 4.50605 7.11724 7.14961 4.85094 10.5414C2.58464 13.9331 1.375 17.9208 1.375 22C1.38119 27.4682 3.55616 32.7107 7.42276 36.5773C11.2894 40.4439 16.5318 42.6188 22 42.625ZM22 4.12501C25.5353 4.12501 28.9913 5.17336 31.9308 7.13749C34.8703 9.10162 37.1614 11.8933 38.5143 15.1595C39.8673 18.4258 40.2212 22.0198 39.5315 25.4873C38.8418 28.9547 37.1394 32.1397 34.6395 34.6395C32.1397 37.1394 28.9547 38.8418 25.4872 39.5315C22.0198 40.2213 18.4258 39.8673 15.1595 38.5144C11.8933 37.1614 9.10161 34.8704 7.13748 31.9308C5.17335 28.9913 4.125 25.5354 4.125 22C4.13046 17.2609 6.01546 12.7175 9.3665 9.3665C12.7175 6.01547 17.2609 4.13047 22 4.12501Z" fill="black"/>
<path d="M22 34.375C22.7594 34.375 23.375 33.7594 23.375 33C23.375 32.2406 22.7594 31.625 22 31.625C21.2406 31.625 20.625 32.2406 20.625 33C20.625 33.7594 21.2406 34.375 22 34.375Z" fill="black"/>
<path d="M16.5 17.875C16.8647 17.875 17.2144 17.7301 17.4723 17.4723C17.7301 17.2144 17.875 16.8647 17.875 16.5C17.875 15.406 18.3096 14.3568 19.0832 13.5832C19.8568 12.8096 20.906 12.375 22 12.375C23.094 12.375 24.1432 12.8096 24.9168 13.5832C25.6904 14.3568 26.125 15.406 26.125 16.5C26.125 18.6807 25.0896 19.7161 23.7779 21.0279C22.8115 21.8109 22.0284 22.7961 21.4837 23.9143C20.939 25.0325 20.6459 26.2564 20.625 27.5C20.625 27.8647 20.7699 28.2144 21.0277 28.4723C21.2856 28.7301 21.6353 28.875 22 28.875C22.3647 28.875 22.7144 28.7301 22.9723 28.4723C23.2301 28.2144 23.375 27.8647 23.375 27.5C23.375 25.3193 24.4104 24.2839 25.7221 22.9721C26.6885 22.1891 27.4716 21.2039 28.0163 20.0857C28.561 18.9675 28.8541 17.7436 28.875 16.5C28.875 14.6766 28.1507 12.928 26.8614 11.6386C25.572 10.3493 23.8234 9.625 22 9.625C20.1766 9.625 18.428 10.3493 17.1386 11.6386C15.8493 12.928 15.125 14.6766 15.125 16.5C15.125 16.8647 15.2699 17.2144 15.5277 17.4723C15.7856 17.7301 16.1353 17.875 16.5 17.875Z" fill="black"/>
</svg>
