<svg width="259" height="57" viewBox="0 0 259 57" fill="none" xmlns="http://www.w3.org/2000/svg">
<path d="M182.855 0.125732L216.681 27.5146L182.855 56.0773H0.717346L34.5429 27.5146L0.717346 0.125732H182.855Z" fill="#EC2027"/>
<path d="M224.486 0.125732L258.312 27.5146L224.486 56.0773H42.3489L76.1744 27.5146L42.3489 0.125732H224.486Z" fill="#214293"/>
<path d="M88.6767 17.6671C90.1434 17.6671 91.43 17.9537 92.5367 18.5271C93.6567 19.1004 94.5167 19.9204 95.1167 20.9871C95.73 22.0404 96.0367 23.2671 96.0367 24.6671C96.0367 26.0671 95.73 27.2937 95.1167 28.3471C94.5167 29.3871 93.6567 30.1937 92.5367 30.7671C91.43 31.3404 90.1434 31.6271 88.6767 31.6271H83.7967V17.6671H88.6767ZM88.5767 29.2471C90.0434 29.2471 91.1767 28.8471 91.9767 28.0471C92.7767 27.2471 93.1767 26.1204 93.1767 24.6671C93.1767 23.2137 92.7767 22.0804 91.9767 21.2671C91.1767 20.4404 90.0434 20.0271 88.5767 20.0271H86.5967V29.2471H88.5767ZM108.433 25.8471C108.433 26.2471 108.406 26.6071 108.353 26.9271H100.253C100.319 27.7271 100.599 28.3537 101.093 28.8071C101.586 29.2604 102.193 29.4871 102.913 29.4871C103.953 29.4871 104.693 29.0404 105.133 28.1471H108.153C107.833 29.2137 107.219 30.0937 106.313 30.7871C105.406 31.4671 104.293 31.8071 102.973 31.8071C101.906 31.8071 100.946 31.5737 100.093 31.1071C99.2526 30.6271 98.5926 29.9537 98.1126 29.0871C97.646 28.2204 97.4126 27.2204 97.4126 26.0871C97.4126 24.9404 97.646 23.9337 98.1126 23.0671C98.5793 22.2004 99.2326 21.5337 100.073 21.0671C100.913 20.6004 101.879 20.3671 102.973 20.3671C104.026 20.3671 104.966 20.5937 105.793 21.0471C106.633 21.5004 107.279 22.1471 107.733 22.9871C108.199 23.8137 108.433 24.7671 108.433 25.8471ZM105.533 25.0471C105.519 24.3271 105.259 23.7537 104.753 23.3271C104.246 22.8871 103.626 22.6671 102.893 22.6671C102.199 22.6671 101.613 22.8804 101.133 23.3071C100.666 23.7204 100.379 24.3004 100.273 25.0471H105.533ZM114.716 31.8071C113.81 31.8071 112.996 31.6471 112.276 31.3271C111.556 30.9937 110.983 30.5471 110.556 29.9871C110.143 29.4271 109.916 28.8071 109.876 28.1271H112.696C112.75 28.5537 112.956 28.9071 113.316 29.1871C113.69 29.4671 114.15 29.6071 114.696 29.6071C115.23 29.6071 115.643 29.5004 115.936 29.2871C116.243 29.0737 116.396 28.8004 116.396 28.4671C116.396 28.1071 116.21 27.8404 115.836 27.6671C115.476 27.4804 114.896 27.2804 114.096 27.0671C113.27 26.8671 112.59 26.6604 112.056 26.4471C111.536 26.2337 111.083 25.9071 110.696 25.4671C110.323 25.0271 110.136 24.4337 110.136 23.6871C110.136 23.0737 110.31 22.5137 110.656 22.0071C111.016 21.5004 111.523 21.1004 112.176 20.8071C112.843 20.5137 113.623 20.3671 114.516 20.3671C115.836 20.3671 116.89 20.7004 117.676 21.3671C118.463 22.0204 118.896 22.9071 118.976 24.0271H116.296C116.256 23.5871 116.07 23.2404 115.736 22.9871C115.416 22.7204 114.983 22.5871 114.436 22.5871C113.93 22.5871 113.536 22.6804 113.256 22.8671C112.99 23.0537 112.856 23.3137 112.856 23.6471C112.856 24.0204 113.043 24.3071 113.416 24.5071C113.79 24.6937 114.37 24.8871 115.156 25.0871C115.956 25.2871 116.616 25.4937 117.136 25.7071C117.656 25.9204 118.103 26.2537 118.476 26.7071C118.863 27.1471 119.063 27.7337 119.076 28.4671C119.076 29.1071 118.896 29.6804 118.536 30.1871C118.19 30.6937 117.683 31.0937 117.016 31.3871C116.363 31.6671 115.596 31.8071 114.716 31.8071ZM120.655 26.0871C120.655 24.9404 120.888 23.9404 121.355 23.0871C121.821 22.2204 122.468 21.5537 123.295 21.0871C124.121 20.6071 125.068 20.3671 126.135 20.3671C127.508 20.3671 128.641 20.7137 129.535 21.4071C130.441 22.0871 131.048 23.0471 131.355 24.2871H128.335C128.175 23.8071 127.901 23.4337 127.515 23.1671C127.141 22.8871 126.675 22.7471 126.115 22.7471C125.315 22.7471 124.681 23.0404 124.215 23.6271C123.748 24.2004 123.515 25.0204 123.515 26.0871C123.515 27.1404 123.748 27.9604 124.215 28.5471C124.681 29.1204 125.315 29.4071 126.115 29.4071C127.248 29.4071 127.988 28.9004 128.335 27.8871H131.355C131.048 29.0871 130.441 30.0404 129.535 30.7471C128.628 31.4537 127.495 31.8071 126.135 31.8071C125.068 31.8071 124.121 31.5737 123.295 31.1071C122.468 30.6271 121.821 29.9604 121.355 29.1071C120.888 28.2404 120.655 27.2337 120.655 26.0871ZM136.206 22.2671C136.566 21.6804 137.033 21.2204 137.606 20.8871C138.193 20.5537 138.859 20.3871 139.606 20.3871V23.3271H138.866C137.986 23.3271 137.319 23.5337 136.866 23.9471C136.426 24.3604 136.206 25.0804 136.206 26.1071V31.6271H133.406V20.5471H136.206V22.2671ZM142.912 19.2271C142.419 19.2271 142.005 19.0737 141.672 18.7671C141.352 18.4471 141.192 18.0537 141.192 17.5871C141.192 17.1204 141.352 16.7337 141.672 16.4271C142.005 16.1071 142.419 15.9471 142.912 15.9471C143.405 15.9471 143.812 16.1071 144.132 16.4271C144.465 16.7337 144.632 17.1204 144.632 17.5871C144.632 18.0537 144.465 18.4471 144.132 18.7671C143.812 19.0737 143.405 19.2271 142.912 19.2271ZM144.292 20.5471V31.6271H141.492V20.5471H144.292ZM149.858 22.1471C150.218 21.6404 150.712 21.2204 151.338 20.8871C151.978 20.5404 152.705 20.3671 153.518 20.3671C154.465 20.3671 155.318 20.6004 156.078 21.0671C156.852 21.5337 157.458 22.2004 157.898 23.0671C158.352 23.9204 158.578 24.9137 158.578 26.0471C158.578 27.1804 158.352 28.1871 157.898 29.0671C157.458 29.9337 156.852 30.6071 156.078 31.0871C155.318 31.5671 154.465 31.8071 153.518 31.8071C152.705 31.8071 151.985 31.6404 151.358 31.3071C150.745 30.9737 150.245 30.5537 149.858 30.0471V36.9071H147.058V20.5471H149.858V22.1471ZM155.718 26.0471C155.718 25.3804 155.578 24.8071 155.298 24.3271C155.032 23.8337 154.672 23.4604 154.218 23.2071C153.778 22.9537 153.298 22.8271 152.778 22.8271C152.272 22.8271 151.792 22.9604 151.338 23.2271C150.898 23.4804 150.538 23.8537 150.258 24.3471C149.992 24.8404 149.858 25.4204 149.858 26.0871C149.858 26.7537 149.992 27.3337 150.258 27.8271C150.538 28.3204 150.898 28.7004 151.338 28.9671C151.792 29.2204 152.272 29.3471 152.778 29.3471C153.298 29.3471 153.778 29.2137 154.218 28.9471C154.672 28.6804 155.032 28.3004 155.298 27.8071C155.578 27.3137 155.718 26.7271 155.718 26.0471ZM163.873 22.8471V28.2071C163.873 28.5804 163.96 28.8537 164.133 29.0271C164.32 29.1871 164.626 29.2671 165.053 29.2671H166.353V31.6271H164.593C162.233 31.6271 161.053 30.4804 161.053 28.1871V22.8471H159.733V20.5471H161.053V17.8071H163.873V20.5471H166.353V22.8471H163.873ZM169.787 19.2271C169.294 19.2271 168.88 19.0737 168.547 18.7671C168.227 18.4471 168.067 18.0537 168.067 17.5871C168.067 17.1204 168.227 16.7337 168.547 16.4271C168.88 16.1071 169.294 15.9471 169.787 15.9471C170.28 15.9471 170.687 16.1071 171.007 16.4271C171.34 16.7337 171.507 17.1204 171.507 17.5871C171.507 18.0537 171.34 18.4471 171.007 18.7671C170.687 19.0737 170.28 19.2271 169.787 19.2271ZM171.167 20.5471V31.6271H168.367V20.5471H171.167ZM178.853 31.8071C177.787 31.8071 176.827 31.5737 175.973 31.1071C175.12 30.6271 174.447 29.9537 173.953 29.0871C173.473 28.2204 173.233 27.2204 173.233 26.0871C173.233 24.9537 173.48 23.9537 173.973 23.0871C174.48 22.2204 175.167 21.5537 176.033 21.0871C176.9 20.6071 177.867 20.3671 178.933 20.3671C180 20.3671 180.967 20.6071 181.833 21.0871C182.7 21.5537 183.38 22.2204 183.873 23.0871C184.38 23.9537 184.633 24.9537 184.633 26.0871C184.633 27.2204 184.373 28.2204 183.853 29.0871C183.347 29.9537 182.653 30.6271 181.773 31.1071C180.907 31.5737 179.933 31.8071 178.853 31.8071ZM178.853 29.3671C179.36 29.3671 179.833 29.2471 180.273 29.0071C180.727 28.7537 181.087 28.3804 181.353 27.8871C181.62 27.3937 181.753 26.7937 181.753 26.0871C181.753 25.0337 181.473 24.2271 180.913 23.6671C180.367 23.0937 179.693 22.8071 178.893 22.8071C178.093 22.8071 177.42 23.0937 176.873 23.6671C176.34 24.2271 176.073 25.0337 176.073 26.0871C176.073 27.1404 176.333 27.9537 176.853 28.5271C177.387 29.0871 178.053 29.3671 178.853 29.3671ZM192.827 20.3871C194.147 20.3871 195.214 20.8071 196.027 21.6471C196.841 22.4737 197.247 23.6337 197.247 25.1271V31.6271H194.447V25.5071C194.447 24.6271 194.227 23.9537 193.787 23.4871C193.347 23.0071 192.747 22.7671 191.987 22.7671C191.214 22.7671 190.601 23.0071 190.147 23.4871C189.707 23.9537 189.487 24.6271 189.487 25.5071V31.6271H186.687V20.5471H189.487V21.9271C189.861 21.4471 190.334 21.0737 190.907 20.8071C191.494 20.5271 192.134 20.3871 192.827 20.3871Z" fill="white"/>
</svg>
