<svg width="258" height="57" viewBox="0 0 258 57" fill="none" xmlns="http://www.w3.org/2000/svg">
<path d="M182.138 0.125732L215.963 27.5146L182.138 56.0773H0L33.8256 27.5146L0 0.125732H182.138Z" fill="#EC2027" fill-opacity="0.5"/>
<path d="M223.769 0.125732L257.595 27.5146L223.769 56.0773H41.6313L75.4569 27.5146L41.6313 0.125732H223.769Z" fill="#214293"/>
<path d="M93.8938 18.04V32H91.0938V26.06H85.1138V32H82.3138V18.04H85.1138V23.78H91.0938V18.04H93.8938ZM101.57 32.18C100.503 32.18 99.5431 31.9467 98.6898 31.48C97.8364 31 97.1631 30.3267 96.6698 29.46C96.1898 28.5933 95.9498 27.5933 95.9498 26.46C95.9498 25.3267 96.1964 24.3267 96.6898 23.46C97.1964 22.5933 97.8831 21.9267 98.7498 21.46C99.6164 20.98 100.583 20.74 101.65 20.74C102.716 20.74 103.683 20.98 104.55 21.46C105.416 21.9267 106.096 22.5933 106.59 23.46C107.096 24.3267 107.35 25.3267 107.35 26.46C107.35 27.5933 107.09 28.5933 106.57 29.46C106.063 30.3267 105.37 31 104.49 31.48C103.623 31.9467 102.65 32.18 101.57 32.18ZM101.57 29.74C102.076 29.74 102.55 29.62 102.99 29.38C103.443 29.1267 103.803 28.7533 104.07 28.26C104.336 27.7667 104.47 27.1667 104.47 26.46C104.47 25.4067 104.19 24.6 103.63 24.04C103.083 23.4667 102.41 23.18 101.61 23.18C100.81 23.18 100.136 23.4667 99.5898 24.04C99.0564 24.6 98.7898 25.4067 98.7898 26.46C98.7898 27.5133 99.0498 28.3267 99.5698 28.9C100.103 29.46 100.77 29.74 101.57 29.74ZM124.764 20.92L121.524 32H118.504L116.484 24.26L114.464 32H111.424L108.164 20.92H111.004L112.964 29.36L115.084 20.92H118.044L120.124 29.34L122.084 20.92H124.764ZM134.304 23.22V28.58C134.304 28.9533 134.391 29.2267 134.564 29.4C134.751 29.56 135.058 29.64 135.484 29.64H136.784V32H135.024C132.664 32 131.484 30.8533 131.484 28.56V23.22H130.164V20.92H131.484V18.18H134.304V20.92H136.784V23.22H134.304ZM143.718 32.18C142.652 32.18 141.692 31.9467 140.838 31.48C139.985 31 139.312 30.3267 138.818 29.46C138.338 28.5933 138.098 27.5933 138.098 26.46C138.098 25.3267 138.345 24.3267 138.838 23.46C139.345 22.5933 140.032 21.9267 140.898 21.46C141.765 20.98 142.732 20.74 143.798 20.74C144.865 20.74 145.832 20.98 146.698 21.46C147.565 21.9267 148.245 22.5933 148.738 23.46C149.245 24.3267 149.498 25.3267 149.498 26.46C149.498 27.5933 149.238 28.5933 148.718 29.46C148.212 30.3267 147.518 31 146.638 31.48C145.772 31.9467 144.798 32.18 143.718 32.18ZM143.718 29.74C144.225 29.74 144.698 29.62 145.138 29.38C145.592 29.1267 145.952 28.7533 146.218 28.26C146.485 27.7667 146.618 27.1667 146.618 26.46C146.618 25.4067 146.338 24.6 145.778 24.04C145.232 23.4667 144.558 23.18 143.758 23.18C142.958 23.18 142.285 23.4667 141.738 24.04C141.205 24.6 140.938 25.4067 140.938 26.46C140.938 27.5133 141.198 28.3267 141.718 28.9C142.252 29.46 142.918 29.74 143.718 29.74ZM163.518 32L160.438 26.56H159.118V32H156.318V18.04H161.558C162.638 18.04 163.558 18.2333 164.318 18.62C165.078 18.9933 165.644 19.5067 166.018 20.16C166.404 20.8 166.598 21.52 166.598 22.32C166.598 23.24 166.331 24.0733 165.798 24.82C165.264 25.5533 164.471 26.06 163.418 26.34L166.758 32H163.518ZM159.118 24.46H161.458C162.218 24.46 162.784 24.28 163.158 23.92C163.531 23.5467 163.718 23.0333 163.718 22.38C163.718 21.74 163.531 21.2467 163.158 20.9C162.784 20.54 162.218 20.36 161.458 20.36H159.118V24.46ZM179.43 26.22C179.43 26.62 179.404 26.98 179.35 27.3H171.25C171.317 28.1 171.597 28.7267 172.09 29.18C172.584 29.6333 173.19 29.86 173.91 29.86C174.95 29.86 175.69 29.4133 176.13 28.52H179.15C178.83 29.5867 178.217 30.4667 177.31 31.16C176.404 31.84 175.29 32.18 173.97 32.18C172.904 32.18 171.944 31.9467 171.09 31.48C170.25 31 169.59 30.3267 169.11 29.46C168.644 28.5933 168.41 27.5933 168.41 26.46C168.41 25.3133 168.644 24.3067 169.11 23.44C169.577 22.5733 170.23 21.9067 171.07 21.44C171.91 20.9733 172.877 20.74 173.97 20.74C175.024 20.74 175.964 20.9667 176.79 21.42C177.63 21.8733 178.277 22.52 178.73 23.36C179.197 24.1867 179.43 25.14 179.43 26.22ZM176.53 25.42C176.517 24.7 176.257 24.1267 175.75 23.7C175.244 23.26 174.624 23.04 173.89 23.04C173.197 23.04 172.61 23.2533 172.13 23.68C171.664 24.0933 171.377 24.6733 171.27 25.42H176.53ZM180.754 26.42C180.754 25.3 180.974 24.3067 181.414 23.44C181.867 22.5733 182.481 21.9067 183.254 21.44C184.027 20.9733 184.887 20.74 185.834 20.74C186.554 20.74 187.241 20.9 187.894 21.22C188.547 21.5267 189.067 21.94 189.454 22.46V17.2H192.294V32H189.454V30.36C189.107 30.9067 188.621 31.3467 187.994 31.68C187.367 32.0133 186.641 32.18 185.814 32.18C184.881 32.18 184.027 31.94 183.254 31.46C182.481 30.98 181.867 30.3067 181.414 29.44C180.974 28.56 180.754 27.5533 180.754 26.42ZM189.474 26.46C189.474 25.78 189.341 25.2 189.074 24.72C188.807 24.2267 188.447 23.8533 187.994 23.6C187.541 23.3333 187.054 23.2 186.534 23.2C186.014 23.2 185.534 23.3267 185.094 23.58C184.654 23.8333 184.294 24.2067 184.014 24.7C183.747 25.18 183.614 25.7533 183.614 26.42C183.614 27.0867 183.747 27.6733 184.014 28.18C184.294 28.6733 184.654 29.0533 185.094 29.32C185.547 29.5867 186.027 29.72 186.534 29.72C187.054 29.72 187.541 29.5933 187.994 29.34C188.447 29.0733 188.807 28.7 189.074 28.22C189.341 27.7267 189.474 27.14 189.474 26.46ZM205.329 26.22C205.329 26.62 205.302 26.98 205.249 27.3H197.149C197.215 28.1 197.495 28.7267 197.989 29.18C198.482 29.6333 199.089 29.86 199.809 29.86C200.849 29.86 201.589 29.4133 202.029 28.52H205.049C204.729 29.5867 204.115 30.4667 203.209 31.16C202.302 31.84 201.189 32.18 199.869 32.18C198.802 32.18 197.842 31.9467 196.989 31.48C196.149 31 195.489 30.3267 195.009 29.46C194.542 28.5933 194.309 27.5933 194.309 26.46C194.309 25.3133 194.542 24.3067 195.009 23.44C195.475 22.5733 196.129 21.9067 196.969 21.44C197.809 20.9733 198.775 20.74 199.869 20.74C200.922 20.74 201.862 20.9667 202.689 21.42C203.529 21.8733 204.175 22.52 204.629 23.36C205.095 24.1867 205.329 25.14 205.329 26.22ZM202.429 25.42C202.415 24.7 202.155 24.1267 201.649 23.7C201.142 23.26 200.522 23.04 199.789 23.04C199.095 23.04 198.509 23.2533 198.029 23.68C197.562 24.0933 197.275 24.6733 197.169 25.42H202.429ZM217.672 26.22C217.672 26.62 217.646 26.98 217.592 27.3H209.492C209.559 28.1 209.839 28.7267 210.332 29.18C210.826 29.6333 211.432 29.86 212.152 29.86C213.192 29.86 213.932 29.4133 214.372 28.52H217.392C217.072 29.5867 216.459 30.4667 215.552 31.16C214.646 31.84 213.532 32.18 212.212 32.18C211.146 32.18 210.186 31.9467 209.332 31.48C208.492 31 207.832 30.3267 207.352 29.46C206.886 28.5933 206.652 27.5933 206.652 26.46C206.652 25.3133 206.886 24.3067 207.352 23.44C207.819 22.5733 208.472 21.9067 209.312 21.44C210.152 20.9733 211.119 20.74 212.212 20.74C213.266 20.74 214.206 20.9667 215.032 21.42C215.872 21.8733 216.519 22.52 216.972 23.36C217.439 24.1867 217.672 25.14 217.672 26.22ZM214.772 25.42C214.759 24.7 214.499 24.1267 213.992 23.7C213.486 23.26 212.866 23.04 212.132 23.04C211.439 23.04 210.852 23.2533 210.372 23.68C209.906 24.0933 209.619 24.6733 209.512 25.42H214.772ZM233.476 20.76C234.836 20.76 235.93 21.18 236.756 22.02C237.596 22.8467 238.016 24.0067 238.016 25.5V32H235.216V25.88C235.216 25.0133 234.996 24.3533 234.556 23.9C234.116 23.4333 233.516 23.2 232.756 23.2C231.996 23.2 231.39 23.4333 230.936 23.9C230.496 24.3533 230.276 25.0133 230.276 25.88V32H227.476V25.88C227.476 25.0133 227.256 24.3533 226.816 23.9C226.376 23.4333 225.776 23.2 225.016 23.2C224.243 23.2 223.63 23.4333 223.176 23.9C222.736 24.3533 222.516 25.0133 222.516 25.88V32H219.716V20.92H222.516V22.26C222.876 21.7933 223.336 21.4267 223.896 21.16C224.47 20.8933 225.096 20.76 225.776 20.76C226.643 20.76 227.416 20.9467 228.096 21.32C228.776 21.68 229.303 22.2 229.676 22.88C230.036 22.24 230.556 21.7267 231.236 21.34C231.93 20.9533 232.676 20.76 233.476 20.76Z" fill="white"/>
</svg>
