<svg width="258" height="57" viewBox="0 0 258 57" fill="none" xmlns="http://www.w3.org/2000/svg">
<path d="M182.138 0.125732L215.963 27.5146L182.138 56.0773H0L33.8256 27.5146L0 0.125732H182.138Z" fill="#EC2027" fill-opacity="0.5"/>
<path d="M223.769 0.125732L257.595 27.5146L223.769 56.0773H41.6315L75.457 27.5146L41.6315 0.125732H223.769Z" fill="#214293"/>
<path d="M130.874 17.667V19.927H127.154V31.627H124.354V19.927H120.634V17.667H130.874ZM148.423 31.627L146.903 30.127C145.61 31.287 144.03 31.867 142.163 31.867C141.136 31.867 140.23 31.6936 139.443 31.347C138.67 30.987 138.07 30.487 137.643 29.847C137.216 29.1936 137.003 28.4403 137.003 27.587C137.003 26.667 137.263 25.8403 137.783 25.107C138.303 24.3736 139.07 23.7803 140.083 23.327C139.723 22.887 139.463 22.467 139.303 22.067C139.143 21.6536 139.063 21.2136 139.063 20.747C139.063 20.107 139.23 19.5336 139.563 19.027C139.896 18.507 140.37 18.1003 140.983 17.807C141.61 17.5136 142.336 17.367 143.163 17.367C144.003 17.367 144.723 17.527 145.323 17.847C145.923 18.167 146.37 18.5936 146.663 19.127C146.956 19.6603 147.083 20.2536 147.043 20.907H144.323C144.336 20.467 144.23 20.1336 144.003 19.907C143.776 19.667 143.47 19.547 143.083 19.547C142.71 19.547 142.396 19.6603 142.143 19.887C141.903 20.1003 141.783 20.3803 141.783 20.727C141.783 21.0603 141.883 21.3936 142.083 21.727C142.283 22.047 142.61 22.447 143.063 22.927L146.583 26.407C146.61 26.3803 146.63 26.3536 146.643 26.327C146.656 26.3003 146.67 26.2736 146.683 26.247L147.823 24.347H150.743L149.343 26.807C149.076 27.327 148.79 27.8203 148.483 28.287L151.863 31.627H148.423ZM142.243 29.547C143.336 29.547 144.303 29.1603 145.143 28.387L141.703 24.987C140.41 25.5603 139.763 26.3736 139.763 27.427C139.763 28.027 139.99 28.5336 140.443 28.947C140.896 29.347 141.496 29.547 142.243 29.547ZM157.335 24.627C157.335 23.2536 157.642 22.027 158.255 20.947C158.882 19.8536 159.728 19.007 160.795 18.407C161.875 17.7936 163.082 17.487 164.415 17.487C165.975 17.487 167.342 17.887 168.515 18.687C169.688 19.487 170.508 20.5936 170.975 22.007H167.755C167.435 21.3403 166.982 20.8403 166.395 20.507C165.822 20.1736 165.155 20.007 164.395 20.007C163.582 20.007 162.855 20.2003 162.215 20.587C161.588 20.9603 161.095 21.4936 160.735 22.187C160.388 22.8803 160.215 23.6936 160.215 24.627C160.215 25.547 160.388 26.3603 160.735 27.067C161.095 27.7603 161.588 28.3003 162.215 28.687C162.855 29.0603 163.582 29.247 164.395 29.247C165.155 29.247 165.822 29.0803 166.395 28.747C166.982 28.4003 167.435 27.8936 167.755 27.227H170.975C170.508 28.6536 169.688 29.767 168.515 30.567C167.355 31.3536 165.988 31.747 164.415 31.747C163.082 31.747 161.875 31.447 160.795 30.847C159.728 30.2336 158.882 29.387 158.255 28.307C157.642 27.227 157.335 26.0003 157.335 24.627Z" fill="white"/>
</svg>
