<svg width="139" height="173" viewBox="0 0 139 173" fill="none" xmlns="http://www.w3.org/2000/svg">
<path d="M136.158 85.9618C127.056 122.858 89.7645 145.391 52.8638 136.287C15.9785 127.185 -6.55423 89.8912 2.55153 52.9979C11.6492 16.0975 48.9408 -6.43694 85.8301 2.66479C122.728 11.7665 145.26 49.0645 136.157 85.9625L136.157 85.9618L136.158 85.9618Z" fill="#F7931A"/>
<path d="M99.6809 59.5948C101.028 50.4317 94.0424 45.5251 84.4984 42.2641L87.5613 29.8487L80.0037 27.9853L77.0221 40.0738C75.0352 39.5835 72.9949 39.1219 70.9671 38.6643L73.9704 26.496L66.4175 24.6326L63.3529 37.044C61.7088 36.6739 60.094 36.3082 58.5273 35.9224L58.5359 35.8834L48.1138 33.3081L46.1245 41.3801C46.1245 41.3801 51.7314 42.6508 51.6135 42.7301C54.6739 43.486 55.232 45.5093 55.1441 47.1143L51.6552 61.2583C51.8659 61.3113 52.1393 61.388 52.4411 61.5084C52.1889 61.4464 51.9206 61.3788 51.6422 61.3128L46.7519 81.1266C46.3804 82.0568 45.4351 83.4536 43.2954 82.9294C43.3714 83.0388 37.8024 81.5729 37.8024 81.5729L34.0739 90.2279L43.9089 92.6539C45.7385 93.1079 47.5316 93.5833 49.2973 94.0301L46.2028 106.588L53.7516 108.451L56.8162 96.0268C58.8786 96.5812 60.88 97.0923 62.8392 97.574L59.7849 109.94L67.3429 111.803L70.4371 99.269C83.3225 101.675 93.0044 100.668 97.0519 89.0086C100.313 79.6214 96.8519 74.22 90.0674 70.7089C94.9997 69.5585 98.709 66.3034 99.6836 59.5958L99.6812 59.5941L99.6809 59.5948ZM82.4838 83.8359C80.1728 93.2208 64.3687 88.1897 59.2457 86.9309L63.3522 70.2941C68.4749 71.5595 84.8992 74.0483 82.4842 83.8359L82.4838 83.8359ZM84.7596 59.4957C82.6514 68.0323 69.4972 63.7305 65.2309 62.6782L68.954 47.5896C73.2203 48.6418 86.9558 50.5916 84.7603 59.4957L84.7596 59.4957Z" fill="white"/>
<path d="M39.0893 158.908C39.9853 159.068 40.7453 159.54 41.3693 160.324C41.9933 161.108 42.3053 161.996 42.3053 162.988C42.3053 163.836 42.0813 164.604 41.6333 165.292C41.2013 165.964 40.5693 166.5 39.7373 166.9C38.9053 167.284 37.9373 167.476 36.8333 167.476H30.1613V150.796H36.5213C37.6573 150.796 38.6333 150.988 39.4493 151.372C40.2653 151.756 40.8813 152.276 41.2973 152.932C41.7133 153.572 41.9213 154.292 41.9213 155.092C41.9213 156.052 41.6653 156.852 41.1533 157.492C40.6413 158.132 39.9533 158.604 39.0893 158.908ZM32.8973 157.804H36.2813C37.1773 157.804 37.8733 157.604 38.3693 157.204C38.8813 156.788 39.1373 156.196 39.1373 155.428C39.1373 154.676 38.8813 154.092 38.3693 153.676C37.8733 153.244 37.1773 153.028 36.2813 153.028H32.8973V157.804ZM36.5933 165.244C37.5213 165.244 38.2493 165.02 38.7773 164.572C39.3053 164.124 39.5693 163.5 39.5693 162.7C39.5693 161.884 39.2893 161.236 38.7293 160.756C38.1693 160.276 37.4253 160.036 36.4973 160.036H32.8973V165.244H36.5933ZM46.6705 152.5C46.1745 152.5 45.7585 152.332 45.4225 151.996C45.0865 151.66 44.9185 151.244 44.9185 150.748C44.9185 150.252 45.0865 149.836 45.4225 149.5C45.7585 149.164 46.1745 148.996 46.6705 148.996C47.1505 148.996 47.5585 149.164 47.8945 149.5C48.2305 149.836 48.3985 150.252 48.3985 150.748C48.3985 151.244 48.2305 151.66 47.8945 151.996C47.5585 152.332 47.1505 152.5 46.6705 152.5ZM48.0145 154.252V167.476H45.2785V154.252H48.0145ZM54.7986 156.484V163.804C54.7986 164.3 54.9106 164.66 55.1346 164.884C55.3746 165.092 55.7746 165.196 56.3346 165.196H58.0146V167.476H55.8546C54.6226 167.476 53.6786 167.188 53.0226 166.612C52.3666 166.036 52.0386 165.1 52.0386 163.804V156.484H50.4786V154.252H52.0386V150.964H54.7986V154.252H58.0146V156.484H54.7986ZM59.6243 160.852C59.6243 159.492 59.8963 158.3 60.4403 157.276C61.0003 156.236 61.7683 155.436 62.7443 154.876C63.7203 154.316 64.8403 154.036 66.1043 154.036C67.7043 154.036 69.0243 154.42 70.0643 155.188C71.1203 155.94 71.8323 157.02 72.2003 158.428H69.2483C69.0083 157.772 68.6243 157.26 68.0963 156.892C67.5683 156.524 66.9043 156.34 66.1043 156.34C64.9843 156.34 64.0883 156.74 63.4163 157.54C62.7603 158.324 62.4323 159.428 62.4323 160.852C62.4323 162.276 62.7603 163.388 63.4163 164.188C64.0883 164.988 64.9843 165.388 66.1043 165.388C67.6883 165.388 68.7363 164.692 69.2483 163.3H72.2003C71.8163 164.644 71.0963 165.716 70.0403 166.516C68.9843 167.3 67.6723 167.692 66.1043 167.692C64.8403 167.692 63.7203 167.412 62.7443 166.852C61.7683 166.276 61.0003 165.476 60.4403 164.452C59.8963 163.412 59.6243 162.212 59.6243 160.852ZM80.663 167.692C79.415 167.692 78.287 167.412 77.279 166.852C76.271 166.276 75.479 165.476 74.903 164.452C74.327 163.412 74.039 162.212 74.039 160.852C74.039 159.508 74.335 158.316 74.927 157.276C75.519 156.236 76.327 155.436 77.351 154.876C78.375 154.316 79.519 154.036 80.783 154.036C82.047 154.036 83.191 154.316 84.215 154.876C85.239 155.436 86.047 156.236 86.639 157.276C87.231 158.316 87.527 159.508 87.527 160.852C87.527 162.196 87.223 163.388 86.615 164.428C86.007 165.468 85.175 166.276 84.119 166.852C83.079 167.412 81.927 167.692 80.663 167.692ZM80.663 165.316C81.367 165.316 82.023 165.148 82.631 164.812C83.255 164.476 83.759 163.972 84.143 163.3C84.527 162.628 84.719 161.812 84.719 160.852C84.719 159.892 84.535 159.084 84.167 158.428C83.799 157.756 83.311 157.252 82.703 156.916C82.095 156.58 81.439 156.412 80.735 156.412C80.031 156.412 79.375 156.58 78.767 156.916C78.175 157.252 77.703 157.756 77.351 158.428C76.999 159.084 76.823 159.892 76.823 160.852C76.823 162.276 77.183 163.38 77.903 164.164C78.639 164.932 79.559 165.316 80.663 165.316ZM91.6236 152.5C91.1276 152.5 90.7116 152.332 90.3756 151.996C90.0396 151.66 89.8716 151.244 89.8716 150.748C89.8716 150.252 90.0396 149.836 90.3756 149.5C90.7116 149.164 91.1276 148.996 91.6236 148.996C92.1036 148.996 92.5116 149.164 92.8476 149.5C93.1836 149.836 93.3516 150.252 93.3516 150.748C93.3516 151.244 93.1836 151.66 92.8476 151.996C92.5116 152.332 92.1036 152.5 91.6236 152.5ZM92.9676 154.252V167.476H90.2316V154.252H92.9676ZM103.232 154.036C104.272 154.036 105.2 154.252 106.016 154.684C106.848 155.116 107.496 155.756 107.96 156.604C108.424 157.452 108.656 158.476 108.656 159.676V167.476H105.944V160.084C105.944 158.9 105.648 157.996 105.056 157.372C104.464 156.732 103.656 156.412 102.632 156.412C101.608 156.412 100.792 156.732 100.184 157.372C99.5918 157.996 99.2958 158.9 99.2958 160.084V167.476H96.5598V154.252H99.2958V155.764C99.7438 155.22 100.312 154.796 101 154.492C101.704 154.188 102.448 154.036 103.232 154.036Z" fill="black"/>
</svg>
