<svg width="195" height="51" viewBox="0 0 195 51" fill="none" xmlns="http://www.w3.org/2000/svg">
<path d="M34.6537 0.00012207C34.6537 0.00012207 57.8448 12.7697 32.9434 17.6217V15.6939C32.9434 15.6939 53.2029 10.6535 34.6066 1.56189L34.6537 0.00012207Z" fill="#224191"/>
<path d="M39.6503 7.46465C39.6503 7.46465 33.5627 -0.713819 17.9631 1.09074C2.36345 2.89529 0.272637 10.9832 0.272637 10.9832C0.272637 10.9832 -4.95985 26.677 30.421 29.0577L30.4464 28.0721C30.4464 28.0721 13.4698 28.6772 4.9797 19.0493C0.914013 13.7697 9.19032 8.13502 11.9008 7.20738C14.6112 6.27973 23.8152 2.25029 37.94 7.9321L39.6503 7.46465Z" fill="#224191"/>
<path d="M5.48047 23.6115C5.48047 23.6115 20.4351 12.7407 36.0129 19.4009C47.4273 24.2892 37.8574 35.3448 32.5886 40.0265C30.7567 41.6586 28.7215 43.047 26.5336 44.1574C22.1853 46.3315 14.4851 49.35 8.05323 47.078L8.19455 45.6503C8.19455 45.6503 22.7469 47.1251 32.9474 32.9387C43.1478 18.7523 24.3884 18.8248 24.3884 18.8248C24.3884 18.8248 15.4707 18.611 6.63277 24.3181L5.48047 23.6115Z" fill="#EC2326"/>
<path d="M15.2026 50.9806C15.2026 50.9806 -9.27488 52.1402 7.27049 35.5513C7.5308 35.2816 7.85465 35.0815 8.21235 34.9695C8.57005 34.8574 8.95016 34.8369 9.31782 34.9099C9.84325 35.0259 10.2563 35.3339 9.98819 36.084C9.89395 36.3325 9.74681 36.5575 9.55698 36.7435C7.74518 38.5879 -4.02428 51.2053 15.2026 49.8827V50.9806Z" fill="#EC2326"/>
<path d="M48.4226 50.9263C47.5744 50.9407 46.7299 50.8096 45.926 50.5385C45.1493 50.2476 44.4518 49.7785 43.8895 49.1688C43.2207 48.4216 42.8292 47.4672 42.7807 46.4656C42.688 44.9982 42.7818 43.5249 43.0597 42.081L44.5092 35.2723C44.55 35.1383 44.5595 34.9967 44.5369 34.8585C44.5142 34.7202 44.4601 34.5891 44.3787 34.4751C44.2867 34.366 44.17 34.2804 44.0383 34.2256C43.9065 34.1708 43.7636 34.1482 43.6214 34.1598H42.8966L43.3424 32.0509H46.7848C49.302 32.0509 50.3262 33.138 49.8576 35.3121L48.2668 42.8637C47.9214 44.4919 47.9588 45.6998 48.3792 46.4873C48.5571 46.8514 48.8373 47.1556 49.1855 47.3629C49.5336 47.5701 49.9347 47.6713 50.3395 47.6541C51.2768 47.6541 52.196 47.235 53.0971 46.3967C53.9982 45.5585 54.6456 44.2383 55.0393 42.4361L56.5939 35.2179C56.8354 34.0825 57.2739 33.2745 57.9092 32.7937C58.5446 32.313 59.5109 32.0714 60.8081 32.069H62.6199L60.3262 42.8782C59.9807 44.5064 60.0242 45.7143 60.4566 46.5018C60.6344 46.8621 60.912 47.1637 61.2563 47.3705C61.6007 47.5774 61.9973 47.6809 62.3989 47.6686C63.3362 47.6686 64.2735 47.1746 65.2108 46.1866C66.1481 45.1985 66.8136 43.7926 67.2074 41.9687L68.6134 35.2324C68.8549 34.1212 69.2994 33.3192 69.9468 32.8264C70.5943 32.3335 71.569 32.092 72.8711 32.1016H74.6285L72.5921 41.465C72.0003 44.0845 70.5486 46.4304 68.4684 48.1288C66.2943 49.9914 63.5983 50.9226 60.3805 50.9226C58.0373 50.9226 56.4827 49.9358 55.717 47.9621C53.5428 49.9382 51.1114 50.9263 48.4226 50.9263Z" fill="#224191"/>
<path d="M79.9555 50.553C78.6462 50.553 77.6714 50.2752 77.0313 49.7196C76.3911 49.164 76.1942 48.345 76.4406 47.2628L78.9771 35.2723C79.1245 34.5331 78.8286 34.1635 78.0894 34.1635H77.3646L77.8103 32.0545H80.7889C82.0959 32.0545 83.0706 32.3323 83.7132 32.888C84.3558 33.4436 84.5527 34.2516 84.3038 35.3121L81.7673 47.3389C81.6441 48.0781 81.94 48.4477 82.6551 48.4477H83.3798L82.9631 50.553H79.9555ZM82.3978 29.7898C82.0137 29.8092 81.6305 29.7372 81.2796 29.5797C80.9288 29.4222 80.6203 29.1837 80.3795 28.8839C80.1392 28.5763 79.9726 28.2179 79.8922 27.8361C79.8118 27.4542 79.8198 27.059 79.9156 26.6807C80.097 25.8023 80.5819 25.0159 81.2854 24.4595C81.95 23.8719 82.8043 23.5438 83.6914 23.5354C84.0773 23.5167 84.4619 23.5908 84.8132 23.7516C85.1644 23.9124 85.4719 24.1552 85.7098 24.4595C85.9494 24.7709 86.1155 25.1324 86.1958 25.517C86.2762 25.9016 86.2686 26.2994 86.1736 26.6807C85.9707 27.5543 85.4745 28.3319 84.7677 28.8839C84.11 29.4571 83.2701 29.7781 82.3978 29.7898Z" fill="#224191"/>
<path d="M93.0542 50.9262C90.9308 50.9262 89.5055 50.1302 88.7783 48.5383C88.0512 46.9463 88.0077 44.6332 88.6479 41.5991L89.9814 35.2324H87.5391L88.2058 32.0509H90.6481L91.5721 27.8692C91.6953 27.13 91.3994 26.7604 90.6843 26.7604H89.9089L90.3908 24.6515H93.3876C94.6945 24.6515 95.6692 24.9293 96.3118 25.4849C96.9544 26.0405 97.1513 26.8486 96.9025 27.9091L96.0074 32.0436H99.9934L99.2904 35.2252H95.3515L93.8731 42.2948C93.4793 43.8989 93.3441 45.1514 93.4673 46.0525C93.5905 46.9536 94.035 47.4041 94.8008 47.4041C95.7381 47.4041 96.5159 46.8618 97.1344 45.7771L98.4679 46.5525C99.4052 47.1202 99.3436 47.8981 98.283 48.8861C97.589 49.5541 96.7697 50.0783 95.8724 50.4284C94.975 50.7785 94.0172 50.9477 93.0542 50.9262Z" fill="#224191"/>
<path d="M110.046 50.9987C107.21 50.9987 105.067 50.1157 103.618 48.3498C102.169 46.5839 101.756 44.2527 102.379 41.3563C102.916 38.6007 104.41 36.1238 106.597 34.3627C108.719 32.6046 111.396 31.6547 114.152 31.6813C115.417 31.653 116.673 31.9003 117.833 32.406C118.79 32.8016 119.608 33.471 120.185 34.3301C120.801 35.2964 120.517 36.061 119.334 36.6238L117.75 37.4138C117.267 35.8339 116.132 35.044 114.344 35.044C112.824 35.0557 111.37 35.671 110.304 36.7543C109.046 37.9905 108.205 39.5876 107.898 41.3237C107.501 43.1983 107.662 44.7093 108.379 45.8568C109.097 47.0043 110.195 47.578 111.673 47.578C113.451 47.578 114.92 46.7881 116.08 45.2082L117.337 45.9872C118.226 46.5791 118.189 47.357 117.225 48.3208C116.299 49.1629 115.219 49.8165 114.043 50.245C112.769 50.7414 111.414 50.997 110.046 50.9987Z" fill="#224191"/>
<path d="M121.186 50.5529L126.404 26.0139C126.551 25.2747 126.255 24.9051 125.516 24.9051H124.791L125.237 22.7961H128.233C129.567 22.7961 130.548 23.074 131.176 23.6296C131.804 24.1852 132.008 24.9933 131.788 26.0538L130.071 33.8989C131.762 32.418 133.612 31.6776 135.622 31.6776C137.77 31.6776 139.41 32.3745 140.543 33.7684C141.676 35.1623 141.917 37.4138 141.268 40.5228L139.818 47.3316C139.776 47.4683 139.765 47.6131 139.788 47.7545C139.811 47.8959 139.866 48.0302 139.949 48.1469C140.038 48.2494 140.15 48.3297 140.276 48.3812C140.402 48.4328 140.538 48.4543 140.673 48.444H141.449L141.003 50.5529H137.524C135.031 50.5529 134.007 49.455 134.452 47.2591L136.042 39.8561C136.412 38.2037 136.35 36.9705 135.858 36.1564C135.647 35.7751 135.335 35.4594 134.957 35.2439C134.578 35.0284 134.148 34.9216 133.712 34.9352C132.633 34.9702 131.601 35.3832 130.795 36.102C129.814 36.9313 129.153 38.077 128.926 39.3415L127.222 47.4113C126.981 48.5201 126.536 49.3221 125.889 49.8174C125.242 50.3126 124.275 50.5542 122.99 50.5421L121.186 50.5529Z" fill="#224191"/>
<path d="M148.424 50.553C147.115 50.553 146.14 50.2752 145.5 49.7196C144.86 49.164 144.663 48.345 144.909 47.2628L147.446 35.2723C147.593 34.5331 147.297 34.1635 146.558 34.1635H145.833L146.279 32.0545H149.276C150.583 32.0545 151.557 32.3323 152.2 32.888C152.843 33.4436 153.04 34.2492 152.791 35.3049L150.254 47.3316C150.131 48.0709 150.427 48.4405 151.142 48.4405H151.867L151.421 50.5494L148.424 50.553ZM150.867 29.7898C150.482 29.8092 150.099 29.7372 149.748 29.5797C149.398 29.4222 149.089 29.1837 148.848 28.8839C148.608 28.5763 148.441 28.2179 148.361 27.8361C148.281 27.4542 148.289 27.059 148.384 26.6807C148.566 25.8023 149.051 25.0159 149.754 24.4595C150.419 23.8719 151.273 23.5438 152.16 23.5354C152.546 23.5167 152.931 23.5908 153.282 23.7516C153.633 23.9124 153.941 24.1552 154.179 24.4595C154.418 24.7709 154.584 25.1324 154.665 25.517C154.745 25.9016 154.737 26.2994 154.642 26.6807C154.439 27.5543 153.943 28.3319 153.236 28.8839C152.579 29.4571 151.739 29.7781 150.867 29.7898Z" fill="#224191"/>
<path d="M160.823 50.9262C156.308 50.9262 154.666 48.0394 155.898 42.2658L157.38 35.2722C157.421 35.1382 157.431 34.9966 157.408 34.8584C157.385 34.7202 157.331 34.589 157.25 34.475C157.158 34.3659 157.041 34.2804 156.909 34.2255C156.778 34.1707 156.635 34.1481 156.492 34.1598H155.768L156.195 32.0436H159.638C162.155 32.0436 163.179 33.1307 162.71 35.3048L161.084 42.9651C160.441 45.9993 160.836 47.5164 162.268 47.5164C163.749 47.5164 165.319 46.7264 166.979 45.1465C168.534 43.7203 169.705 41.926 170.385 39.9285C170.688 38.9711 170.838 37.9721 170.831 36.9681C170.815 36.0832 170.915 35.2 171.128 34.3409C171.536 32.8094 172.604 32.0436 174.331 32.0436H176.219L175.553 34.8954C175.124 36.8735 174.459 38.7932 173.574 40.6134C172.697 42.4384 171.616 44.1585 170.353 45.7408C169.15 47.2599 167.668 48.5353 165.986 49.4985C164.421 50.4221 162.64 50.9147 160.823 50.9262Z" fill="#224191"/>
<path d="M183.29 50.9985C180.452 50.9985 178.312 50.1047 176.869 48.3171C175.427 46.5294 175.014 44.1922 175.63 41.3054C176.204 38.5914 177.686 36.1545 179.833 34.3979C181.98 32.6412 184.662 31.67 187.436 31.6449C188.934 31.6242 190.412 31.9872 191.73 32.6994C192.874 33.3435 193.768 34.3546 194.266 35.5692C194.783 36.7771 194.604 37.985 193.73 39.1928C192.855 40.4007 191.25 41.2788 188.914 41.8272L180.884 43.8238C180.914 44.8782 181.351 45.88 182.105 46.6176C182.882 47.2943 183.889 47.646 184.917 47.5996C186.273 47.6212 187.607 47.2662 188.773 46.5741C189.804 45.9765 190.704 45.1765 191.418 44.2224L192.639 44.9979C193.552 45.5656 193.515 46.3434 192.527 47.3315C191.387 48.4042 190.072 49.2743 188.639 49.9042C186.957 50.6529 185.131 51.0264 183.29 50.9985ZM181.254 40.7836L186.399 39.4864C187.352 39.2835 188.253 38.8863 189.045 38.3196C189.32 38.136 189.533 37.8731 189.655 37.5657C189.778 37.2582 189.803 36.9209 189.73 36.5984C189.679 36.352 189.575 36.1197 189.425 35.9181C189.274 35.7164 189.082 35.5503 188.86 35.4316C188.36 35.1441 187.791 34.9975 187.215 35.0076C186.055 35.0076 184.89 35.5378 183.718 36.5984C182.506 37.7233 181.65 39.1781 181.254 40.7836Z" fill="#224191"/>
</svg>
