<svg width="139" height="173" viewBox="0 0 139 173" fill="none" xmlns="http://www.w3.org/2000/svg">
<rect x="0.175781" y="0.817139" width="138" height="138" rx="69" transform="rotate(-0.141456 0.175781 0.817139)" fill="#C6C6C6"/>
<g clip-path="url(#clip0_7832_1149)">
<path d="M67.6426 22.4914L67.0306 24.5895L67.1808 85.4211L67.7995 86.0354L95.9951 69.2746L67.6426 22.4914Z" fill="#343434"/>
<path d="M67.6418 22.4913L39.52 69.414L67.7987 86.0353L67.7258 56.5093L67.6418 22.4913Z" fill="#8C8C8C"/>
<path d="M67.8109 91.3815L67.4641 91.8065L67.5176 113.476L67.868 114.49L96.0238 74.6293L67.8109 91.3815Z" fill="#3C3C3B"/>
<path d="M67.869 114.49L67.8119 91.3815L39.5332 74.7688L67.869 114.49Z" fill="#8C8C8C"/>
<path d="M67.7995 86.0353L95.9951 69.2745L67.7266 56.5093L67.7995 86.0353Z" fill="#141414"/>
<path d="M39.52 69.4138L67.7987 86.0351L67.7258 56.5091L39.52 69.4138Z" fill="#393939"/>
</g>
<path d="M15.6512 153.345V158.241H21.4112V160.473H15.6512V165.585H22.1312V167.817H12.9152V151.113H22.1312V153.345H15.6512ZM28.6932 156.825V164.145C28.6932 164.641 28.8052 165.001 29.0292 165.225C29.2692 165.433 29.6692 165.537 30.2292 165.537H31.9092V167.817H29.7492C28.5172 167.817 27.5732 167.529 26.9172 166.953C26.2612 166.377 25.9332 165.441 25.9332 164.145V156.825H24.3732V154.593H25.9332V151.305H28.6932V154.593H31.9092V156.825H28.6932ZM41.2709 154.377C42.2789 154.377 43.1749 154.593 43.9589 155.025C44.7589 155.457 45.3829 156.097 45.8309 156.945C46.2949 157.793 46.5269 158.817 46.5269 160.017V167.817H43.8149V160.425C43.8149 159.241 43.5189 158.337 42.9269 157.713C42.3349 157.073 41.5269 156.753 40.5029 156.753C39.4789 156.753 38.6629 157.073 38.0549 157.713C37.4629 158.337 37.1669 159.241 37.1669 160.425V167.817H34.4309V150.057H37.1669V156.129C37.6309 155.569 38.2149 155.137 38.9189 154.833C39.6389 154.529 40.4229 154.377 41.2709 154.377ZM62.1368 160.881C62.1368 161.377 62.1048 161.825 62.0408 162.225H51.9368C52.0168 163.281 52.4088 164.129 53.1128 164.769C53.8168 165.409 54.6808 165.729 55.7048 165.729C57.1768 165.729 58.2168 165.113 58.8248 163.881H61.7768C61.3768 165.097 60.6488 166.097 59.5928 166.881C58.5528 167.649 57.2568 168.033 55.7048 168.033C54.4408 168.033 53.3048 167.753 52.2968 167.193C51.3048 166.617 50.5208 165.817 49.9448 164.793C49.3848 163.753 49.1048 162.553 49.1048 161.193C49.1048 159.833 49.3768 158.641 49.9208 157.617C50.4808 156.577 51.2568 155.777 52.2488 155.217C53.2568 154.657 54.4088 154.377 55.7048 154.377C56.9528 154.377 58.0648 154.649 59.0408 155.193C60.0168 155.737 60.7768 156.505 61.3208 157.497C61.8648 158.473 62.1368 159.601 62.1368 160.881ZM59.2808 160.017C59.2648 159.009 58.9048 158.201 58.2008 157.593C57.4968 156.985 56.6248 156.681 55.5848 156.681C54.6408 156.681 53.8328 156.985 53.1608 157.593C52.4888 158.185 52.0888 158.993 51.9608 160.017H59.2808ZM67.5653 156.513C67.9653 155.841 68.4933 155.321 69.1493 154.953C69.8213 154.569 70.6133 154.377 71.5253 154.377V157.209H70.8293C69.7573 157.209 68.9413 157.481 68.3813 158.025C67.8373 158.569 67.5653 159.513 67.5653 160.857V167.817H64.8293V154.593H67.5653V156.513ZM86.1602 160.881C86.1602 161.377 86.1282 161.825 86.0642 162.225H75.9602C76.0402 163.281 76.4322 164.129 77.1362 164.769C77.8402 165.409 78.7042 165.729 79.7282 165.729C81.2002 165.729 82.2402 165.113 82.8482 163.881H85.8002C85.4002 165.097 84.6722 166.097 83.6162 166.881C82.5762 167.649 81.2802 168.033 79.7282 168.033C78.4642 168.033 77.3282 167.753 76.3202 167.193C75.3282 166.617 74.5442 165.817 73.9682 164.793C73.4082 163.753 73.1282 162.553 73.1282 161.193C73.1282 159.833 73.4002 158.641 73.9442 157.617C74.5042 156.577 75.2802 155.777 76.2722 155.217C77.2802 154.657 78.4322 154.377 79.7282 154.377C80.9762 154.377 82.0882 154.649 83.0642 155.193C84.0402 155.737 84.8002 156.505 85.3442 157.497C85.8882 158.473 86.1602 159.601 86.1602 160.881ZM83.3042 160.017C83.2882 159.009 82.9282 158.201 82.2242 157.593C81.5202 156.985 80.6482 156.681 79.6082 156.681C78.6642 156.681 77.8562 156.985 77.1842 157.593C76.5122 158.185 76.1122 158.993 75.9842 160.017H83.3042ZM100.829 154.593V167.817H98.0927V166.257C97.6607 166.801 97.0927 167.233 96.3887 167.553C95.7007 167.857 94.9647 168.009 94.1807 168.009C93.1407 168.009 92.2047 167.793 91.3727 167.361C90.5567 166.929 89.9087 166.289 89.4287 165.441C88.9647 164.593 88.7327 163.569 88.7327 162.369V154.593H91.4447V161.961C91.4447 163.145 91.7407 164.057 92.3327 164.697C92.9247 165.321 93.7327 165.633 94.7567 165.633C95.7807 165.633 96.5887 165.321 97.1807 164.697C97.7887 164.057 98.0927 163.145 98.0927 161.961V154.593H100.829ZM120.447 154.377C121.487 154.377 122.415 154.593 123.231 155.025C124.063 155.457 124.711 156.097 125.175 156.945C125.655 157.793 125.895 158.817 125.895 160.017V167.817H123.183V160.425C123.183 159.241 122.887 158.337 122.295 157.713C121.703 157.073 120.895 156.753 119.871 156.753C118.847 156.753 118.031 157.073 117.423 157.713C116.831 158.337 116.535 159.241 116.535 160.425V167.817H113.823V160.425C113.823 159.241 113.527 158.337 112.935 157.713C112.343 157.073 111.535 156.753 110.511 156.753C109.487 156.753 108.671 157.073 108.063 157.713C107.471 158.337 107.175 159.241 107.175 160.425V167.817H104.439V154.593H107.175V156.105C107.623 155.561 108.191 155.137 108.879 154.833C109.567 154.529 110.303 154.377 111.087 154.377C112.143 154.377 113.087 154.601 113.919 155.049C114.751 155.497 115.391 156.145 115.839 156.993C116.239 156.193 116.863 155.561 117.711 155.097C118.559 154.617 119.471 154.377 120.447 154.377Z" fill="black"/>
<defs>
<clipPath id="clip0_7832_1149">
<rect width="92" height="92" fill="white" transform="translate(24.1758 23.8171) rotate(-0.141456)"/>
</clipPath>
</defs>
</svg>
