<svg width="322" height="206" viewBox="0 0 322 206" fill="none" xmlns="http://www.w3.org/2000/svg">
<g clip-path="url(#clip0_7795_964)">
<rect width="322" height="206" rx="13" fill="#D9D9D9"/>
<path d="M539 185C539 237.467 342.83 304 239 304C135.17 304 -21 313.967 -21 261.5C-21 209.033 174 88.5 379 88.5C467 147 539 132.533 539 185Z" fill="url(#paint0_linear_7795_964)"/>
<path d="M34.65 74.36C34.17 73.48 33.51 72.81 32.67 72.35C31.83 71.89 30.85 71.66 29.73 71.66C28.49 71.66 27.39 71.94 26.43 72.5C25.47 73.06 24.72 73.86 24.18 74.9C23.64 75.94 23.37 77.14 23.37 78.5C23.37 79.9 23.64 81.12 24.18 82.16C24.74 83.2 25.51 84 26.49 84.56C27.47 85.12 28.61 85.4 29.91 85.4C31.51 85.4 32.82 84.98 33.84 84.14C34.86 83.28 35.53 82.09 35.85 80.57H28.65V77.36H39.99V81.02C39.71 82.48 39.11 83.83 38.19 85.07C37.27 86.31 36.08 87.31 34.62 88.07C33.18 88.81 31.56 89.18 29.76 89.18C27.74 89.18 25.91 88.73 24.27 87.83C22.65 86.91 21.37 85.64 20.43 84.02C19.51 82.4 19.05 80.56 19.05 78.5C19.05 76.44 19.51 74.6 20.43 72.98C21.37 71.34 22.65 70.07 24.27 69.17C25.91 68.25 27.73 67.79 29.73 67.79C32.09 67.79 34.14 68.37 35.88 69.53C37.62 70.67 38.82 72.28 39.48 74.36H34.65ZM54.9773 78.26C56.1573 78.48 57.1273 79.07 57.8873 80.03C58.6473 80.99 59.0273 82.09 59.0273 83.33C59.0273 84.45 58.7473 85.44 58.1873 86.3C57.6473 87.14 56.8573 87.8 55.8173 88.28C54.7773 88.76 53.5473 89 52.1273 89H43.0973V68.06H51.7373C53.1573 68.06 54.3773 68.29 55.3973 68.75C56.4373 69.21 57.2173 69.85 57.7373 70.67C58.2773 71.49 58.5473 72.42 58.5473 73.46C58.5473 74.68 58.2173 75.7 57.5573 76.52C56.9173 77.34 56.0573 77.92 54.9773 78.26ZM47.2973 76.7H51.1373C52.1373 76.7 52.9073 76.48 53.4473 76.04C53.9873 75.58 54.2573 74.93 54.2573 74.09C54.2573 73.25 53.9873 72.6 53.4473 72.14C52.9073 71.68 52.1373 71.45 51.1373 71.45H47.2973V76.7ZM51.5273 85.58C52.5473 85.58 53.3373 85.34 53.8973 84.86C54.4773 84.38 54.7673 83.7 54.7673 82.82C54.7673 81.92 54.4673 81.22 53.8673 80.72C53.2673 80.2 52.4573 79.94 51.4373 79.94H47.2973V85.58H51.5273ZM77.6447 74.54C77.6447 75.66 77.3747 76.71 76.8347 77.69C76.3147 78.67 75.4847 79.46 74.3447 80.06C73.2247 80.66 71.8047 80.96 70.0847 80.96H66.5747V89H62.3747V68.06H70.0847C71.7047 68.06 73.0847 68.34 74.2247 68.9C75.3647 69.46 76.2147 70.23 76.7747 71.21C77.3547 72.19 77.6447 73.3 77.6447 74.54ZM69.9047 77.57C71.0647 77.57 71.9247 77.31 72.4847 76.79C73.0447 76.25 73.3247 75.5 73.3247 74.54C73.3247 72.5 72.1847 71.48 69.9047 71.48H66.5747V77.57H69.9047ZM102.355 74.36C101.875 73.48 101.215 72.81 100.375 72.35C99.5351 71.89 98.5551 71.66 97.4351 71.66C96.1951 71.66 95.0951 71.94 94.1351 72.5C93.1751 73.06 92.4251 73.86 91.8851 74.9C91.3451 75.94 91.0751 77.14 91.0751 78.5C91.0751 79.9 91.3451 81.12 91.8851 82.16C92.4451 83.2 93.2151 84 94.1951 84.56C95.1751 85.12 96.3151 85.4 97.6151 85.4C99.2151 85.4 100.525 84.98 101.545 84.14C102.565 83.28 103.235 82.09 103.555 80.57H96.3551V77.36H107.695V81.02C107.415 82.48 106.815 83.83 105.895 85.07C104.975 86.31 103.785 87.31 102.325 88.07C100.885 88.81 99.2651 89.18 97.4651 89.18C95.4451 89.18 93.6151 88.73 91.9751 87.83C90.3551 86.91 89.0751 85.64 88.1351 84.02C87.2151 82.4 86.7551 80.56 86.7551 78.5C86.7551 76.44 87.2151 74.6 88.1351 72.98C89.0751 71.34 90.3551 70.07 91.9751 69.17C93.6151 68.25 95.4351 67.79 97.4351 67.79C99.7951 67.79 101.845 68.37 103.585 69.53C105.325 70.67 106.525 72.28 107.185 74.36H102.355ZM115.002 68.06V89H110.802V68.06H115.002ZM132.082 68.06V71.45H123.352V76.82H130.042V80.15H123.352V89H119.152V68.06H132.082ZM149.31 68.06V71.45H143.73V89H139.53V71.45H133.95V68.06H149.31ZM158.503 78.5C158.503 76.44 158.963 74.6 159.883 72.98C160.823 71.34 162.093 70.07 163.693 69.17C165.313 68.25 167.123 67.79 169.123 67.79C171.463 67.79 173.513 68.39 175.273 69.59C177.033 70.79 178.263 72.45 178.963 74.57H174.133C173.653 73.57 172.973 72.82 172.093 72.32C171.233 71.82 170.233 71.57 169.093 71.57C167.873 71.57 166.783 71.86 165.823 72.44C164.883 73 164.143 73.8 163.603 74.84C163.083 75.88 162.823 77.1 162.823 78.5C162.823 79.88 163.083 81.1 163.603 82.16C164.143 83.2 164.883 84.01 165.823 84.59C166.783 85.15 167.873 85.43 169.093 85.43C170.233 85.43 171.233 85.18 172.093 84.68C172.973 84.16 173.653 83.4 174.133 82.4H178.963C178.263 84.54 177.033 86.21 175.273 87.41C173.533 88.59 171.483 89.18 169.123 89.18C167.123 89.18 165.313 88.73 163.693 87.83C162.093 86.91 160.823 85.64 159.883 84.02C158.963 82.4 158.503 80.56 158.503 78.5ZM195.39 85.01H187.05L185.67 89H181.26L188.79 68.03H193.68L201.21 89H196.77L195.39 85.01ZM194.25 81.65L191.22 72.89L188.19 81.65H194.25ZM214.825 89L210.205 80.84H208.225V89H204.025V68.06H211.885C213.505 68.06 214.885 68.35 216.025 68.93C217.165 69.49 218.015 70.26 218.575 71.24C219.155 72.2 219.445 73.28 219.445 74.48C219.445 75.86 219.045 77.11 218.245 78.23C217.445 79.33 216.255 80.09 214.675 80.51L219.685 89H214.825ZM208.225 77.69H211.735C212.875 77.69 213.725 77.42 214.285 76.88C214.845 76.32 215.125 75.55 215.125 74.57C215.125 73.61 214.845 72.87 214.285 72.35C213.725 71.81 212.875 71.54 211.735 71.54H208.225V77.69ZM230.564 68.06C232.764 68.06 234.694 68.49 236.354 69.35C238.034 70.21 239.324 71.44 240.224 73.04C241.144 74.62 241.604 76.46 241.604 78.56C241.604 80.66 241.144 82.5 240.224 84.08C239.324 85.64 238.034 86.85 236.354 87.71C234.694 88.57 232.764 89 230.564 89H223.244V68.06H230.564ZM230.414 85.43C232.614 85.43 234.314 84.83 235.514 83.63C236.714 82.43 237.314 80.74 237.314 78.56C237.314 76.38 236.714 74.68 235.514 73.46C234.314 72.22 232.614 71.6 230.414 71.6H227.444V85.43H230.414Z" fill="black"/>
<path d="M156.51 175.988C157.061 176.091 157.513 176.366 157.868 176.814C158.223 177.262 158.4 177.775 158.4 178.354C158.4 178.877 158.269 179.339 158.008 179.74C157.756 180.132 157.387 180.44 156.902 180.664C156.417 180.888 155.843 181 155.18 181H150.966V171.228H154.998C155.661 171.228 156.23 171.335 156.706 171.55C157.191 171.765 157.555 172.063 157.798 172.446C158.05 172.829 158.176 173.263 158.176 173.748C158.176 174.317 158.022 174.793 157.714 175.176C157.415 175.559 157.014 175.829 156.51 175.988ZM152.926 175.26H154.718C155.185 175.26 155.544 175.157 155.796 174.952C156.048 174.737 156.174 174.434 156.174 174.042C156.174 173.65 156.048 173.347 155.796 173.132C155.544 172.917 155.185 172.81 154.718 172.81H152.926V175.26ZM154.9 179.404C155.376 179.404 155.745 179.292 156.006 179.068C156.277 178.844 156.412 178.527 156.412 178.116C156.412 177.696 156.272 177.369 155.992 177.136C155.712 176.893 155.334 176.772 154.858 176.772H152.926V179.404H154.9ZM161.922 174.448C162.174 174.037 162.501 173.715 162.902 173.482C163.313 173.249 163.779 173.132 164.302 173.132V175.19H163.784C163.168 175.19 162.701 175.335 162.384 175.624C162.076 175.913 161.922 176.417 161.922 177.136V181H159.962V173.244H161.922V174.448ZM166.616 172.32C166.271 172.32 165.982 172.213 165.748 171.998C165.524 171.774 165.412 171.499 165.412 171.172C165.412 170.845 165.524 170.575 165.748 170.36C165.982 170.136 166.271 170.024 166.616 170.024C166.962 170.024 167.246 170.136 167.47 170.36C167.704 170.575 167.82 170.845 167.82 171.172C167.82 171.499 167.704 171.774 167.47 171.998C167.246 172.213 166.962 172.32 166.616 172.32ZM167.582 173.244V181H165.622V173.244H167.582ZM171.801 174.854V178.606C171.801 178.867 171.861 179.059 171.983 179.18C172.113 179.292 172.328 179.348 172.627 179.348H173.537V181H172.305C170.653 181 169.827 180.197 169.827 178.592V174.854H168.903V173.244H169.827V171.326H171.801V173.244H173.537V174.854H171.801ZM175.94 172.32C175.595 172.32 175.306 172.213 175.072 171.998C174.848 171.774 174.736 171.499 174.736 171.172C174.736 170.845 174.848 170.575 175.072 170.36C175.306 170.136 175.595 170.024 175.94 170.024C176.286 170.024 176.57 170.136 176.794 170.36C177.028 170.575 177.144 170.845 177.144 171.172C177.144 171.499 177.028 171.774 176.794 171.998C176.57 172.213 176.286 172.32 175.94 172.32ZM176.906 173.244V181H174.946V173.244H176.906ZM181.811 181.126C181.176 181.126 180.607 181.014 180.103 180.79C179.599 180.557 179.198 180.244 178.899 179.852C178.61 179.46 178.451 179.026 178.423 178.55H180.397C180.434 178.849 180.579 179.096 180.831 179.292C181.092 179.488 181.414 179.586 181.797 179.586C182.17 179.586 182.46 179.511 182.665 179.362C182.88 179.213 182.987 179.021 182.987 178.788C182.987 178.536 182.856 178.349 182.595 178.228C182.343 178.097 181.937 177.957 181.377 177.808C180.798 177.668 180.322 177.523 179.949 177.374C179.585 177.225 179.268 176.996 178.997 176.688C178.736 176.38 178.605 175.965 178.605 175.442C178.605 175.013 178.726 174.621 178.969 174.266C179.221 173.911 179.576 173.631 180.033 173.426C180.5 173.221 181.046 173.118 181.671 173.118C182.595 173.118 183.332 173.351 183.883 173.818C184.434 174.275 184.737 174.896 184.793 175.68H182.917C182.889 175.372 182.758 175.129 182.525 174.952C182.301 174.765 181.998 174.672 181.615 174.672C181.26 174.672 180.985 174.737 180.789 174.868C180.602 174.999 180.509 175.181 180.509 175.414C180.509 175.675 180.64 175.876 180.901 176.016C181.162 176.147 181.568 176.282 182.119 176.422C182.679 176.562 183.141 176.707 183.505 176.856C183.869 177.005 184.182 177.239 184.443 177.556C184.714 177.864 184.854 178.275 184.863 178.788C184.863 179.236 184.737 179.637 184.485 179.992C184.242 180.347 183.888 180.627 183.421 180.832C182.964 181.028 182.427 181.126 181.811 181.126ZM190.84 173.132C191.428 173.132 191.951 173.263 192.408 173.524C192.865 173.776 193.22 174.154 193.472 174.658C193.733 175.153 193.864 175.75 193.864 176.45V181H191.904V176.716C191.904 176.1 191.75 175.629 191.442 175.302C191.134 174.966 190.714 174.798 190.182 174.798C189.641 174.798 189.211 174.966 188.894 175.302C188.586 175.629 188.432 176.1 188.432 176.716V181H186.472V170.64H188.432V174.21C188.684 173.874 189.02 173.613 189.44 173.426C189.86 173.23 190.327 173.132 190.84 173.132ZM206.19 174.252C206.19 174.775 206.064 175.265 205.812 175.722C205.569 176.179 205.182 176.548 204.65 176.828C204.127 177.108 203.464 177.248 202.662 177.248H201.024V181H199.064V171.228H202.662C203.418 171.228 204.062 171.359 204.594 171.62C205.126 171.881 205.522 172.241 205.784 172.698C206.054 173.155 206.19 173.673 206.19 174.252ZM202.578 175.666C203.119 175.666 203.52 175.545 203.782 175.302C204.043 175.05 204.174 174.7 204.174 174.252C204.174 173.3 203.642 172.824 202.578 172.824H201.024V175.666H202.578ZM211.025 181.126C210.279 181.126 209.607 180.963 209.009 180.636C208.412 180.3 207.941 179.829 207.595 179.222C207.259 178.615 207.091 177.915 207.091 177.122C207.091 176.329 207.264 175.629 207.609 175.022C207.964 174.415 208.445 173.949 209.051 173.622C209.658 173.286 210.335 173.118 211.081 173.118C211.828 173.118 212.505 173.286 213.111 173.622C213.718 173.949 214.194 174.415 214.539 175.022C214.894 175.629 215.071 176.329 215.071 177.122C215.071 177.915 214.889 178.615 214.525 179.222C214.171 179.829 213.685 180.3 213.069 180.636C212.463 180.963 211.781 181.126 211.025 181.126ZM211.025 179.418C211.38 179.418 211.711 179.334 212.019 179.166C212.337 178.989 212.589 178.727 212.775 178.382C212.962 178.037 213.055 177.617 213.055 177.122C213.055 176.385 212.859 175.82 212.467 175.428C212.085 175.027 211.613 174.826 211.053 174.826C210.493 174.826 210.022 175.027 209.639 175.428C209.266 175.82 209.079 176.385 209.079 177.122C209.079 177.859 209.261 178.429 209.625 178.83C209.999 179.222 210.465 179.418 211.025 179.418ZM223.831 173.244V181H221.857V180.02C221.605 180.356 221.274 180.622 220.863 180.818C220.462 181.005 220.023 181.098 219.547 181.098C218.94 181.098 218.404 180.972 217.937 180.72C217.47 180.459 217.102 180.081 216.831 179.586C216.57 179.082 216.439 178.485 216.439 177.794V173.244H218.399V177.514C218.399 178.13 218.553 178.606 218.861 178.942C219.169 179.269 219.589 179.432 220.121 179.432C220.662 179.432 221.087 179.269 221.395 178.942C221.703 178.606 221.857 178.13 221.857 177.514V173.244H223.831ZM230.063 173.132C230.987 173.132 231.733 173.426 232.303 174.014C232.872 174.593 233.157 175.405 233.157 176.45V181H231.197V176.716C231.197 176.1 231.043 175.629 230.735 175.302C230.427 174.966 230.007 174.798 229.475 174.798C228.933 174.798 228.504 174.966 228.187 175.302C227.879 175.629 227.725 176.1 227.725 176.716V181H225.765V173.244H227.725V174.21C227.986 173.874 228.317 173.613 228.719 173.426C229.129 173.23 229.577 173.132 230.063 173.132ZM234.517 177.094C234.517 176.31 234.671 175.615 234.979 175.008C235.296 174.401 235.725 173.935 236.267 173.608C236.808 173.281 237.41 173.118 238.073 173.118C238.577 173.118 239.057 173.23 239.515 173.454C239.972 173.669 240.336 173.958 240.607 174.322V170.64H242.595V181H240.607V179.852C240.364 180.235 240.023 180.543 239.585 180.776C239.146 181.009 238.637 181.126 238.059 181.126C237.405 181.126 236.808 180.958 236.267 180.622C235.725 180.286 235.296 179.815 234.979 179.208C234.671 178.592 234.517 177.887 234.517 177.094ZM240.621 177.122C240.621 176.646 240.527 176.24 240.341 175.904C240.154 175.559 239.902 175.297 239.585 175.12C239.267 174.933 238.927 174.84 238.563 174.84C238.199 174.84 237.863 174.929 237.555 175.106C237.247 175.283 236.995 175.545 236.799 175.89C236.612 176.226 236.519 176.627 236.519 177.094C236.519 177.561 236.612 177.971 236.799 178.326C236.995 178.671 237.247 178.937 237.555 179.124C237.872 179.311 238.208 179.404 238.563 179.404C238.927 179.404 239.267 179.315 239.585 179.138C239.902 178.951 240.154 178.69 240.341 178.354C240.527 178.009 240.621 177.598 240.621 177.122ZM251.219 181.098C250.538 181.098 249.922 180.981 249.371 180.748C248.83 180.515 248.4 180.179 248.083 179.74C247.766 179.301 247.602 178.783 247.593 178.186H249.693C249.721 178.587 249.861 178.905 250.113 179.138C250.374 179.371 250.729 179.488 251.177 179.488C251.634 179.488 251.994 179.381 252.255 179.166C252.516 178.942 252.647 178.653 252.647 178.298C252.647 178.009 252.558 177.771 252.381 177.584C252.204 177.397 251.98 177.253 251.709 177.15C251.448 177.038 251.084 176.917 250.617 176.786C249.982 176.599 249.464 176.417 249.063 176.24C248.671 176.053 248.33 175.778 248.041 175.414C247.761 175.041 247.621 174.546 247.621 173.93C247.621 173.351 247.766 172.847 248.055 172.418C248.344 171.989 248.75 171.662 249.273 171.438C249.796 171.205 250.393 171.088 251.065 171.088C252.073 171.088 252.89 171.335 253.515 171.83C254.15 172.315 254.5 172.997 254.565 173.874H252.409C252.39 173.538 252.246 173.263 251.975 173.048C251.714 172.824 251.364 172.712 250.925 172.712C250.542 172.712 250.234 172.81 250.001 173.006C249.777 173.202 249.665 173.487 249.665 173.86C249.665 174.121 249.749 174.341 249.917 174.518C250.094 174.686 250.309 174.826 250.561 174.938C250.822 175.041 251.186 175.162 251.653 175.302C252.288 175.489 252.806 175.675 253.207 175.862C253.608 176.049 253.954 176.329 254.243 176.702C254.532 177.075 254.677 177.565 254.677 178.172C254.677 178.695 254.542 179.18 254.271 179.628C254 180.076 253.604 180.435 253.081 180.706C252.558 180.967 251.938 181.098 251.219 181.098ZM258.658 174.854V178.606C258.658 178.867 258.719 179.059 258.84 179.18C258.971 179.292 259.185 179.348 259.484 179.348H260.394V181H259.162C257.51 181 256.684 180.197 256.684 178.592V174.854H255.76V173.244H256.684V171.326H258.658V173.244H260.394V174.854H258.658ZM269.014 176.954C269.014 177.234 268.995 177.486 268.958 177.71H263.288C263.335 178.27 263.531 178.709 263.876 179.026C264.221 179.343 264.646 179.502 265.15 179.502C265.878 179.502 266.396 179.189 266.704 178.564H268.818C268.594 179.311 268.165 179.927 267.53 180.412C266.895 180.888 266.116 181.126 265.192 181.126C264.445 181.126 263.773 180.963 263.176 180.636C262.588 180.3 262.126 179.829 261.79 179.222C261.463 178.615 261.3 177.915 261.3 177.122C261.3 176.319 261.463 175.615 261.79 175.008C262.117 174.401 262.574 173.935 263.162 173.608C263.75 173.281 264.427 173.118 265.192 173.118C265.929 173.118 266.587 173.277 267.166 173.594C267.754 173.911 268.207 174.364 268.524 174.952C268.851 175.531 269.014 176.198 269.014 176.954ZM266.984 176.394C266.975 175.89 266.793 175.489 266.438 175.19C266.083 174.882 265.649 174.728 265.136 174.728C264.651 174.728 264.24 174.877 263.904 175.176C263.577 175.465 263.377 175.871 263.302 176.394H266.984ZM272.405 174.448C272.657 174.037 272.983 173.715 273.385 173.482C273.795 173.249 274.262 173.132 274.785 173.132V175.19H274.267C273.651 175.19 273.184 175.335 272.867 175.624C272.559 175.913 272.405 176.417 272.405 177.136V181H270.445V173.244H272.405V174.448ZM278.065 170.64V181H276.105V170.64H278.065ZM280.995 172.32C280.65 172.32 280.36 172.213 280.127 171.998C279.903 171.774 279.791 171.499 279.791 171.172C279.791 170.845 279.903 170.575 280.127 170.36C280.36 170.136 280.65 170.024 280.995 170.024C281.34 170.024 281.625 170.136 281.849 170.36C282.082 170.575 282.199 170.845 282.199 171.172C282.199 171.499 282.082 171.774 281.849 171.998C281.625 172.213 281.34 172.32 280.995 172.32ZM281.961 173.244V181H280.001V173.244H281.961ZM288.196 173.132C289.12 173.132 289.866 173.426 290.436 174.014C291.005 174.593 291.29 175.405 291.29 176.45V181H289.33V176.716C289.33 176.1 289.176 175.629 288.868 175.302C288.56 174.966 288.14 174.798 287.608 174.798C287.066 174.798 286.637 174.966 286.32 175.302C286.012 175.629 285.858 176.1 285.858 176.716V181H283.898V173.244H285.858V174.21C286.119 173.874 286.45 173.613 286.852 173.426C287.262 173.23 287.71 173.132 288.196 173.132ZM296.192 173.118C296.77 173.118 297.279 173.235 297.718 173.468C298.156 173.692 298.502 173.986 298.754 174.35V173.244H300.728V181.056C300.728 181.775 300.583 182.414 300.294 182.974C300.004 183.543 299.57 183.991 298.992 184.318C298.413 184.654 297.713 184.822 296.892 184.822C295.79 184.822 294.885 184.565 294.176 184.052C293.476 183.539 293.079 182.839 292.986 181.952H294.932C295.034 182.307 295.254 182.587 295.59 182.792C295.935 183.007 296.35 183.114 296.836 183.114C297.405 183.114 297.867 182.941 298.222 182.596C298.576 182.26 298.754 181.747 298.754 181.056V179.852C298.502 180.216 298.152 180.519 297.704 180.762C297.265 181.005 296.761 181.126 296.192 181.126C295.538 181.126 294.941 180.958 294.4 180.622C293.858 180.286 293.429 179.815 293.111 179.208C292.803 178.592 292.649 177.887 292.649 177.094C292.649 176.31 292.803 175.615 293.111 175.008C293.429 174.401 293.854 173.935 294.386 173.608C294.927 173.281 295.529 173.118 296.192 173.118ZM298.754 177.122C298.754 176.646 298.66 176.24 298.474 175.904C298.287 175.559 298.035 175.297 297.718 175.12C297.4 174.933 297.06 174.84 296.696 174.84C296.332 174.84 295.996 174.929 295.688 175.106C295.38 175.283 295.128 175.545 294.932 175.89C294.745 176.226 294.652 176.627 294.652 177.094C294.652 177.561 294.745 177.971 294.932 178.326C295.128 178.671 295.38 178.937 295.688 179.124C296.005 179.311 296.341 179.404 296.696 179.404C297.06 179.404 297.4 179.315 297.718 179.138C298.035 178.951 298.287 178.69 298.474 178.354C298.66 178.009 298.754 177.598 298.754 177.122Z" fill="white"/>
<path d="M34.4384 15.4274C34.4384 15.4274 46.5539 22.0985 33.5449 24.6333V23.6262C33.5449 23.6262 44.1289 20.9929 34.4138 16.2433L34.4384 15.4274Z" fill="#224191"/>
<path d="M37.0481 19.327C37.0481 19.327 33.8678 15.0544 25.7183 15.9971C17.5687 16.9399 16.4764 21.1652 16.4764 21.1652C16.4764 21.1652 13.7429 29.3639 32.2266 30.6077L32.2398 30.0928C32.2398 30.0928 23.3709 30.4089 18.9355 25.3791C16.8115 22.6209 21.1352 19.6772 22.5512 19.1926C23.9672 18.708 28.7755 16.6029 36.1546 19.5712L37.0481 19.327Z" fill="#224191"/>
<path d="M19.1973 27.7625C19.1973 27.7625 27.0099 22.0833 35.1481 25.5628C41.1112 28.1165 36.1116 33.8922 33.3591 36.338C32.4021 37.1906 31.3389 37.916 30.1959 38.496C27.9242 39.6319 23.9015 41.2088 20.5413 40.0218L20.6152 39.276C20.6152 39.276 28.2176 40.0465 33.5466 32.6352C38.8755 25.2239 29.0752 25.2618 29.0752 25.2618C29.0752 25.2618 24.4164 25.1501 19.7993 28.1316L19.1973 27.7625Z" fill="#EC2326"/>
<path d="M24.276 42.0606C24.276 42.0606 11.4885 42.6664 20.1321 34C20.2681 33.8591 20.4373 33.7546 20.6242 33.6961C20.811 33.6375 21.0096 33.6268 21.2017 33.665C21.4762 33.7256 21.692 33.8865 21.5519 34.2783C21.5027 34.4081 21.4258 34.5257 21.3266 34.6229C20.3801 35.5864 14.2315 42.178 24.276 41.487V42.0606Z" fill="#EC2326"/>
<path d="M41.6316 42.0323C41.1884 42.0398 40.7472 41.9713 40.3273 41.8297C39.9215 41.6777 39.5571 41.4326 39.2634 41.1141C38.914 40.7238 38.7094 40.2252 38.6841 39.7019C38.6357 38.9353 38.6846 38.1656 38.8299 37.4113L39.5871 33.8543C39.6084 33.7843 39.6134 33.7103 39.6016 33.6381C39.5897 33.5659 39.5615 33.4974 39.5189 33.4378C39.4709 33.3808 39.4099 33.3361 39.3411 33.3075C39.2723 33.2788 39.1976 33.2671 39.1233 33.2731H38.7447L38.9775 32.1714H40.7759C42.0909 32.1714 42.626 32.7393 42.3812 33.8751L41.5502 37.8202C41.3697 38.6708 41.3893 39.3019 41.6088 39.7133C41.7018 39.9035 41.8482 40.0624 42.0301 40.1707C42.212 40.2789 42.4215 40.3318 42.633 40.3228C43.1227 40.3228 43.6029 40.1039 44.0736 39.666C44.5443 39.228 44.8826 38.5383 45.0883 37.5969L45.9004 33.8259C46.0266 33.2328 46.2556 32.8106 46.5876 32.5595C46.9195 32.3083 47.4243 32.1821 48.102 32.1809H49.0485L47.8502 37.8278C47.6698 38.6784 47.6925 39.3094 47.9184 39.7209C48.0112 39.9091 48.1563 40.0666 48.3362 40.1747C48.5161 40.2828 48.7233 40.3368 48.933 40.3304C49.4227 40.3304 49.9124 40.0723 50.4021 39.5562C50.8917 39.04 51.2394 38.3055 51.4451 37.3527L52.1796 33.8335C52.3058 33.2529 52.538 32.834 52.8763 32.5765C53.2145 32.319 53.7237 32.1928 54.4039 32.1979H55.3221L54.2582 37.0895C53.949 38.458 53.1906 39.6835 52.1039 40.5708C50.9681 41.5439 49.5596 42.0304 47.8786 42.0304C46.6544 42.0304 45.8423 41.5148 45.4423 40.4838C44.3064 41.5161 43.0362 42.0323 41.6316 42.0323Z" fill="#224191"/>
<path d="M58.1048 41.8373C57.4207 41.8373 56.9115 41.6921 56.5771 41.4019C56.2426 41.1116 56.1398 40.6838 56.2685 40.1184L57.5936 33.8543C57.6706 33.4681 57.516 33.275 57.1298 33.275H56.7512L56.9841 32.1733H58.5402C59.2229 32.1733 59.7322 32.3184 60.0679 32.6087C60.4036 32.8989 60.5064 33.3211 60.3764 33.8751L59.0513 40.1581C58.9869 40.5443 59.1415 40.7374 59.5151 40.7374H59.8937L59.676 41.8373H58.1048ZM59.3807 30.9901C59.18 31.0002 58.9798 30.9626 58.7965 30.8803C58.6132 30.7981 58.4521 30.6735 58.3262 30.5168C58.2008 30.3562 58.1137 30.1689 58.0717 29.9694C58.0297 29.77 58.0339 29.5635 58.0839 29.3659C58.1787 28.907 58.432 28.4961 58.7995 28.2054C59.1467 27.8985 59.5931 27.7271 60.0565 27.7227C60.2581 27.7129 60.459 27.7516 60.6425 27.8356C60.826 27.9196 60.9866 28.0465 61.1109 28.2054C61.2361 28.3681 61.3229 28.557 61.3648 28.7579C61.4068 28.9589 61.4028 29.1667 61.3532 29.3659C61.2472 29.8222 60.988 30.2285 60.6187 30.5168C60.2752 30.8163 59.8364 30.984 59.3807 30.9901Z" fill="#224191"/>
<path d="M64.9476 42.0323C63.8383 42.0323 63.0937 41.6165 62.7138 40.7848C62.334 39.9531 62.3112 38.7447 62.6457 37.1596L63.3423 33.8335H62.0664L62.4147 32.1714H63.6906L64.1734 29.9868C64.2377 29.6007 64.0831 29.4076 63.7096 29.4076H63.3045L63.5562 28.3058H65.1218C65.8045 28.3058 66.3138 28.4509 66.6495 28.7412C66.9852 29.0315 67.088 29.4536 66.958 30.0077L66.4905 32.1676H68.5728L68.2056 33.8297H66.1478L65.3754 37.5231C65.1697 38.361 65.0991 39.0154 65.1634 39.4861C65.2278 39.9569 65.46 40.1922 65.8601 40.1922C66.3497 40.1922 66.7561 39.9089 67.0792 39.3423L67.7758 39.7474C68.2655 40.044 68.2333 40.4503 67.6793 40.9665C67.3167 41.3155 66.8887 41.5893 66.4199 41.7722C65.9511 41.9551 65.4507 42.0435 64.9476 42.0323Z" fill="#224191"/>
<path d="M73.8244 42.0701C72.3428 42.0701 71.2234 41.6089 70.4662 40.6863C69.7089 39.7638 69.4931 38.5459 69.8187 37.0327C70.0996 35.5932 70.88 34.2992 72.0222 33.3792C73.1312 32.4607 74.5294 31.9644 75.9693 31.9783C76.6302 31.9635 77.2865 32.0927 77.8926 32.3569C78.3922 32.5636 78.8197 32.9133 79.1212 33.3621C79.443 33.8669 79.2947 34.2664 78.6763 34.5604L77.849 34.9731C77.5966 34.1477 77.0035 33.7351 76.0696 33.7351C75.2754 33.7412 74.5161 34.0626 73.9588 34.6286C73.302 35.2744 72.8627 36.1087 72.7018 37.0157C72.4949 37.995 72.5788 38.7844 72.9536 39.3839C73.3285 39.9834 73.902 40.2831 74.6744 40.2831C75.6033 40.2831 76.3706 39.8704 76.9764 39.0451L77.6332 39.4521C78.0977 39.7613 78.0781 40.1676 77.5746 40.6712C77.0911 41.1111 76.5266 41.4525 75.9125 41.6764C75.2468 41.9357 74.5388 42.0692 73.8244 42.0701Z" fill="#224191"/>
<path d="M79.6426 41.8373L82.3686 29.0176C82.4455 28.6314 82.2909 28.4383 81.9048 28.4383H81.5262L81.759 27.3365H83.3246C84.0212 27.3365 84.5336 27.4817 84.8617 27.7719C85.1898 28.0622 85.2965 28.4844 85.1816 29.0384L84.2843 33.1368C85.1677 32.3632 86.1345 31.9764 87.1845 31.9764C88.3064 31.9764 89.1633 32.3405 89.7552 33.0687C90.3471 33.7969 90.4733 34.9731 90.1338 36.5973L89.3766 40.1544C89.3545 40.2258 89.3491 40.3014 89.3609 40.3753C89.3727 40.4492 89.4014 40.5193 89.4448 40.5803C89.4914 40.6339 89.55 40.6758 89.6157 40.7027C89.6814 40.7297 89.7525 40.7409 89.8234 40.7355H90.2285L89.9957 41.8373H88.1783C86.8759 41.8373 86.3408 41.2637 86.573 40.1165L87.4041 36.249C87.5972 35.3858 87.565 34.7415 87.3075 34.3162C87.1975 34.117 87.0347 33.9521 86.837 33.8395C86.6392 33.727 86.4143 33.6712 86.1868 33.6783C85.6231 33.6965 85.0838 33.9123 84.6629 34.2878C84.1503 34.721 83.8048 35.3196 83.6861 35.9802L82.7964 40.196C82.6702 40.7753 82.438 41.1943 82.0997 41.453C81.7615 41.7117 81.2567 41.8379 80.5853 41.8316L79.6426 41.8373Z" fill="#224191"/>
<path d="M93.8743 41.8373C93.1903 41.8373 92.681 41.6921 92.3466 41.4019C92.0122 41.1116 91.9093 40.6838 92.038 40.1184L93.3632 33.8543C93.4402 33.4681 93.2856 33.275 92.8994 33.275H92.5208L92.7536 32.1733H94.3192C95.0019 32.1733 95.5111 32.3184 95.8468 32.6087C96.1825 32.8989 96.2854 33.3198 96.1554 33.8713L94.8303 40.1543C94.7659 40.5405 94.9205 40.7336 95.2941 40.7336H95.6727L95.4398 41.8354L93.8743 41.8373ZM95.1502 30.9901C94.9496 31.0002 94.7493 30.9626 94.5661 30.8803C94.3828 30.7981 94.2216 30.6735 94.0958 30.5168C93.9703 30.3562 93.8832 30.1689 93.8412 29.9694C93.7992 29.77 93.8034 29.5635 93.8535 29.3659C93.9482 28.907 94.2015 28.4961 94.569 28.2054C94.9163 27.8985 95.3626 27.7271 95.826 27.7227C96.0276 27.7129 96.2286 27.7516 96.412 27.8356C96.5955 27.9196 96.7562 28.0465 96.8805 28.2054C97.0056 28.3681 97.0924 28.557 97.1344 28.7579C97.1763 28.9589 97.1724 29.1667 97.1228 29.3659C97.0168 29.8222 96.7575 30.2285 96.3883 30.5168C96.0447 30.8163 95.6059 30.984 95.1502 30.9901Z" fill="#224191"/>
<path d="M100.352 42.0322C97.9931 42.0322 97.1356 40.5241 97.7792 37.5078L98.5535 33.8543C98.5748 33.7843 98.5798 33.7103 98.568 33.6381C98.5561 33.5659 98.5279 33.4973 98.4853 33.4378C98.4373 33.3808 98.3763 33.3361 98.3075 33.3074C98.2387 33.2788 98.164 33.267 98.0897 33.2731H97.7111L97.9345 32.1676H99.7329C101.048 32.1676 101.583 32.7355 101.338 33.8713L100.488 37.8732C100.152 39.4583 100.359 40.2509 101.107 40.2509C101.881 40.2509 102.701 39.8382 103.568 39.0128C104.381 38.2677 104.992 37.3303 105.348 36.2868C105.506 35.7866 105.584 35.2647 105.58 34.7402C105.572 34.2779 105.624 33.8165 105.736 33.3678C105.949 32.5676 106.507 32.1676 107.409 32.1676H108.395L108.047 33.6574C107.823 34.6908 107.476 35.6937 107.014 36.6446C106.555 37.5981 105.991 38.4966 105.331 39.3233C104.702 40.1169 103.928 40.7832 103.049 41.2864C102.232 41.7689 101.301 42.0262 100.352 42.0322Z" fill="#224191"/>
<path d="M112.088 42.07C110.605 42.07 109.487 41.6031 108.733 40.6691C107.98 39.7352 107.764 38.5142 108.086 37.0061C108.385 35.5883 109.16 34.3152 110.282 33.3975C111.403 32.4797 112.804 31.9723 114.253 31.9592C115.036 31.9484 115.808 32.1381 116.497 32.5101C117.094 32.8466 117.561 33.3748 117.822 34.0094C118.092 34.6404 117.999 35.2714 117.542 35.9025C117.085 36.5335 116.246 36.9922 115.026 37.2787L110.831 38.3218C110.846 38.8726 111.075 39.396 111.469 39.7813C111.874 40.1348 112.4 40.3186 112.938 40.2943C113.646 40.3056 114.343 40.1201 114.952 39.7586C115.491 39.4464 115.961 39.0285 116.334 38.53L116.972 38.9351C117.449 39.2317 117.429 39.6381 116.913 40.1542C116.318 40.7147 115.631 41.1692 114.882 41.4983C114.003 41.8894 113.05 42.0845 112.088 42.07ZM111.024 36.7335L113.712 36.0558C114.21 35.9498 114.68 35.7423 115.094 35.4462C115.238 35.3504 115.349 35.213 115.413 35.0524C115.477 34.8918 115.49 34.7155 115.452 34.547C115.425 34.4183 115.371 34.297 115.292 34.1916C115.214 34.0863 115.113 33.9995 114.997 33.9375C114.736 33.7873 114.439 33.7107 114.138 33.716C113.532 33.716 112.923 33.993 112.311 34.547C111.678 35.1348 111.231 35.8948 111.024 36.7335Z" fill="#224191"/>
</g>
<defs>
<linearGradient id="paint0_linear_7795_964" x1="-128.658" y1="65.0241" x2="841.879" y2="163.363" gradientUnits="userSpaceOnUse">
<stop stop-color="#214293"/>
<stop offset="1" stop-color="#EC2127"/>
</linearGradient>
<clipPath id="clip0_7795_964">
<rect width="322" height="206" rx="13" fill="white"/>
</clipPath>
</defs>
</svg>
