<svg width="933" height="622" viewBox="0 0 933 622" fill="none" xmlns="http://www.w3.org/2000/svg">
<line x1="281.815" y1="200.392" x2="339.045" y2="253.592" stroke="#AFAFAF" stroke-width="8"/>
<line x1="568.375" y1="165.326" x2="563.538" y2="192.732" stroke="#AFAFAF" stroke-width="8"/>
<line x1="267.117" y1="339.059" x2="325.153" y2="315.683" stroke="#AFAFAF" stroke-width="8"/>
<line x1="391.056" y1="350.215" x2="406.371" y2="448.554" stroke="#AFAFAF" stroke-width="8"/>
<line x1="448.949" y1="460.03" x2="503.762" y2="367.334" stroke="#AFAFAF" stroke-width="8"/>
<line x1="603.086" y1="361.303" x2="628.88" y2="395.157" stroke="#AFAFAF" stroke-width="8"/>
<line x1="479.275" y1="501.538" x2="595.347" y2="476.55" stroke="#AFAFAF" stroke-width="5"/>
<line x1="700.726" y1="312.422" x2="693.472" y2="376.101" stroke="#AFAFAF" stroke-width="5"/>
<line x1="734.097" y1="299.947" x2="836.466" y2="434.559" stroke="#AFAFAF" stroke-width="3"/>
<line x1="757.82" y1="455.732" x2="826.335" y2="452.508" stroke="#AFAFAF" stroke-width="3"/>
<line x1="616.374" y1="150.777" x2="682.471" y2="230.577" stroke="#AFAFAF" stroke-width="3"/>
<line x1="735.965" y1="159.369" x2="719.037" y2="223.853" stroke="#AFAFAF" stroke-width="3"/>
<line x1="637.188" y1="113.975" x2="712.958" y2="124.454" stroke="#AFAFAF" stroke-width="3"/>
<line x1="435.948" y1="138.984" x2="523.003" y2="119.639" stroke="#AFAFAF" stroke-width="3"/>
<line x1="299.262" y1="146.203" x2="361.328" y2="147.009" stroke="#AFAFAF" stroke-width="3"/>
<line x1="229.808" y1="229.864" x2="233.032" y2="314.5" stroke="#AFAFAF" stroke-width="3"/>
<line x1="122.536" y1="236.852" x2="166.869" y2="198.161" stroke="#AFAFAF" stroke-width="3"/>
<line x1="124.428" y1="270.641" x2="204.228" y2="331.095" stroke="#AFAFAF" stroke-width="3"/>
<line x1="240.563" y1="387.66" x2="263.132" y2="475.521" stroke="#AFAFAF" stroke-width="2"/>
<line x1="297.686" y1="506.207" x2="354.11" y2="509.432" stroke="#AFAFAF" stroke-width="2"/>
<line x1="747.395" y1="266.5" x2="927.952" y2="260.052" stroke="#69666F"/>
<line x1="775.612" y1="128.664" x2="926.345" y2="125.404" stroke="#AFAFAF"/>
<line x1="746.92" y1="95.2248" x2="763.041" y2="0.915805" stroke="#69666F"/>
<line x1="614.848" y1="60.3128" x2="668.854" y2="0.664398" stroke="#69666F"/>
<line x1="551.104" y1="60.8952" x2="517.25" y2="1.2468" stroke="#69666F"/>
<line x1="397.889" y1="101.734" x2="402.726" y2="0.976082" stroke="#69666F"/>
<line x1="380.261" y1="121.412" x2="288.37" y2="4.53333" stroke="#69666F"/>
<line x1="204.448" y1="68.825" x2="188.326" y2="1.11599" stroke="#69666F"/>
<line x1="156.45" y1="140.934" x2="0.880531" y2="102.243" stroke="#69666F"/>
<line x1="79.5019" y1="272.226" x2="4.53828" y2="332.68" stroke="#69666F"/>
<line x1="78.9644" y1="244.878" x2="9.64321" y2="210.217" stroke="#69666F"/>
<line x1="246.372" y1="522.093" x2="134.33" y2="618.82" stroke="#69666F"/>
<line x1="269.919" y1="533.033" x2="264.276" y2="618.475" stroke="#69666F"/>
<line x1="403.706" y1="578.275" x2="393.227" y2="615.354" stroke="#69666F"/>
<line x1="452.809" y1="564.965" x2="488.275" y2="618.165" stroke="#69666F"/>
<line x1="657.616" y1="541.196" x2="635.852" y2="618.577" stroke="#69666F"/>
<line x1="710.78" y1="533.584" x2="754.308" y2="621.444" stroke="#69666F"/>
<line x1="873.69" y1="435.048" x2="931.726" y2="397.163" stroke="#69666F"/>
<line x1="877.366" y1="459.987" x2="932.178" y2="480.945" stroke="#69666F"/>
<line x1="857.516" y1="478.858" x2="895.401" y2="612.664" stroke="#69666F"/>
<path d="M78.0898 240.95L102.965 226.588L127.841 240.95V269.674L102.965 284.036L78.0898 269.674V240.95Z" stroke="#BA9F33" stroke-width="4"/>
<path d="M155.164 106.125L226.055 65.1962L296.946 106.125V187.984L226.055 228.913L155.164 187.984V106.125Z" stroke="#FF5A5E" stroke-width="9"/>
<path d="M200.852 333.526L233.953 314.227L267.055 333.526V372.165L233.953 391.463L200.852 372.165V333.526Z" stroke="#FF060A" stroke-width="5"/>
<path d="M526.017 77.5398L579.306 46.7735L632.595 77.5398V139.072L579.306 169.839L526.017 139.072V77.5398Z" stroke="#006C92" stroke-width="10"/>
<path d="M460.363 238.067L547.206 187.928L634.049 238.067V338.345L547.206 388.484L460.363 338.345V238.067Z" stroke="white" stroke-width="12"/>
<path d="M357.827 479.562L416.351 445.774L474.876 479.562V547.14L416.351 580.929L357.827 547.14V479.562Z" stroke="black" stroke-width="10"/>
<path d="M598.743 415.444L676.115 370.774L753.487 415.444V504.786L676.115 549.457L598.743 504.786V415.444Z" stroke="#017DC7" stroke-width="10"/>
<path d="M825.266 439.074L850.84 424.309L876.413 439.074V468.604L850.84 483.369L825.266 468.604V439.074Z" stroke="#010101" stroke-width="4"/>
<path d="M713.825 110.657L743.785 93.3595L773.745 110.657V145.252L743.785 162.55L713.825 145.252V110.657Z" stroke="#F7931A" stroke-width="5"/>
<path d="M664.379 242.159L706.706 217.722L749.034 242.159V291.035L706.706 315.472L664.379 291.035V242.159Z" stroke="#393939" stroke-width="4"/>
<path d="M243.297 488.095L269.418 473.014L295.539 488.095V518.256L269.418 533.337L243.297 518.256V488.095Z" stroke="#50AF95" stroke-width="5"/>
<line x1="395.104" y1="186.051" x2="389.461" y2="234.415" stroke="#AFAFAF" stroke-width="8"/>
<path d="M361.994 125.079L398.388 104.067L434.782 125.079V167.103L398.388 188.115L361.994 167.103V125.079Z" stroke="#345D9D" stroke-width="4"/>
<path d="M327.466 262.256L381.057 231.316L434.647 262.256V324.137L381.057 355.078L327.466 324.137V262.256Z" stroke="#FBC977" stroke-width="8"/>
</svg>
