<svg width="124" height="127" viewBox="0 0 124 127" fill="none" xmlns="http://www.w3.org/2000/svg">
<path opacity="0.2" d="M72.087 81.9632L35.0293 16.7656L92.2552 49.5969L72.087 81.9632Z" stroke="#EB5757" stroke-miterlimit="10"/>
<path opacity="0.2" d="M72.0063 83.016L33.7482 81.7856L34.9507 17.8407" stroke="#EB5757" stroke-miterlimit="10"/>
<path opacity="0.2" d="M33.7082 82.0333L54.7888 52.6012L92.2746 49.582" stroke="#EB5757" stroke-miterlimit="10"/>
<path opacity="0.2" d="M37.471 85.2102L75.1849 86.5281L94.3631 53.2587L88.2028 110.283L37.471 85.2102Z" stroke="#EB5757" stroke-miterlimit="10"/>
<path opacity="0.2" d="M75.1914 86.6479L88.3445 109.457" stroke="#EB5757" stroke-miterlimit="10"/>
<path opacity="0.2" d="M35.2888 81.1801C35.1041 80.8516 34.8291 80.5824 34.4986 80.4066C34.168 80.2307 33.7969 80.1561 33.4321 80.1923C33.0674 80.2284 32.7255 80.3736 32.4498 80.6096C32.1741 80.8455 31.977 81.1614 31.8834 81.5174C31.7899 81.8734 31.8041 82.2534 31.9243 82.6092C32.0445 82.965 32.2653 83.2807 32.5586 83.5161C32.852 83.7516 33.2047 83.8962 33.5721 83.9318C33.9395 83.9673 34.3051 83.8921 34.6224 83.7158C34.8332 83.6002 35.0176 83.4428 35.1653 83.2526C35.3129 83.0624 35.4208 82.8432 35.4827 82.6076C35.5447 82.3719 35.5594 82.1245 35.5261 81.8795C35.4928 81.6345 35.4122 81.3968 35.2888 81.1801V81.1801Z" stroke="#EB5757" stroke-miterlimit="10"/>
<path opacity="0.2" d="M73.2244 80.4859C73.0394 80.161 72.7653 79.8951 72.4366 79.722C72.108 79.5488 71.7395 79.476 71.3777 79.5129C71.016 79.5497 70.6771 79.6945 70.4038 79.929C70.1305 80.1635 69.9352 80.4771 69.8423 80.8304C69.7495 81.1836 69.7633 81.5607 69.8822 81.9139C70.001 82.2671 70.2194 82.5807 70.5099 82.8151C70.8004 83.0495 71.15 83.1943 71.5145 83.231C71.879 83.2678 72.2421 83.1949 72.558 83.0217C72.7687 82.9061 72.9532 82.7487 73.1008 82.5585C73.2485 82.3683 73.3564 82.1491 73.4183 81.9135C73.4802 81.6778 73.495 81.4304 73.4617 81.1854C73.4284 80.9404 73.3478 80.7027 73.2244 80.4859V80.4859Z" stroke="#EB5757" stroke-miterlimit="10"/>
<path opacity="0.2" d="M93.8739 47.9154C93.6907 47.5857 93.4166 47.3148 93.0865 47.1372C92.7563 46.9596 92.385 46.8833 92.0196 46.918C91.6543 46.9527 91.3114 47.0968 91.0346 47.332C90.7577 47.5672 90.5594 47.8829 90.4648 48.239C90.3702 48.5951 90.3835 48.9756 90.5032 49.332C90.6228 49.6885 90.8433 50.0048 91.1367 50.2409C91.4301 50.477 91.7831 50.6222 92.1509 50.6581C92.5187 50.6939 92.8847 50.6188 93.2025 50.4422C93.6266 50.2096 93.9356 49.8127 94.0615 49.3389C94.1874 48.865 94.1199 48.353 93.8739 47.9154V47.9154Z" stroke="#EB5757" stroke-miterlimit="10"/>
<path opacity="0.2" d="M36.7469 17.45C36.564 17.1206 36.2903 16.85 35.9607 16.6724C35.631 16.4948 35.2602 16.4182 34.8952 16.4523C34.5302 16.4864 34.1875 16.6298 33.9105 16.8641C33.6334 17.0985 33.4346 17.4133 33.3391 17.7687C33.2437 18.1241 33.2558 18.5041 33.3742 18.8605C33.4925 19.2169 33.7116 19.5337 34.0038 19.7707C34.2959 20.0077 34.648 20.1542 35.0153 20.1918C35.3825 20.2293 35.7486 20.1561 36.0669 19.9815C36.4918 19.7485 36.8018 19.3514 36.9293 18.877C37.0567 18.4027 36.9912 17.8896 36.7469 17.45V17.45Z" stroke="#EB5757" stroke-miterlimit="10"/>
<path opacity="0.2" d="M75.7361 85.0633C75.5516 84.7352 75.277 84.4662 74.947 84.2904C74.6169 84.1145 74.2463 84.0396 73.8819 84.0752C73.5175 84.1108 73.1758 84.2553 72.8999 84.4903C72.624 84.7254 72.4264 85.0404 72.332 85.3957C72.2376 85.751 72.2506 86.1306 72.3695 86.4863C72.4884 86.8421 72.7078 87.1581 72.9999 87.3945C73.292 87.6308 73.6438 87.7768 74.0107 87.8141C74.3775 87.8513 74.7431 87.7781 75.0611 87.6037C75.2732 87.4889 75.4591 87.3319 75.608 87.1417C75.757 86.9515 75.866 86.7319 75.9288 86.4956C75.9915 86.2593 76.0068 86.0111 75.9738 85.7652C75.9407 85.5194 75.8599 85.2808 75.7361 85.0633V85.0633Z" stroke="#EB5757" stroke-miterlimit="10"/>
<path opacity="0.2" d="M56.7283 52.1011C56.5438 51.7731 56.2692 51.5041 55.9392 51.3282C55.6091 51.1523 55.2385 51.0775 54.8741 51.1131C54.5097 51.1486 54.168 51.2931 53.8921 51.5282C53.6162 51.7632 53.4186 52.0783 53.3242 52.4336C53.2298 52.7889 53.2428 53.1684 53.3617 53.5242C53.4806 53.8799 53.7 54.196 53.9921 54.4323C54.2842 54.6687 54.636 54.8147 55.0028 54.8519C55.3697 54.8892 55.7353 54.816 56.0533 54.6416C56.2654 54.5268 56.4513 54.3697 56.6002 54.1795C56.7491 53.9893 56.8582 53.7697 56.921 53.5334C56.9837 53.2972 56.999 53.0489 56.9659 52.8031C56.9329 52.5572 56.8521 52.3186 56.7283 52.1011V52.1011Z" stroke="#EB5757" stroke-miterlimit="10"/>
<path opacity="0.2" d="M95.9224 52.206C95.7365 51.8793 95.4609 51.612 95.1305 51.4378C94.8001 51.2637 94.4296 51.1905 94.0659 51.2276C93.7021 51.2646 93.3614 51.4102 93.0866 51.6459C92.8119 51.8817 92.6154 52.197 92.5221 52.5522C92.4287 52.9074 92.4427 53.2864 92.5621 53.6416C92.6816 53.9967 92.9012 54.312 93.1933 54.5477C93.4854 54.7834 93.8368 54.9289 94.2033 54.9658C94.5697 55.0028 94.9348 54.9295 95.2524 54.7553C95.4643 54.6391 95.6498 54.4809 95.7982 54.2897C95.9467 54.0985 96.0551 53.8781 96.1174 53.6412C96.1796 53.4043 96.1945 53.1555 96.161 52.9092C96.1276 52.6629 96.0465 52.4239 95.9224 52.206Z" stroke="#EB5757" stroke-miterlimit="10"/>
<path opacity="0.2" d="M89.7723 108.703C89.5891 108.373 89.3151 108.102 88.9849 107.925C88.6548 107.747 88.2834 107.671 87.9181 107.706C87.5527 107.74 87.2099 107.884 86.933 108.12C86.6562 108.355 86.4578 108.67 86.3632 109.027C86.2686 109.383 86.282 109.763 86.4016 110.12C86.5212 110.476 86.7417 110.792 87.0351 111.029C87.3285 111.265 87.6815 111.41 88.0494 111.446C88.4172 111.482 88.7832 111.406 89.1009 111.23C89.525 110.997 89.834 110.6 89.9599 110.126C90.0859 109.653 90.0184 109.141 89.7723 108.703V108.703Z" stroke="#EB5757" stroke-miterlimit="10"/>
<path opacity="0.2" d="M38.6404 85.4914C38.4554 85.1665 38.1813 84.9006 37.8527 84.7275C37.524 84.5543 37.1556 84.4815 36.7938 84.5184C36.432 84.5552 36.0931 84.7 35.8198 84.9345C35.5465 85.169 35.3512 85.4826 35.2583 85.8359C35.1655 86.1891 35.1794 86.5661 35.2982 86.9194C35.417 87.2726 35.6354 87.5862 35.9259 87.8206C36.2164 88.055 36.566 88.1997 36.9305 88.2365C37.295 88.2733 37.6581 88.2004 37.974 88.0271C38.1847 87.9116 38.3692 87.7542 38.5168 87.564C38.6645 87.3738 38.7724 87.1546 38.8343 86.919C38.8962 86.6833 38.911 86.4359 38.8777 86.1909C38.8444 85.9459 38.7638 85.7082 38.6404 85.4914V85.4914Z" stroke="#EB5757" stroke-miterlimit="10"/>
</svg>
