<svg width="322" height="206" viewBox="0 0 322 206" fill="none" xmlns="http://www.w3.org/2000/svg">
<g clip-path="url(#clip0_7795_1000)">
<rect width="322" height="206" rx="13" fill="#D9D9D9"/>
<path d="M539 185C539 237.467 342.83 304 239 304C135.17 304 -21 313.967 -21 261.5C-21 209.033 174 88.5 379 88.5C467 147 539 132.533 539 185Z" fill="url(#paint0_linear_7795_1000)"/>
<path d="M24.27 71.45V76.7H31.32V80.03H24.27V85.58H32.22V89H20.07V68.03H32.22V71.45H24.27ZM40.1768 68.06V81.02C40.1768 82.44 40.5468 83.53 41.2868 84.29C42.0268 85.03 43.0668 85.4 44.4068 85.4C45.7668 85.4 46.8168 85.03 47.5568 84.29C48.2968 83.53 48.6668 82.44 48.6668 81.02V68.06H52.8968V80.99C52.8968 82.77 52.5068 84.28 51.7268 85.52C50.9668 86.74 49.9368 87.66 48.6368 88.28C47.3568 88.9 45.9268 89.21 44.3468 89.21C42.7868 89.21 41.3668 88.9 40.0868 88.28C38.8268 87.66 37.8268 86.74 37.0868 85.52C36.3468 84.28 35.9768 82.77 35.9768 80.99V68.06H40.1768ZM67.7548 89L63.1348 80.84H61.1548V89H56.9548V68.06H64.8148C66.4348 68.06 67.8148 68.35 68.9548 68.93C70.0948 69.49 70.9448 70.26 71.5048 71.24C72.0848 72.2 72.3748 73.28 72.3748 74.48C72.3748 75.86 71.9748 77.11 71.1748 78.23C70.3748 79.33 69.1848 80.09 67.6048 80.51L72.6148 89H67.7548ZM61.1548 77.69H64.6648C65.8048 77.69 66.6548 77.42 67.2148 76.88C67.7748 76.32 68.0548 75.55 68.0548 74.57C68.0548 73.61 67.7748 72.87 67.2148 72.35C66.6548 71.81 65.8048 71.54 64.6648 71.54H61.1548V77.69ZM97.902 74.36C97.422 73.48 96.762 72.81 95.922 72.35C95.082 71.89 94.102 71.66 92.982 71.66C91.742 71.66 90.642 71.94 89.682 72.5C88.722 73.06 87.972 73.86 87.432 74.9C86.892 75.94 86.622 77.14 86.622 78.5C86.622 79.9 86.892 81.12 87.432 82.16C87.992 83.2 88.762 84 89.742 84.56C90.722 85.12 91.862 85.4 93.162 85.4C94.762 85.4 96.072 84.98 97.092 84.14C98.112 83.28 98.782 82.09 99.102 80.57H91.902V77.36H103.242V81.02C102.962 82.48 102.362 83.83 101.442 85.07C100.522 86.31 99.332 87.31 97.872 88.07C96.432 88.81 94.812 89.18 93.012 89.18C90.992 89.18 89.162 88.73 87.522 87.83C85.902 86.91 84.622 85.64 83.682 84.02C82.762 82.4 82.302 80.56 82.302 78.5C82.302 76.44 82.762 74.6 83.682 72.98C84.622 71.34 85.902 70.07 87.522 69.17C89.162 68.25 90.982 67.79 92.982 67.79C95.342 67.79 97.392 68.37 99.132 69.53C100.872 70.67 102.072 72.28 102.732 74.36H97.902ZM110.549 68.06V89H106.349V68.06H110.549ZM127.629 68.06V71.45H118.899V76.82H125.589V80.15H118.899V89H114.699V68.06H127.629ZM144.857 68.06V71.45H139.277V89H135.077V71.45H129.497V68.06H144.857ZM154.05 78.5C154.05 76.44 154.51 74.6 155.43 72.98C156.37 71.34 157.64 70.07 159.24 69.17C160.86 68.25 162.67 67.79 164.67 67.79C167.01 67.79 169.06 68.39 170.82 69.59C172.58 70.79 173.81 72.45 174.51 74.57H169.68C169.2 73.57 168.52 72.82 167.64 72.32C166.78 71.82 165.78 71.57 164.64 71.57C163.42 71.57 162.33 71.86 161.37 72.44C160.43 73 159.69 73.8 159.15 74.84C158.63 75.88 158.37 77.1 158.37 78.5C158.37 79.88 158.63 81.1 159.15 82.16C159.69 83.2 160.43 84.01 161.37 84.59C162.33 85.15 163.42 85.43 164.64 85.43C165.78 85.43 166.78 85.18 167.64 84.68C168.52 84.16 169.2 83.4 169.68 82.4H174.51C173.81 84.54 172.58 86.21 170.82 87.41C169.08 88.59 167.03 89.18 164.67 89.18C162.67 89.18 160.86 88.73 159.24 87.83C157.64 86.91 156.37 85.64 155.43 84.02C154.51 82.4 154.05 80.56 154.05 78.5ZM190.937 85.01H182.597L181.217 89H176.807L184.337 68.03H189.227L196.757 89H192.317L190.937 85.01ZM189.797 81.65L186.767 72.89L183.737 81.65H189.797ZM210.372 89L205.752 80.84H203.772V89H199.572V68.06H207.432C209.052 68.06 210.432 68.35 211.572 68.93C212.712 69.49 213.562 70.26 214.122 71.24C214.702 72.2 214.992 73.28 214.992 74.48C214.992 75.86 214.592 77.11 213.792 78.23C212.992 79.33 211.802 80.09 210.222 80.51L215.232 89H210.372ZM203.772 77.69H207.282C208.422 77.69 209.272 77.42 209.832 76.88C210.392 76.32 210.672 75.55 210.672 74.57C210.672 73.61 210.392 72.87 209.832 72.35C209.272 71.81 208.422 71.54 207.282 71.54H203.772V77.69ZM226.111 68.06C228.311 68.06 230.241 68.49 231.901 69.35C233.581 70.21 234.871 71.44 235.771 73.04C236.691 74.62 237.151 76.46 237.151 78.56C237.151 80.66 236.691 82.5 235.771 84.08C234.871 85.64 233.581 86.85 231.901 87.71C230.241 88.57 228.311 89 226.111 89H218.791V68.06H226.111ZM225.961 85.43C228.161 85.43 229.861 84.83 231.061 83.63C232.261 82.43 232.861 80.74 232.861 78.56C232.861 76.38 232.261 74.68 231.061 73.46C229.861 72.22 228.161 71.6 225.961 71.6H222.991V85.43H225.961Z" fill="black"/>
<path d="M266.926 172.81V175.26H270.216V176.814H266.926V179.404H270.636V181H264.966V171.214H270.636V172.81H266.926ZM274.349 171.228V177.276C274.349 177.939 274.522 178.447 274.867 178.802C275.213 179.147 275.698 179.32 276.323 179.32C276.958 179.32 277.448 179.147 277.793 178.802C278.139 178.447 278.311 177.939 278.311 177.276V171.228H280.285V177.262C280.285 178.093 280.103 178.797 279.739 179.376C279.385 179.945 278.904 180.375 278.297 180.664C277.7 180.953 277.033 181.098 276.295 181.098C275.567 181.098 274.905 180.953 274.307 180.664C273.719 180.375 273.253 179.945 272.907 179.376C272.562 178.797 272.389 178.093 272.389 177.262V171.228H274.349ZM287.219 181L285.063 177.192H284.139V181H282.179V171.228H285.847C286.603 171.228 287.247 171.363 287.779 171.634C288.311 171.895 288.708 172.255 288.969 172.712C289.24 173.16 289.375 173.664 289.375 174.224C289.375 174.868 289.188 175.451 288.815 175.974C288.442 176.487 287.886 176.842 287.149 177.038L289.487 181H287.219ZM284.139 175.722H285.777C286.309 175.722 286.706 175.596 286.967 175.344C287.228 175.083 287.359 174.723 287.359 174.266C287.359 173.818 287.228 173.473 286.967 173.23C286.706 172.978 286.309 172.852 285.777 172.852H284.139V175.722ZM295.684 181.098C294.769 181.098 293.929 180.883 293.164 180.454C292.398 180.025 291.792 179.432 291.344 178.676C290.896 177.911 290.672 177.047 290.672 176.086C290.672 175.134 290.896 174.28 291.344 173.524C291.792 172.759 292.398 172.161 293.164 171.732C293.929 171.303 294.769 171.088 295.684 171.088C296.608 171.088 297.448 171.303 298.204 171.732C298.969 172.161 299.571 172.759 300.01 173.524C300.458 174.28 300.682 175.134 300.682 176.086C300.682 177.047 300.458 177.911 300.01 178.676C299.571 179.432 298.969 180.025 298.204 180.454C297.438 180.883 296.598 181.098 295.684 181.098ZM295.684 179.348C296.272 179.348 296.79 179.217 297.238 178.956C297.686 178.685 298.036 178.303 298.288 177.808C298.54 177.313 298.666 176.739 298.666 176.086C298.666 175.433 298.54 174.863 298.288 174.378C298.036 173.883 297.686 173.505 297.238 173.244C296.79 172.983 296.272 172.852 295.684 172.852C295.096 172.852 294.573 172.983 294.116 173.244C293.668 173.505 293.318 173.883 293.066 174.378C292.814 174.863 292.688 175.433 292.688 176.086C292.688 176.739 292.814 177.313 293.066 177.808C293.318 178.303 293.668 178.685 294.116 178.956C294.573 179.217 295.096 179.348 295.684 179.348Z" fill="white"/>
<path d="M34.4384 15.4274C34.4384 15.4274 46.5539 22.0985 33.5449 24.6333V23.6262C33.5449 23.6262 44.1289 20.9929 34.4138 16.2433L34.4384 15.4274Z" fill="#224191"/>
<path d="M37.0481 19.327C37.0481 19.327 33.8678 15.0544 25.7183 15.9971C17.5687 16.9399 16.4764 21.1652 16.4764 21.1652C16.4764 21.1652 13.7429 29.3639 32.2266 30.6077L32.2398 30.0928C32.2398 30.0928 23.3709 30.4089 18.9355 25.3791C16.8115 22.6209 21.1352 19.6772 22.5512 19.1926C23.9672 18.708 28.7755 16.6029 36.1546 19.5712L37.0481 19.327Z" fill="#224191"/>
<path d="M19.1973 27.7625C19.1973 27.7625 27.0099 22.0833 35.1481 25.5628C41.1112 28.1165 36.1116 33.8922 33.3591 36.338C32.4021 37.1906 31.3389 37.916 30.1959 38.496C27.9242 39.6319 23.9015 41.2088 20.5413 40.0218L20.6152 39.276C20.6152 39.276 28.2176 40.0465 33.5466 32.6352C38.8755 25.2239 29.0752 25.2618 29.0752 25.2618C29.0752 25.2618 24.4164 25.1501 19.7993 28.1316L19.1973 27.7625Z" fill="#EC2326"/>
<path d="M24.276 42.0606C24.276 42.0606 11.4885 42.6664 20.1321 34C20.2681 33.8591 20.4373 33.7546 20.6242 33.6961C20.811 33.6375 21.0096 33.6268 21.2017 33.665C21.4762 33.7256 21.692 33.8865 21.5519 34.2783C21.5027 34.4081 21.4258 34.5257 21.3266 34.6229C20.3801 35.5864 14.2315 42.178 24.276 41.487V42.0606Z" fill="#EC2326"/>
<path d="M41.6316 42.0323C41.1884 42.0398 40.7472 41.9713 40.3273 41.8297C39.9215 41.6777 39.5571 41.4326 39.2634 41.1141C38.914 40.7238 38.7094 40.2252 38.6841 39.7019C38.6357 38.9353 38.6846 38.1656 38.8299 37.4113L39.5871 33.8543C39.6084 33.7843 39.6134 33.7103 39.6016 33.6381C39.5897 33.5659 39.5615 33.4974 39.5189 33.4378C39.4709 33.3808 39.4099 33.3361 39.3411 33.3075C39.2723 33.2788 39.1976 33.2671 39.1233 33.2731H38.7447L38.9775 32.1714H40.7759C42.0909 32.1714 42.626 32.7393 42.3812 33.8751L41.5502 37.8202C41.3697 38.6708 41.3893 39.3019 41.6088 39.7133C41.7018 39.9035 41.8482 40.0624 42.0301 40.1707C42.212 40.2789 42.4215 40.3318 42.633 40.3228C43.1227 40.3228 43.6029 40.1039 44.0736 39.666C44.5443 39.228 44.8826 38.5383 45.0883 37.5969L45.9004 33.8259C46.0266 33.2328 46.2556 32.8106 46.5876 32.5595C46.9195 32.3083 47.4243 32.1821 48.102 32.1809H49.0485L47.8502 37.8278C47.6698 38.6784 47.6925 39.3094 47.9184 39.7209C48.0112 39.9091 48.1563 40.0666 48.3362 40.1747C48.5161 40.2828 48.7233 40.3368 48.933 40.3304C49.4227 40.3304 49.9124 40.0723 50.4021 39.5562C50.8917 39.04 51.2394 38.3055 51.4451 37.3527L52.1796 33.8335C52.3058 33.2529 52.538 32.834 52.8763 32.5765C53.2145 32.319 53.7237 32.1928 54.4039 32.1979H55.3221L54.2582 37.0895C53.949 38.458 53.1906 39.6835 52.1039 40.5708C50.9681 41.5439 49.5596 42.0304 47.8786 42.0304C46.6544 42.0304 45.8423 41.5148 45.4423 40.4838C44.3064 41.5161 43.0362 42.0323 41.6316 42.0323Z" fill="#224191"/>
<path d="M58.1048 41.8373C57.4207 41.8373 56.9115 41.6921 56.5771 41.4019C56.2426 41.1116 56.1398 40.6838 56.2685 40.1184L57.5936 33.8543C57.6706 33.4681 57.516 33.275 57.1298 33.275H56.7512L56.9841 32.1733H58.5402C59.2229 32.1733 59.7322 32.3184 60.0679 32.6087C60.4036 32.8989 60.5064 33.3211 60.3764 33.8751L59.0513 40.1581C58.9869 40.5443 59.1415 40.7374 59.5151 40.7374H59.8937L59.676 41.8373H58.1048ZM59.3807 30.9901C59.18 31.0002 58.9798 30.9626 58.7965 30.8803C58.6132 30.7981 58.4521 30.6735 58.3262 30.5168C58.2008 30.3562 58.1137 30.1689 58.0717 29.9694C58.0297 29.77 58.0339 29.5635 58.0839 29.3659C58.1787 28.907 58.432 28.4961 58.7995 28.2054C59.1467 27.8985 59.5931 27.7271 60.0565 27.7227C60.2581 27.7129 60.459 27.7516 60.6425 27.8356C60.826 27.9196 60.9866 28.0465 61.1109 28.2054C61.2361 28.3681 61.3229 28.557 61.3648 28.7579C61.4068 28.9589 61.4028 29.1667 61.3532 29.3659C61.2472 29.8222 60.988 30.2285 60.6187 30.5168C60.2752 30.8163 59.8364 30.984 59.3807 30.9901Z" fill="#224191"/>
<path d="M64.9476 42.0323C63.8383 42.0323 63.0937 41.6165 62.7138 40.7848C62.334 39.9531 62.3112 38.7447 62.6457 37.1596L63.3423 33.8335H62.0664L62.4147 32.1714H63.6906L64.1734 29.9868C64.2377 29.6007 64.0831 29.4076 63.7096 29.4076H63.3045L63.5562 28.3058H65.1218C65.8045 28.3058 66.3138 28.4509 66.6495 28.7412C66.9852 29.0315 67.088 29.4536 66.958 30.0077L66.4905 32.1676H68.5728L68.2056 33.8297H66.1478L65.3754 37.5231C65.1697 38.361 65.0991 39.0154 65.1634 39.4861C65.2278 39.9569 65.46 40.1922 65.8601 40.1922C66.3497 40.1922 66.7561 39.9089 67.0792 39.3423L67.7758 39.7474C68.2655 40.044 68.2333 40.4503 67.6793 40.9665C67.3167 41.3155 66.8887 41.5893 66.4199 41.7722C65.9511 41.9551 65.4507 42.0435 64.9476 42.0323Z" fill="#224191"/>
<path d="M73.8244 42.0701C72.3428 42.0701 71.2234 41.6089 70.4662 40.6863C69.7089 39.7638 69.4931 38.5459 69.8187 37.0327C70.0996 35.5932 70.88 34.2992 72.0222 33.3792C73.1312 32.4607 74.5294 31.9644 75.9693 31.9783C76.6302 31.9635 77.2865 32.0927 77.8926 32.3569C78.3922 32.5636 78.8197 32.9133 79.1212 33.3621C79.443 33.8669 79.2947 34.2664 78.6763 34.5604L77.849 34.9731C77.5966 34.1477 77.0035 33.7351 76.0696 33.7351C75.2754 33.7412 74.5161 34.0626 73.9588 34.6286C73.302 35.2744 72.8627 36.1087 72.7018 37.0157C72.4949 37.995 72.5788 38.7844 72.9536 39.3839C73.3285 39.9834 73.902 40.2831 74.6744 40.2831C75.6033 40.2831 76.3706 39.8704 76.9764 39.0451L77.6332 39.4521C78.0977 39.7613 78.0781 40.1676 77.5746 40.6712C77.0911 41.1111 76.5266 41.4525 75.9125 41.6764C75.2468 41.9357 74.5388 42.0692 73.8244 42.0701Z" fill="#224191"/>
<path d="M79.6426 41.8373L82.3686 29.0176C82.4455 28.6314 82.2909 28.4383 81.9048 28.4383H81.5262L81.759 27.3365H83.3246C84.0212 27.3365 84.5336 27.4817 84.8617 27.7719C85.1898 28.0622 85.2965 28.4844 85.1816 29.0384L84.2843 33.1368C85.1677 32.3632 86.1345 31.9764 87.1845 31.9764C88.3064 31.9764 89.1633 32.3405 89.7552 33.0687C90.3471 33.7969 90.4733 34.9731 90.1338 36.5973L89.3766 40.1544C89.3545 40.2258 89.3491 40.3014 89.3609 40.3753C89.3727 40.4492 89.4014 40.5193 89.4448 40.5803C89.4914 40.6339 89.55 40.6758 89.6157 40.7027C89.6814 40.7297 89.7525 40.7409 89.8234 40.7355H90.2285L89.9957 41.8373H88.1783C86.8759 41.8373 86.3408 41.2637 86.573 40.1165L87.4041 36.249C87.5972 35.3858 87.565 34.7415 87.3075 34.3162C87.1975 34.117 87.0347 33.9521 86.837 33.8395C86.6392 33.727 86.4143 33.6712 86.1868 33.6783C85.6231 33.6965 85.0838 33.9123 84.6629 34.2878C84.1503 34.721 83.8048 35.3196 83.6861 35.9802L82.7964 40.196C82.6702 40.7753 82.438 41.1943 82.0997 41.453C81.7615 41.7117 81.2567 41.8379 80.5853 41.8316L79.6426 41.8373Z" fill="#224191"/>
<path d="M93.8743 41.8373C93.1903 41.8373 92.681 41.6921 92.3466 41.4019C92.0122 41.1116 91.9093 40.6838 92.038 40.1184L93.3632 33.8543C93.4402 33.4681 93.2856 33.275 92.8994 33.275H92.5208L92.7536 32.1733H94.3192C95.0019 32.1733 95.5111 32.3184 95.8468 32.6087C96.1825 32.8989 96.2854 33.3198 96.1554 33.8713L94.8303 40.1543C94.7659 40.5405 94.9205 40.7336 95.2941 40.7336H95.6727L95.4398 41.8354L93.8743 41.8373ZM95.1502 30.9901C94.9496 31.0002 94.7493 30.9626 94.5661 30.8803C94.3828 30.7981 94.2216 30.6735 94.0958 30.5168C93.9703 30.3562 93.8832 30.1689 93.8412 29.9694C93.7992 29.77 93.8034 29.5635 93.8535 29.3659C93.9482 28.907 94.2015 28.4961 94.569 28.2054C94.9163 27.8985 95.3626 27.7271 95.826 27.7227C96.0276 27.7129 96.2286 27.7516 96.412 27.8356C96.5955 27.9196 96.7562 28.0465 96.8805 28.2054C97.0056 28.3681 97.0924 28.557 97.1344 28.7579C97.1763 28.9589 97.1724 29.1667 97.1228 29.3659C97.0168 29.8222 96.7575 30.2285 96.3883 30.5168C96.0447 30.8163 95.6059 30.984 95.1502 30.9901Z" fill="#224191"/>
<path d="M100.352 42.0322C97.9931 42.0322 97.1356 40.5241 97.7792 37.5078L98.5535 33.8543C98.5748 33.7843 98.5798 33.7103 98.568 33.6381C98.5561 33.5659 98.5279 33.4973 98.4853 33.4378C98.4373 33.3808 98.3763 33.3361 98.3075 33.3074C98.2387 33.2788 98.164 33.267 98.0897 33.2731H97.7111L97.9345 32.1676H99.7329C101.048 32.1676 101.583 32.7355 101.338 33.8713L100.488 37.8732C100.152 39.4583 100.359 40.2509 101.107 40.2509C101.881 40.2509 102.701 39.8382 103.568 39.0128C104.381 38.2677 104.992 37.3303 105.348 36.2868C105.506 35.7866 105.584 35.2647 105.58 34.7402C105.572 34.2779 105.624 33.8165 105.736 33.3678C105.949 32.5676 106.507 32.1676 107.409 32.1676H108.395L108.047 33.6574C107.823 34.6908 107.476 35.6937 107.014 36.6446C106.555 37.5981 105.991 38.4966 105.331 39.3233C104.702 40.1169 103.928 40.7832 103.049 41.2864C102.232 41.7689 101.301 42.0262 100.352 42.0322Z" fill="#224191"/>
<path d="M112.088 42.07C110.605 42.07 109.487 41.6031 108.733 40.6691C107.98 39.7352 107.764 38.5142 108.086 37.0061C108.385 35.5883 109.16 34.3152 110.282 33.3975C111.403 32.4797 112.804 31.9723 114.253 31.9592C115.036 31.9484 115.808 32.1381 116.497 32.5101C117.094 32.8466 117.561 33.3748 117.822 34.0094C118.092 34.6404 117.999 35.2714 117.542 35.9025C117.085 36.5335 116.246 36.9922 115.026 37.2787L110.831 38.3218C110.846 38.8726 111.075 39.396 111.469 39.7813C111.874 40.1348 112.4 40.3186 112.938 40.2943C113.646 40.3056 114.343 40.1201 114.952 39.7586C115.491 39.4464 115.961 39.0285 116.334 38.53L116.972 38.9351C117.449 39.2317 117.429 39.6381 116.913 40.1542C116.318 40.7147 115.631 41.1692 114.882 41.4983C114.003 41.8894 113.05 42.0845 112.088 42.07ZM111.024 36.7335L113.712 36.0558C114.21 35.9498 114.68 35.7423 115.094 35.4462C115.238 35.3504 115.349 35.213 115.413 35.0524C115.477 34.8918 115.49 34.7155 115.452 34.547C115.425 34.4183 115.371 34.297 115.292 34.1916C115.214 34.0863 115.113 33.9995 114.997 33.9375C114.736 33.7873 114.439 33.7107 114.138 33.716C113.532 33.716 112.923 33.993 112.311 34.547C111.678 35.1348 111.231 35.8948 111.024 36.7335Z" fill="#224191"/>
</g>
<defs>
<linearGradient id="paint0_linear_7795_1000" x1="-128.658" y1="65.0241" x2="841.879" y2="163.363" gradientUnits="userSpaceOnUse">
<stop stop-color="#214293"/>
<stop offset="1" stop-color="#EC2127"/>
</linearGradient>
<clipPath id="clip0_7795_1000">
<rect width="322" height="206" rx="13" fill="white"/>
</clipPath>
</defs>
</svg>
