<svg width="322" height="206" viewBox="0 0 322 206" fill="none" xmlns="http://www.w3.org/2000/svg">
<g clip-path="url(#clip0_7795_982)">
<rect width="322" height="206" rx="13" fill="#D9D9D9"/>
<path d="M539 185C539 237.467 342.83 304 239 304C135.17 304 -21 313.967 -21 261.5C-21 209.033 174 88.5 379 88.5C467 147 539 132.533 539 185Z" fill="url(#paint0_linear_7795_982)"/>
<path d="M37.98 89H33.78L24.27 74.63V89H20.07V68.03H24.27L33.78 82.43V68.03H37.98V89ZM56.7105 74.36C56.2305 73.48 55.5705 72.81 54.7305 72.35C53.8905 71.89 52.9105 71.66 51.7905 71.66C50.5505 71.66 49.4505 71.94 48.4905 72.5C47.5305 73.06 46.7805 73.86 46.2405 74.9C45.7005 75.94 45.4305 77.14 45.4305 78.5C45.4305 79.9 45.7005 81.12 46.2405 82.16C46.8005 83.2 47.5705 84 48.5505 84.56C49.5305 85.12 50.6705 85.4 51.9705 85.4C53.5705 85.4 54.8805 84.98 55.9005 84.14C56.9205 83.28 57.5905 82.09 57.9105 80.57H50.7105V77.36H62.0505V81.02C61.7705 82.48 61.1705 83.83 60.2505 85.07C59.3305 86.31 58.1405 87.31 56.6805 88.07C55.2405 88.81 53.6205 89.18 51.8205 89.18C49.8005 89.18 47.9705 88.73 46.3305 87.83C44.7105 86.91 43.4305 85.64 42.4905 84.02C41.5705 82.4 41.1105 80.56 41.1105 78.5C41.1105 76.44 41.5705 74.6 42.4905 72.98C43.4305 71.34 44.7105 70.07 46.3305 69.17C47.9705 68.25 49.7905 67.79 51.7905 67.79C54.1505 67.79 56.2005 68.37 57.9405 69.53C59.6805 70.67 60.8805 72.28 61.5405 74.36H56.7105ZM83.0679 89H78.8679L69.3579 74.63V89H65.1579V68.03H69.3579L78.8679 82.43V68.03H83.0679V89ZM108.947 74.36C108.467 73.48 107.807 72.81 106.967 72.35C106.127 71.89 105.147 71.66 104.027 71.66C102.787 71.66 101.687 71.94 100.727 72.5C99.7669 73.06 99.0169 73.86 98.4769 74.9C97.9369 75.94 97.6669 77.14 97.6669 78.5C97.6669 79.9 97.9369 81.12 98.4769 82.16C99.0369 83.2 99.8069 84 100.787 84.56C101.767 85.12 102.907 85.4 104.207 85.4C105.807 85.4 107.117 84.98 108.137 84.14C109.157 83.28 109.827 82.09 110.147 80.57H102.947V77.36H114.287V81.02C114.007 82.48 113.407 83.83 112.487 85.07C111.567 86.31 110.377 87.31 108.917 88.07C107.477 88.81 105.857 89.18 104.057 89.18C102.037 89.18 100.207 88.73 98.5669 87.83C96.9469 86.91 95.6669 85.64 94.7269 84.02C93.8069 82.4 93.3469 80.56 93.3469 78.5C93.3469 76.44 93.8069 74.6 94.7269 72.98C95.6669 71.34 96.9469 70.07 98.5669 69.17C100.207 68.25 102.027 67.79 104.027 67.79C106.387 67.79 108.437 68.37 110.177 69.53C111.917 70.67 113.117 72.28 113.777 74.36H108.947ZM121.594 68.06V89H117.394V68.06H121.594ZM138.674 68.06V71.45H129.944V76.82H136.634V80.15H129.944V89H125.744V68.06H138.674ZM155.902 68.06V71.45H150.322V89H146.122V71.45H140.542V68.06H155.902ZM165.095 78.5C165.095 76.44 165.555 74.6 166.475 72.98C167.415 71.34 168.685 70.07 170.285 69.17C171.905 68.25 173.715 67.79 175.715 67.79C178.055 67.79 180.105 68.39 181.865 69.59C183.625 70.79 184.855 72.45 185.555 74.57H180.725C180.245 73.57 179.565 72.82 178.685 72.32C177.825 71.82 176.825 71.57 175.685 71.57C174.465 71.57 173.375 71.86 172.415 72.44C171.475 73 170.735 73.8 170.195 74.84C169.675 75.88 169.415 77.1 169.415 78.5C169.415 79.88 169.675 81.1 170.195 82.16C170.735 83.2 171.475 84.01 172.415 84.59C173.375 85.15 174.465 85.43 175.685 85.43C176.825 85.43 177.825 85.18 178.685 84.68C179.565 84.16 180.245 83.4 180.725 82.4H185.555C184.855 84.54 183.625 86.21 181.865 87.41C180.125 88.59 178.075 89.18 175.715 89.18C173.715 89.18 171.905 88.73 170.285 87.83C168.685 86.91 167.415 85.64 166.475 84.02C165.555 82.4 165.095 80.56 165.095 78.5ZM201.982 85.01H193.642L192.262 89H187.852L195.382 68.03H200.272L207.802 89H203.362L201.982 85.01ZM200.842 81.65L197.812 72.89L194.782 81.65H200.842ZM221.417 89L216.797 80.84H214.817V89H210.617V68.06H218.477C220.097 68.06 221.477 68.35 222.617 68.93C223.757 69.49 224.607 70.26 225.167 71.24C225.747 72.2 226.037 73.28 226.037 74.48C226.037 75.86 225.637 77.11 224.837 78.23C224.037 79.33 222.847 80.09 221.267 80.51L226.277 89H221.417ZM214.817 77.69H218.327C219.467 77.69 220.317 77.42 220.877 76.88C221.437 76.32 221.717 75.55 221.717 74.57C221.717 73.61 221.437 72.87 220.877 72.35C220.317 71.81 219.467 71.54 218.327 71.54H214.817V77.69ZM237.156 68.06C239.356 68.06 241.286 68.49 242.946 69.35C244.626 70.21 245.916 71.44 246.816 73.04C247.736 74.62 248.196 76.46 248.196 78.56C248.196 80.66 247.736 82.5 246.816 84.08C245.916 85.64 244.626 86.85 242.946 87.71C241.286 88.57 239.356 89 237.156 89H229.836V68.06H237.156ZM237.006 85.43C239.206 85.43 240.906 84.83 242.106 83.63C243.306 82.43 243.906 80.74 243.906 78.56C243.906 76.38 243.306 74.68 242.106 73.46C240.906 72.22 239.206 71.6 237.006 71.6H234.036V85.43H237.006Z" fill="black"/>
<path d="M208.324 181H206.364L201.926 174.294V181H199.966V171.214H201.926L206.364 177.934V171.214H208.324V181ZM211.255 172.32C210.91 172.32 210.62 172.213 210.387 171.998C210.163 171.774 210.051 171.499 210.051 171.172C210.051 170.845 210.163 170.575 210.387 170.36C210.62 170.136 210.91 170.024 211.255 170.024C211.6 170.024 211.885 170.136 212.109 170.36C212.342 170.575 212.459 170.845 212.459 171.172C212.459 171.499 212.342 171.774 212.109 171.998C211.885 172.213 211.6 172.32 211.255 172.32ZM212.221 173.244V181H210.261V173.244H212.221ZM217.195 173.118C217.774 173.118 218.283 173.235 218.721 173.468C219.16 173.692 219.505 173.986 219.757 174.35V173.244H221.731V181.056C221.731 181.775 221.587 182.414 221.297 182.974C221.008 183.543 220.574 183.991 219.995 184.318C219.417 184.654 218.717 184.822 217.895 184.822C216.794 184.822 215.889 184.565 215.179 184.052C214.479 183.539 214.083 182.839 213.989 181.952H215.935C216.038 182.307 216.257 182.587 216.593 182.792C216.939 183.007 217.354 183.114 217.839 183.114C218.409 183.114 218.871 182.941 219.225 182.596C219.58 182.26 219.757 181.747 219.757 181.056V179.852C219.505 180.216 219.155 180.519 218.707 180.762C218.269 181.005 217.765 181.126 217.195 181.126C216.542 181.126 215.945 180.958 215.403 180.622C214.862 180.286 214.433 179.815 214.115 179.208C213.807 178.592 213.653 177.887 213.653 177.094C213.653 176.31 213.807 175.615 214.115 175.008C214.433 174.401 214.857 173.935 215.389 173.608C215.931 173.281 216.533 173.118 217.195 173.118ZM219.757 177.122C219.757 176.646 219.664 176.24 219.477 175.904C219.291 175.559 219.039 175.297 218.721 175.12C218.404 174.933 218.063 174.84 217.699 174.84C217.335 174.84 216.999 174.929 216.691 175.106C216.383 175.283 216.131 175.545 215.935 175.89C215.749 176.226 215.655 176.627 215.655 177.094C215.655 177.561 215.749 177.971 215.935 178.326C216.131 178.671 216.383 178.937 216.691 179.124C217.009 179.311 217.345 179.404 217.699 179.404C218.063 179.404 218.404 179.315 218.721 179.138C219.039 178.951 219.291 178.69 219.477 178.354C219.664 178.009 219.757 177.598 219.757 177.122ZM230.856 176.954C230.856 177.234 230.837 177.486 230.8 177.71H225.13C225.176 178.27 225.372 178.709 225.718 179.026C226.063 179.343 226.488 179.502 226.992 179.502C227.72 179.502 228.238 179.189 228.546 178.564H230.66C230.436 179.311 230.006 179.927 229.372 180.412C228.737 180.888 227.958 181.126 227.034 181.126C226.287 181.126 225.615 180.963 225.018 180.636C224.43 180.3 223.968 179.829 223.632 179.222C223.305 178.615 223.142 177.915 223.142 177.122C223.142 176.319 223.305 175.615 223.632 175.008C223.958 174.401 224.416 173.935 225.004 173.608C225.592 173.281 226.268 173.118 227.034 173.118C227.771 173.118 228.429 173.277 229.008 173.594C229.596 173.911 230.048 174.364 230.366 174.952C230.692 175.531 230.856 176.198 230.856 176.954ZM228.826 176.394C228.816 175.89 228.634 175.489 228.28 175.19C227.925 174.882 227.491 174.728 226.978 174.728C226.492 174.728 226.082 174.877 225.746 175.176C225.419 175.465 225.218 175.871 225.144 176.394H228.826ZM234.246 174.448C234.498 174.037 234.825 173.715 235.226 173.482C235.637 173.249 236.104 173.132 236.626 173.132V175.19H236.108C235.492 175.19 235.026 175.335 234.708 175.624C234.4 175.913 234.246 176.417 234.246 177.136V181H232.286V173.244H234.246V174.448ZM238.94 172.32C238.595 172.32 238.306 172.213 238.072 171.998C237.848 171.774 237.736 171.499 237.736 171.172C237.736 170.845 237.848 170.575 238.072 170.36C238.306 170.136 238.595 170.024 238.94 170.024C239.286 170.024 239.57 170.136 239.794 170.36C240.028 170.575 240.144 170.845 240.144 171.172C240.144 171.499 240.028 171.774 239.794 171.998C239.57 172.213 239.286 172.32 238.94 172.32ZM239.906 173.244V181H237.946V173.244H239.906ZM241.339 177.094C241.339 176.31 241.493 175.615 241.801 175.008C242.118 174.401 242.543 173.935 243.075 173.608C243.616 173.281 244.218 173.118 244.881 173.118C245.46 173.118 245.964 173.235 246.393 173.468C246.832 173.701 247.182 173.995 247.443 174.35V173.244H249.417V181H247.443V179.866C247.191 180.23 246.841 180.533 246.393 180.776C245.954 181.009 245.446 181.126 244.867 181.126C244.214 181.126 243.616 180.958 243.075 180.622C242.543 180.286 242.118 179.815 241.801 179.208C241.493 178.592 241.339 177.887 241.339 177.094ZM247.443 177.122C247.443 176.646 247.35 176.24 247.163 175.904C246.976 175.559 246.724 175.297 246.407 175.12C246.09 174.933 245.749 174.84 245.385 174.84C245.021 174.84 244.685 174.929 244.377 175.106C244.069 175.283 243.817 175.545 243.621 175.89C243.434 176.226 243.341 176.627 243.341 177.094C243.341 177.561 243.434 177.971 243.621 178.326C243.817 178.671 244.069 178.937 244.377 179.124C244.694 179.311 245.03 179.404 245.385 179.404C245.749 179.404 246.09 179.315 246.407 179.138C246.724 178.951 246.976 178.69 247.163 178.354C247.35 178.009 247.443 177.598 247.443 177.122ZM255.629 173.132C256.553 173.132 257.3 173.426 257.869 174.014C258.439 174.593 258.723 175.405 258.723 176.45V181H256.763V176.716C256.763 176.1 256.609 175.629 256.301 175.302C255.993 174.966 255.573 174.798 255.041 174.798C254.5 174.798 254.071 174.966 253.753 175.302C253.445 175.629 253.291 176.1 253.291 176.716V181H251.331V173.244H253.291V174.21C253.553 173.874 253.884 173.613 254.285 173.426C254.696 173.23 255.144 173.132 255.629 173.132ZM272.281 181H270.321L265.883 174.294V181H263.923V171.214H265.883L270.321 177.934V171.214H272.281V181ZM273.714 177.094C273.714 176.31 273.868 175.615 274.176 175.008C274.493 174.401 274.918 173.935 275.45 173.608C275.991 173.281 276.593 173.118 277.256 173.118C277.835 173.118 278.339 173.235 278.768 173.468C279.207 173.701 279.557 173.995 279.818 174.35V173.244H281.792V181H279.818V179.866C279.566 180.23 279.216 180.533 278.768 180.776C278.329 181.009 277.821 181.126 277.242 181.126C276.589 181.126 275.991 180.958 275.45 180.622C274.918 180.286 274.493 179.815 274.176 179.208C273.868 178.592 273.714 177.887 273.714 177.094ZM279.818 177.122C279.818 176.646 279.725 176.24 279.538 175.904C279.351 175.559 279.099 175.297 278.782 175.12C278.465 174.933 278.124 174.84 277.76 174.84C277.396 174.84 277.06 174.929 276.752 175.106C276.444 175.283 276.192 175.545 275.996 175.89C275.809 176.226 275.716 176.627 275.716 177.094C275.716 177.561 275.809 177.971 275.996 178.326C276.192 178.671 276.444 178.937 276.752 179.124C277.069 179.311 277.405 179.404 277.76 179.404C278.124 179.404 278.465 179.315 278.782 179.138C279.099 178.951 279.351 178.69 279.538 178.354C279.725 178.009 279.818 177.598 279.818 177.122ZM284.7 172.32C284.355 172.32 284.066 172.213 283.832 171.998C283.608 171.774 283.496 171.499 283.496 171.172C283.496 170.845 283.608 170.575 283.832 170.36C284.066 170.136 284.355 170.024 284.7 170.024C285.046 170.024 285.33 170.136 285.554 170.36C285.788 170.575 285.904 170.845 285.904 171.172C285.904 171.499 285.788 171.774 285.554 171.998C285.33 172.213 285.046 172.32 284.7 172.32ZM285.666 173.244V181H283.706V173.244H285.666ZM289.563 174.448C289.815 174.037 290.141 173.715 290.543 173.482C290.953 173.249 291.42 173.132 291.943 173.132V175.19H291.425C290.809 175.19 290.342 175.335 290.025 175.624C289.717 175.913 289.563 176.417 289.563 177.136V181H287.603V173.244H289.563V174.448ZM292.759 177.094C292.759 176.31 292.913 175.615 293.221 175.008C293.538 174.401 293.963 173.935 294.495 173.608C295.036 173.281 295.638 173.118 296.301 173.118C296.88 173.118 297.384 173.235 297.813 173.468C298.252 173.701 298.602 173.995 298.863 174.35V173.244H300.837V181H298.863V179.866C298.611 180.23 298.261 180.533 297.813 180.776C297.374 181.009 296.866 181.126 296.287 181.126C295.634 181.126 295.036 180.958 294.495 180.622C293.963 180.286 293.538 179.815 293.221 179.208C292.913 178.592 292.759 177.887 292.759 177.094ZM298.863 177.122C298.863 176.646 298.77 176.24 298.583 175.904C298.396 175.559 298.144 175.297 297.827 175.12C297.51 174.933 297.169 174.84 296.805 174.84C296.441 174.84 296.105 174.929 295.797 175.106C295.489 175.283 295.237 175.545 295.041 175.89C294.854 176.226 294.761 176.627 294.761 177.094C294.761 177.561 294.854 177.971 295.041 178.326C295.237 178.671 295.489 178.937 295.797 179.124C296.114 179.311 296.45 179.404 296.805 179.404C297.169 179.404 297.51 179.315 297.827 179.138C298.144 178.951 298.396 178.69 298.583 178.354C298.77 178.009 298.863 177.598 298.863 177.122Z" fill="white"/>
<path d="M34.4384 15.4274C34.4384 15.4274 46.5539 22.0985 33.5449 24.6333V23.6262C33.5449 23.6262 44.1289 20.9929 34.4138 16.2433L34.4384 15.4274Z" fill="#224191"/>
<path d="M37.0481 19.327C37.0481 19.327 33.8678 15.0544 25.7183 15.9971C17.5687 16.9399 16.4764 21.1652 16.4764 21.1652C16.4764 21.1652 13.7429 29.3639 32.2266 30.6077L32.2398 30.0928C32.2398 30.0928 23.3709 30.4089 18.9355 25.3791C16.8115 22.6209 21.1352 19.6772 22.5512 19.1926C23.9672 18.708 28.7755 16.6029 36.1546 19.5712L37.0481 19.327Z" fill="#224191"/>
<path d="M19.1973 27.7625C19.1973 27.7625 27.0099 22.0833 35.1481 25.5628C41.1112 28.1165 36.1116 33.8922 33.3591 36.338C32.4021 37.1906 31.3389 37.916 30.1959 38.496C27.9242 39.6319 23.9015 41.2088 20.5413 40.0218L20.6152 39.276C20.6152 39.276 28.2176 40.0465 33.5466 32.6352C38.8755 25.2239 29.0752 25.2618 29.0752 25.2618C29.0752 25.2618 24.4164 25.1501 19.7993 28.1316L19.1973 27.7625Z" fill="#EC2326"/>
<path d="M24.276 42.0606C24.276 42.0606 11.4885 42.6664 20.1321 34C20.2681 33.8591 20.4373 33.7546 20.6242 33.6961C20.811 33.6375 21.0096 33.6268 21.2017 33.665C21.4762 33.7256 21.692 33.8865 21.5519 34.2783C21.5027 34.4081 21.4258 34.5257 21.3266 34.6229C20.3801 35.5864 14.2315 42.178 24.276 41.487V42.0606Z" fill="#EC2326"/>
<path d="M41.6316 42.0323C41.1884 42.0398 40.7472 41.9713 40.3273 41.8297C39.9215 41.6777 39.5571 41.4326 39.2634 41.1141C38.914 40.7238 38.7094 40.2252 38.6841 39.7019C38.6357 38.9353 38.6846 38.1656 38.8299 37.4113L39.5871 33.8543C39.6084 33.7843 39.6134 33.7103 39.6016 33.6381C39.5897 33.5659 39.5615 33.4974 39.5189 33.4378C39.4709 33.3808 39.4099 33.3361 39.3411 33.3075C39.2723 33.2788 39.1976 33.2671 39.1233 33.2731H38.7447L38.9775 32.1714H40.7759C42.0909 32.1714 42.626 32.7393 42.3812 33.8751L41.5502 37.8202C41.3697 38.6708 41.3893 39.3019 41.6088 39.7133C41.7018 39.9035 41.8482 40.0624 42.0301 40.1707C42.212 40.2789 42.4215 40.3318 42.633 40.3228C43.1227 40.3228 43.6029 40.1039 44.0736 39.666C44.5443 39.228 44.8826 38.5383 45.0883 37.5969L45.9004 33.8259C46.0266 33.2328 46.2556 32.8106 46.5876 32.5595C46.9195 32.3083 47.4243 32.1821 48.102 32.1809H49.0485L47.8502 37.8278C47.6698 38.6784 47.6925 39.3094 47.9184 39.7209C48.0112 39.9091 48.1563 40.0666 48.3362 40.1747C48.5161 40.2828 48.7233 40.3368 48.933 40.3304C49.4227 40.3304 49.9124 40.0723 50.4021 39.5562C50.8917 39.04 51.2394 38.3055 51.4451 37.3527L52.1796 33.8335C52.3058 33.2529 52.538 32.834 52.8763 32.5765C53.2145 32.319 53.7237 32.1928 54.4039 32.1979H55.3221L54.2582 37.0895C53.949 38.458 53.1906 39.6835 52.1039 40.5708C50.9681 41.5439 49.5596 42.0304 47.8786 42.0304C46.6544 42.0304 45.8423 41.5148 45.4423 40.4838C44.3064 41.5161 43.0362 42.0323 41.6316 42.0323Z" fill="#224191"/>
<path d="M58.1048 41.8373C57.4207 41.8373 56.9115 41.6921 56.5771 41.4019C56.2426 41.1116 56.1398 40.6838 56.2685 40.1184L57.5936 33.8543C57.6706 33.4681 57.516 33.275 57.1298 33.275H56.7512L56.9841 32.1733H58.5402C59.2229 32.1733 59.7322 32.3184 60.0679 32.6087C60.4036 32.8989 60.5064 33.3211 60.3764 33.8751L59.0513 40.1581C58.9869 40.5443 59.1415 40.7374 59.5151 40.7374H59.8937L59.676 41.8373H58.1048ZM59.3807 30.9901C59.18 31.0002 58.9798 30.9626 58.7965 30.8803C58.6132 30.7981 58.4521 30.6735 58.3262 30.5168C58.2008 30.3562 58.1137 30.1689 58.0717 29.9694C58.0297 29.77 58.0339 29.5635 58.0839 29.3659C58.1787 28.907 58.432 28.4961 58.7995 28.2054C59.1467 27.8985 59.5931 27.7271 60.0565 27.7227C60.2581 27.7129 60.459 27.7516 60.6425 27.8356C60.826 27.9196 60.9866 28.0465 61.1109 28.2054C61.2361 28.3681 61.3229 28.557 61.3648 28.7579C61.4068 28.9589 61.4028 29.1667 61.3532 29.3659C61.2472 29.8222 60.988 30.2285 60.6187 30.5168C60.2752 30.8163 59.8364 30.984 59.3807 30.9901Z" fill="#224191"/>
<path d="M64.9476 42.0323C63.8383 42.0323 63.0937 41.6165 62.7138 40.7848C62.334 39.9531 62.3112 38.7447 62.6457 37.1596L63.3423 33.8335H62.0664L62.4147 32.1714H63.6906L64.1734 29.9868C64.2377 29.6007 64.0831 29.4076 63.7096 29.4076H63.3045L63.5562 28.3058H65.1218C65.8045 28.3058 66.3138 28.4509 66.6495 28.7412C66.9852 29.0315 67.088 29.4536 66.958 30.0077L66.4905 32.1676H68.5728L68.2056 33.8297H66.1478L65.3754 37.5231C65.1697 38.361 65.0991 39.0154 65.1634 39.4861C65.2278 39.9569 65.46 40.1922 65.8601 40.1922C66.3497 40.1922 66.7561 39.9089 67.0792 39.3423L67.7758 39.7474C68.2655 40.044 68.2333 40.4503 67.6793 40.9665C67.3167 41.3155 66.8887 41.5893 66.4199 41.7722C65.9511 41.9551 65.4507 42.0435 64.9476 42.0323Z" fill="#224191"/>
<path d="M73.8244 42.0701C72.3428 42.0701 71.2234 41.6089 70.4662 40.6863C69.7089 39.7638 69.4931 38.5459 69.8187 37.0327C70.0996 35.5932 70.88 34.2992 72.0222 33.3792C73.1312 32.4607 74.5294 31.9644 75.9693 31.9783C76.6302 31.9635 77.2865 32.0927 77.8926 32.3569C78.3922 32.5636 78.8197 32.9133 79.1212 33.3621C79.443 33.8669 79.2947 34.2664 78.6763 34.5604L77.849 34.9731C77.5966 34.1477 77.0035 33.7351 76.0696 33.7351C75.2754 33.7412 74.5161 34.0626 73.9588 34.6286C73.302 35.2744 72.8627 36.1087 72.7018 37.0157C72.4949 37.995 72.5788 38.7844 72.9536 39.3839C73.3285 39.9834 73.902 40.2831 74.6744 40.2831C75.6033 40.2831 76.3706 39.8704 76.9764 39.0451L77.6332 39.4521C78.0977 39.7613 78.0781 40.1676 77.5746 40.6712C77.0911 41.1111 76.5266 41.4525 75.9125 41.6764C75.2468 41.9357 74.5388 42.0692 73.8244 42.0701Z" fill="#224191"/>
<path d="M79.6426 41.8373L82.3686 29.0176C82.4455 28.6314 82.2909 28.4383 81.9048 28.4383H81.5262L81.759 27.3365H83.3246C84.0212 27.3365 84.5336 27.4817 84.8617 27.7719C85.1898 28.0622 85.2965 28.4844 85.1816 29.0384L84.2843 33.1368C85.1677 32.3632 86.1345 31.9764 87.1845 31.9764C88.3064 31.9764 89.1633 32.3405 89.7552 33.0687C90.3471 33.7969 90.4733 34.9731 90.1338 36.5973L89.3766 40.1544C89.3545 40.2258 89.3491 40.3014 89.3609 40.3753C89.3727 40.4492 89.4014 40.5193 89.4448 40.5803C89.4914 40.6339 89.55 40.6758 89.6157 40.7027C89.6814 40.7297 89.7525 40.7409 89.8234 40.7355H90.2285L89.9957 41.8373H88.1783C86.8759 41.8373 86.3408 41.2637 86.573 40.1165L87.4041 36.249C87.5972 35.3858 87.565 34.7415 87.3075 34.3162C87.1975 34.117 87.0347 33.9521 86.837 33.8395C86.6392 33.727 86.4143 33.6712 86.1868 33.6783C85.6231 33.6965 85.0838 33.9123 84.6629 34.2878C84.1503 34.721 83.8048 35.3196 83.6861 35.9802L82.7964 40.196C82.6702 40.7753 82.438 41.1943 82.0997 41.453C81.7615 41.7117 81.2567 41.8379 80.5853 41.8316L79.6426 41.8373Z" fill="#224191"/>
<path d="M93.8743 41.8373C93.1903 41.8373 92.681 41.6921 92.3466 41.4019C92.0122 41.1116 91.9093 40.6838 92.038 40.1184L93.3632 33.8543C93.4402 33.4681 93.2856 33.275 92.8994 33.275H92.5208L92.7536 32.1733H94.3192C95.0019 32.1733 95.5111 32.3184 95.8468 32.6087C96.1825 32.8989 96.2854 33.3198 96.1554 33.8713L94.8303 40.1543C94.7659 40.5405 94.9205 40.7336 95.2941 40.7336H95.6727L95.4398 41.8354L93.8743 41.8373ZM95.1502 30.9901C94.9496 31.0002 94.7493 30.9626 94.5661 30.8803C94.3828 30.7981 94.2216 30.6735 94.0958 30.5168C93.9703 30.3562 93.8832 30.1689 93.8412 29.9694C93.7992 29.77 93.8034 29.5635 93.8535 29.3659C93.9482 28.907 94.2015 28.4961 94.569 28.2054C94.9163 27.8985 95.3626 27.7271 95.826 27.7227C96.0276 27.7129 96.2286 27.7516 96.412 27.8356C96.5955 27.9196 96.7562 28.0465 96.8805 28.2054C97.0056 28.3681 97.0924 28.557 97.1344 28.7579C97.1763 28.9589 97.1724 29.1667 97.1228 29.3659C97.0168 29.8222 96.7575 30.2285 96.3883 30.5168C96.0447 30.8163 95.6059 30.984 95.1502 30.9901Z" fill="#224191"/>
<path d="M100.352 42.0322C97.9931 42.0322 97.1356 40.5241 97.7792 37.5078L98.5535 33.8543C98.5748 33.7843 98.5798 33.7103 98.568 33.6381C98.5561 33.5659 98.5279 33.4973 98.4853 33.4378C98.4373 33.3808 98.3763 33.3361 98.3075 33.3074C98.2387 33.2788 98.164 33.267 98.0897 33.2731H97.7111L97.9345 32.1676H99.7329C101.048 32.1676 101.583 32.7355 101.338 33.8713L100.488 37.8732C100.152 39.4583 100.359 40.2509 101.107 40.2509C101.881 40.2509 102.701 39.8382 103.568 39.0128C104.381 38.2677 104.992 37.3303 105.348 36.2868C105.506 35.7866 105.584 35.2647 105.58 34.7402C105.572 34.2779 105.624 33.8165 105.736 33.3678C105.949 32.5676 106.507 32.1676 107.409 32.1676H108.395L108.047 33.6574C107.823 34.6908 107.476 35.6937 107.014 36.6446C106.555 37.5981 105.991 38.4966 105.331 39.3233C104.702 40.1169 103.928 40.7832 103.049 41.2864C102.232 41.7689 101.301 42.0262 100.352 42.0322Z" fill="#224191"/>
<path d="M112.088 42.07C110.605 42.07 109.487 41.6031 108.733 40.6691C107.98 39.7352 107.764 38.5142 108.086 37.0061C108.385 35.5883 109.16 34.3152 110.282 33.3975C111.403 32.4797 112.804 31.9723 114.253 31.9592C115.036 31.9484 115.808 32.1381 116.497 32.5101C117.094 32.8466 117.561 33.3748 117.822 34.0094C118.092 34.6404 117.999 35.2714 117.542 35.9025C117.085 36.5335 116.246 36.9922 115.026 37.2787L110.831 38.3218C110.846 38.8726 111.075 39.396 111.469 39.7813C111.874 40.1348 112.4 40.3186 112.938 40.2943C113.646 40.3056 114.343 40.1201 114.952 39.7586C115.491 39.4464 115.961 39.0285 116.334 38.53L116.972 38.9351C117.449 39.2317 117.429 39.6381 116.913 40.1542C116.318 40.7147 115.631 41.1692 114.882 41.4983C114.003 41.8894 113.05 42.0845 112.088 42.07ZM111.024 36.7335L113.712 36.0558C114.21 35.9498 114.68 35.7423 115.094 35.4462C115.238 35.3504 115.349 35.213 115.413 35.0524C115.477 34.8918 115.49 34.7155 115.452 34.547C115.425 34.4183 115.371 34.297 115.292 34.1916C115.214 34.0863 115.113 33.9995 114.997 33.9375C114.736 33.7873 114.439 33.7107 114.138 33.716C113.532 33.716 112.923 33.993 112.311 34.547C111.678 35.1348 111.231 35.8948 111.024 36.7335Z" fill="#224191"/>
</g>
<defs>
<linearGradient id="paint0_linear_7795_982" x1="-128.658" y1="65.0241" x2="841.879" y2="163.363" gradientUnits="userSpaceOnUse">
<stop stop-color="#214293"/>
<stop offset="1" stop-color="#EC2127"/>
</linearGradient>
<clipPath id="clip0_7795_982">
<rect width="322" height="206" rx="13" fill="white"/>
</clipPath>
</defs>
</svg>
