<svg width="139" height="173" viewBox="0 0 139 173" fill="none" xmlns="http://www.w3.org/2000/svg">
<rect x="0.0209961" y="0.817139" width="138" height="138" rx="69" transform="rotate(-0.141456 0.0209961 0.817139)" fill="#000C2C"/>
<g clip-path="url(#clip0_7838_3360)">
<path d="M68.0988 123.713C102.082 123.63 129.563 96.0128 129.479 62.0297C129.395 28.0466 101.778 0.565944 67.795 0.649844C33.8119 0.733744 6.3312 28.3505 6.4151 62.3335C6.499 96.3166 34.1157 123.797 68.0988 123.713Z" fill="white"/>
<path d="M68.6458 0.492246C54.999 0.525938 41.6685 4.60564 30.3403 12.2154C19.0121 19.8253 10.1948 30.6234 5.00348 43.2443C-0.187819 55.8653 -1.51999 69.7422 1.17542 83.1203C3.87084 96.4984 10.4728 108.777 20.1464 118.403C29.82 128.029 42.1308 134.57 55.5221 137.199C68.9133 139.829 82.7835 138.428 95.3786 133.174C107.974 127.921 118.728 119.05 126.282 107.685C133.836 96.3189 137.85 82.9685 137.816 69.3217C137.82 60.2867 136.044 51.3395 132.591 42.9908C129.137 34.642 124.073 27.0553 117.687 20.6638C111.301 14.2723 103.719 9.20119 95.373 5.73997C87.0274 2.27876 78.0817 0.49524 69.0468 0.491256L68.6458 0.492246ZM69.9914 71.8281L62.8672 96.071L101.293 95.9761C101.548 95.9665 101.802 96.0072 102.04 96.0959C102.279 96.1845 102.498 96.3194 102.685 96.4927C102.871 96.666 103.022 96.8744 103.128 97.106C103.234 97.3376 103.293 97.5878 103.303 97.8423L103.304 98.4772L99.9914 110.013C99.8454 110.559 99.5183 111.038 99.0637 111.374C98.6091 111.709 98.0542 111.879 97.4899 111.857L38.6813 112.002L48.4555 78.397L37.4372 81.7657L39.9242 74.0743L50.9426 70.7057L64.6931 23.5578C64.8444 23.0153 65.1729 22.539 65.6262 22.2049C66.0795 21.8707 66.6316 21.6978 67.1946 21.7138L82.0638 21.6771C82.3183 21.6675 82.5722 21.7082 82.811 21.7969C83.0498 21.8855 83.2687 22.0204 83.4553 22.1937C83.642 22.367 83.7926 22.5754 83.8986 22.807C84.0046 23.0386 84.064 23.2888 84.0732 23.5433L84.0748 24.1782L72.4781 63.9697L83.4964 60.601L81.1773 68.6262L69.9914 71.8281Z" fill="#345D9D"/>
</g>
<path d="M27.555 165.609H33.195V167.817H24.819V151.137H27.555V165.609ZM36.8751 152.841C36.3791 152.841 35.9631 152.673 35.6271 152.337C35.2911 152.001 35.1231 151.585 35.1231 151.089C35.1231 150.593 35.2911 150.177 35.6271 149.841C35.9631 149.505 36.3791 149.337 36.8751 149.337C37.3551 149.337 37.7631 149.505 38.0991 149.841C38.4351 150.177 38.6031 150.593 38.6031 151.089C38.6031 151.585 38.4351 152.001 38.0991 152.337C37.7631 152.673 37.3551 152.841 36.8751 152.841ZM38.2191 154.593V167.817H35.4831V154.593H38.2191ZM45.0032 156.825V164.145C45.0032 164.641 45.1152 165.001 45.3392 165.225C45.5792 165.433 45.9792 165.537 46.5392 165.537H48.2192V167.817H46.0592C44.8272 167.817 43.8832 167.529 43.2272 166.953C42.5712 166.377 42.2432 165.441 42.2432 164.145V156.825H40.6832V154.593H42.2432V151.305H45.0032V154.593H48.2192V156.825H45.0032ZM62.8609 160.881C62.8609 161.377 62.8289 161.825 62.7649 162.225H52.6609C52.7409 163.281 53.1329 164.129 53.8369 164.769C54.5409 165.409 55.4049 165.729 56.4289 165.729C57.9009 165.729 58.9409 165.113 59.5489 163.881H62.5009C62.1009 165.097 61.3729 166.097 60.3169 166.881C59.2769 167.649 57.9809 168.033 56.4289 168.033C55.1649 168.033 54.0289 167.753 53.0209 167.193C52.0289 166.617 51.2449 165.817 50.6689 164.793C50.1089 163.753 49.8289 162.553 49.8289 161.193C49.8289 159.833 50.1009 158.641 50.6449 157.617C51.2049 156.577 51.9809 155.777 52.9729 155.217C53.9809 154.657 55.1329 154.377 56.4289 154.377C57.6769 154.377 58.7889 154.649 59.7649 155.193C60.7409 155.737 61.5009 156.505 62.0449 157.497C62.5889 158.473 62.8609 159.601 62.8609 160.881ZM60.0049 160.017C59.9889 159.009 59.6289 158.201 58.9249 157.593C58.2209 156.985 57.3489 156.681 56.3089 156.681C55.3649 156.681 54.5569 156.985 53.8849 157.593C53.2129 158.185 52.8129 158.993 52.6849 160.017H60.0049ZM64.6414 161.193C64.6414 159.833 64.9134 158.641 65.4574 157.617C66.0174 156.577 66.7854 155.777 67.7614 155.217C68.7374 154.657 69.8574 154.377 71.1214 154.377C72.7214 154.377 74.0414 154.761 75.0814 155.529C76.1374 156.281 76.8494 157.361 77.2174 158.769H74.2654C74.0254 158.113 73.6414 157.601 73.1134 157.233C72.5854 156.865 71.9214 156.681 71.1214 156.681C70.0014 156.681 69.1054 157.081 68.4334 157.881C67.7774 158.665 67.4494 159.769 67.4494 161.193C67.4494 162.617 67.7774 163.729 68.4334 164.529C69.1054 165.329 70.0014 165.729 71.1214 165.729C72.7054 165.729 73.7534 165.033 74.2654 163.641H77.2174C76.8334 164.985 76.1134 166.057 75.0574 166.857C74.0014 167.641 72.6894 168.033 71.1214 168.033C69.8574 168.033 68.7374 167.753 67.7614 167.193C66.7854 166.617 66.0174 165.817 65.4574 164.793C64.9134 163.753 64.6414 162.553 64.6414 161.193ZM85.68 168.033C84.432 168.033 83.304 167.753 82.296 167.193C81.288 166.617 80.496 165.817 79.92 164.793C79.344 163.753 79.056 162.553 79.056 161.193C79.056 159.849 79.352 158.657 79.944 157.617C80.536 156.577 81.344 155.777 82.368 155.217C83.392 154.657 84.536 154.377 85.8 154.377C87.064 154.377 88.208 154.657 89.232 155.217C90.256 155.777 91.064 156.577 91.656 157.617C92.248 158.657 92.544 159.849 92.544 161.193C92.544 162.537 92.24 163.729 91.632 164.769C91.024 165.809 90.192 166.617 89.136 167.193C88.096 167.753 86.944 168.033 85.68 168.033ZM85.68 165.657C86.384 165.657 87.04 165.489 87.648 165.153C88.272 164.817 88.776 164.313 89.16 163.641C89.544 162.969 89.736 162.153 89.736 161.193C89.736 160.233 89.552 159.425 89.184 158.769C88.816 158.097 88.328 157.593 87.72 157.257C87.112 156.921 86.456 156.753 85.752 156.753C85.048 156.753 84.392 156.921 83.784 157.257C83.192 157.593 82.72 158.097 82.368 158.769C82.016 159.425 81.84 160.233 81.84 161.193C81.84 162.617 82.2 163.721 82.92 164.505C83.656 165.273 84.576 165.657 85.68 165.657ZM96.6407 152.841C96.1447 152.841 95.7287 152.673 95.3927 152.337C95.0567 152.001 94.8887 151.585 94.8887 151.089C94.8887 150.593 95.0567 150.177 95.3927 149.841C95.7287 149.505 96.1447 149.337 96.6407 149.337C97.1207 149.337 97.5287 149.505 97.8647 149.841C98.2007 150.177 98.3687 150.593 98.3687 151.089C98.3687 151.585 98.2007 152.001 97.8647 152.337C97.5287 152.673 97.1207 152.841 96.6407 152.841ZM97.9847 154.593V167.817H95.2487V154.593H97.9847ZM108.249 154.377C109.289 154.377 110.217 154.593 111.033 155.025C111.865 155.457 112.513 156.097 112.977 156.945C113.441 157.793 113.673 158.817 113.673 160.017V167.817H110.961V160.425C110.961 159.241 110.665 158.337 110.073 157.713C109.481 157.073 108.673 156.753 107.649 156.753C106.625 156.753 105.809 157.073 105.201 157.713C104.609 158.337 104.313 159.241 104.313 160.425V167.817H101.577V154.593H104.313V156.105C104.761 155.561 105.329 155.137 106.017 154.833C106.721 154.529 107.465 154.377 108.249 154.377Z" fill="black"/>
<defs>
<clipPath id="clip0_7838_3360">
<rect width="138" height="138" fill="white" transform="translate(0.0209961 0.817139) rotate(-0.141456)"/>
</clipPath>
</defs>
</svg>
