<svg width="291" height="99" viewBox="0 0 291 99" fill="none" xmlns="http://www.w3.org/2000/svg">
<g filter="url(#filter0_d_7756_1334)">
<mask id="path-1-outside-1_7756_1334" maskUnits="userSpaceOnUse" x="14.0977" y="13.835" width="263" height="72" fill="black">
<rect fill="white" x="14.0977" y="13.835" width="263" height="72"/>
<path d="M61.4082 15.835C61.4082 15.835 92.4005 32.9001 59.1225 39.3843V36.808C59.1225 36.808 86.1972 30.0721 61.3453 17.9221L61.4082 15.835Z"/>
<path d="M68.086 25.8106C68.086 25.8106 59.9505 14.8809 39.1033 17.2925C18.2562 19.7041 15.462 30.5127 15.462 30.5127C15.462 30.5127 8.46936 51.4858 55.752 54.6673L55.7859 53.3501C55.7859 53.3501 33.0986 54.1588 21.7525 41.2922C16.3191 34.2366 27.3795 26.7064 31.0017 25.4667C34.624 24.227 46.924 18.8421 65.8003 26.4352L68.086 25.8106Z"/>
<path d="M22.4208 47.3891C22.4208 47.3891 42.406 32.8614 63.2242 41.762C78.4782 48.2946 65.689 63.0692 58.6479 69.3258C56.1997 71.5069 53.4799 73.3625 50.556 74.8463C44.745 77.7518 34.4546 81.7857 25.859 78.7494L26.0479 76.8414C26.0479 76.8414 45.4956 78.8124 59.1274 59.8538C72.7591 40.8952 47.6893 40.9921 47.6893 40.9921C47.6893 40.9921 35.7717 40.7063 23.9608 48.3334L22.4208 47.3891Z"/>
<path d="M35.4134 83.9648C35.4134 83.9648 2.702 85.5144 24.8131 63.3452C25.161 62.9847 25.5937 62.7174 26.0718 62.5676C26.5498 62.4179 27.0578 62.3905 27.5491 62.4881C28.2513 62.643 28.8033 63.0546 28.445 64.057C28.319 64.3891 28.1224 64.6898 27.8687 64.9384C25.4475 67.4033 9.71885 84.265 35.4134 82.4975V83.9648Z"/>
<path d="M79.8097 83.8921C78.6761 83.9115 77.5476 83.7362 76.4732 83.374C75.4353 82.9853 74.5031 82.3583 73.7517 81.5435C72.8579 80.545 72.3347 79.2695 72.2699 77.931C72.146 75.9699 72.2713 74.001 72.6428 72.0715L74.5798 62.9723C74.6344 62.7933 74.6471 62.6041 74.6168 62.4193C74.5866 62.2346 74.5143 62.0593 74.4055 61.907C74.2826 61.7612 74.1266 61.6468 73.9505 61.5735C73.7745 61.5002 73.5834 61.4701 73.3934 61.4857H72.4249L73.0205 58.6673H77.6209C80.9849 58.6673 82.3537 60.1201 81.7274 63.0256L79.6015 73.1175C79.1399 75.2934 79.1899 76.9076 79.7516 77.96C79.9894 78.4465 80.3639 78.8531 80.8292 79.1301C81.2945 79.407 81.8305 79.5423 82.3715 79.5193C83.6241 79.5193 84.8525 78.9592 86.0566 77.839C87.2608 76.7187 88.126 74.9544 88.6523 72.546L90.7297 62.8997C91.0525 61.3824 91.6385 60.3025 92.4875 59.66C93.3366 59.0176 94.6279 58.6947 96.3616 58.6915H98.7829L95.7175 73.1368C95.2559 75.3128 95.314 76.9269 95.8919 77.9794C96.1294 78.4609 96.5004 78.8639 96.9606 79.1403C97.4208 79.4168 97.9508 79.5551 98.4875 79.5387C99.7401 79.5387 100.993 78.8785 102.245 77.5581C103.498 76.2377 104.387 74.3588 104.914 71.9214L106.792 62.9191C107.115 61.434 107.709 60.3622 108.574 59.7036C109.44 59.045 110.742 58.7222 112.482 58.7351H114.831L112.11 71.2482C111.319 74.7489 109.379 77.884 106.599 80.1537C103.693 82.6428 100.09 83.8873 95.7902 83.8873C92.6586 83.8873 90.5812 82.5685 89.5578 79.9309C86.6523 82.5717 83.4029 83.8921 79.8097 83.8921Z"/>
<path d="M121.95 83.3934C120.2 83.3934 118.897 83.0221 118.042 82.2796C117.186 81.5371 116.923 80.4426 117.252 78.9963L120.642 62.9723C120.839 61.9845 120.444 61.4905 119.456 61.4905H118.487L119.083 58.6722H123.063C124.81 58.6722 126.113 59.0434 126.971 59.7859C127.83 60.5285 128.093 61.6084 127.761 63.0256L124.371 79.098C124.206 80.0859 124.602 80.5799 125.557 80.5799H126.526L125.969 83.3934H121.95ZM125.214 55.6456C124.7 55.6715 124.188 55.5752 123.719 55.3648C123.25 55.1543 122.838 54.8357 122.516 54.4349C122.195 54.0239 121.972 53.545 121.865 53.0347C121.758 52.5243 121.768 51.9962 121.896 51.4907C122.139 50.3168 122.787 49.2658 123.727 48.5222C124.615 47.737 125.757 47.2985 126.942 47.2873C127.458 47.2623 127.972 47.3613 128.441 47.5762C128.911 47.7911 129.322 48.1155 129.64 48.5222C129.96 48.9384 130.182 49.4215 130.289 49.9355C130.397 50.4495 130.386 50.9811 130.26 51.4907C129.988 52.6581 129.325 53.6973 128.381 54.4349C127.502 55.201 126.379 55.63 125.214 55.6456Z"/>
<path d="M139.455 83.8922C136.618 83.8922 134.713 82.8284 133.741 80.7009C132.769 78.5734 132.711 75.4823 133.567 71.4275L135.349 62.9191H132.085L132.976 58.6673H136.24L137.475 53.079C137.639 52.0912 137.244 51.5972 136.288 51.5972H135.252L135.896 48.7789H139.901C141.647 48.7789 142.95 49.1501 143.809 49.8926C144.668 50.6352 144.931 51.7151 144.598 53.1323L143.402 58.6577H148.729L147.789 62.9094H142.525L140.55 72.3572C140.024 74.5009 139.843 76.1748 140.007 77.379C140.172 78.5831 140.766 79.1852 141.789 79.1852C143.042 79.1852 144.082 78.4605 144.908 77.0109L146.69 78.0472C147.943 78.8059 147.86 79.8454 146.443 81.1658C145.516 82.0585 144.421 82.759 143.222 83.2269C142.022 83.6948 140.742 83.9209 139.455 83.8922Z"/>
<path d="M162.162 83.9891C158.372 83.9891 155.509 82.8091 153.572 80.4492C151.635 78.0892 151.083 74.9738 151.915 71.103C152.634 67.4206 154.63 64.1104 157.552 61.7569C160.389 59.4074 163.966 58.1379 167.649 58.1734C169.34 58.1357 171.019 58.4661 172.569 59.1419C173.847 59.6706 174.941 60.5652 175.712 61.7133C176.535 63.0047 176.156 64.0265 174.574 64.7787L172.458 65.8343C171.812 63.723 170.295 62.6673 167.906 62.6673C165.874 62.6831 163.932 63.5053 162.506 64.953C160.826 66.605 159.702 68.7394 159.291 71.0595C158.761 73.5647 158.976 75.584 159.935 77.1175C160.894 78.651 162.361 79.4177 164.337 79.4177C166.713 79.4177 168.676 78.362 170.225 76.2507L171.906 77.2918C173.094 78.0828 173.044 79.1223 171.755 80.4104C170.519 81.5358 169.075 82.4092 167.504 82.9818C165.801 83.6452 163.99 83.9867 162.162 83.9891Z"/>
<path d="M177.048 83.3933L184.022 50.5996C184.219 49.6117 183.823 49.1178 182.835 49.1178H181.867L182.462 46.2994H186.467C188.249 46.2994 189.56 46.6707 190.399 47.4132C191.239 48.1557 191.511 49.2356 191.218 50.6529L188.922 61.137C191.182 59.158 193.655 58.1685 196.341 58.1685C199.211 58.1685 201.403 59.0999 202.917 60.9627C204.431 62.8254 204.754 65.8343 203.886 69.9892L201.949 79.0883C201.892 79.2711 201.878 79.4645 201.909 79.6535C201.939 79.8425 202.012 80.0219 202.123 80.1779C202.242 80.3149 202.392 80.4222 202.56 80.4911C202.728 80.5601 202.91 80.5888 203.092 80.575H204.128L203.532 83.3933H198.883C195.552 83.3933 194.183 81.9261 194.777 78.9915L196.903 69.0981C197.397 66.8899 197.314 65.2419 196.656 64.1539C196.374 63.6444 195.958 63.2224 195.452 62.9345C194.946 62.6465 194.371 62.5038 193.789 62.522C192.347 62.5688 190.967 63.1207 189.891 64.0813C188.579 65.1895 187.696 66.7205 187.392 68.4105L185.116 79.1949C184.793 80.6767 184.199 81.7485 183.334 82.4103C182.469 83.0721 181.177 83.395 179.46 83.3788L177.048 83.3933Z"/>
<path d="M213.45 83.3934C211.7 83.3934 210.397 83.0221 209.542 82.2796C208.686 81.5371 208.423 80.4426 208.753 78.9963L212.142 62.9723C212.339 61.9845 211.944 61.4905 210.956 61.4905H209.987L210.583 58.6722H214.588C216.334 58.6722 217.637 59.0434 218.496 59.7859C219.354 60.5285 219.618 61.6051 219.285 63.0159L215.895 79.0884C215.731 80.0762 216.126 80.5702 217.082 80.5702H218.05L217.455 83.3885L213.45 83.3934ZM216.714 55.6456C216.2 55.6715 215.688 55.5752 215.219 55.3648C214.75 55.1543 214.338 54.8357 214.016 54.4349C213.695 54.0239 213.473 53.545 213.365 53.0347C213.258 52.5243 213.268 51.9962 213.396 51.4907C213.639 50.3168 214.287 49.2658 215.227 48.5222C216.115 47.737 217.257 47.2985 218.442 47.2873C218.958 47.2623 219.472 47.3613 219.941 47.5762C220.411 47.7911 220.822 48.1155 221.14 48.5222C221.46 48.9384 221.682 49.4215 221.789 49.9355C221.897 50.4495 221.886 50.9811 221.76 51.4907C221.488 52.6581 220.825 53.6973 219.881 54.4349C219.002 55.201 217.879 55.63 216.714 55.6456Z"/>
<path d="M230.021 83.8921C223.987 83.8921 221.793 80.0342 223.44 72.3184L225.42 62.9723C225.475 62.7933 225.488 62.6041 225.457 62.4193C225.427 62.2346 225.355 62.0593 225.246 61.907C225.123 61.7611 224.967 61.6468 224.791 61.5735C224.615 61.5002 224.424 61.4701 224.234 61.4857H223.265L223.837 58.6576H228.437C231.801 58.6576 233.17 60.1104 232.544 63.0159L230.369 73.2531C229.511 77.3079 230.038 79.3353 231.953 79.3353C233.932 79.3353 236.03 78.2796 238.248 76.1683C240.326 74.2623 241.892 71.8643 242.8 69.195C243.204 67.9154 243.405 66.5804 243.396 65.2386C243.375 64.0561 243.508 62.8758 243.793 61.7278C244.338 59.681 245.765 58.6576 248.074 58.6576H250.597L249.706 62.4687C249.132 65.1123 248.245 67.6777 247.062 70.1102C245.889 72.5492 244.445 74.8479 242.757 76.9625C241.149 78.9926 239.168 80.697 236.921 81.9842C234.83 83.2184 232.449 83.8768 230.021 83.8921Z"/>
<path d="M260.045 83.9889C256.251 83.9889 253.391 82.7944 251.464 80.4054C249.536 78.0164 248.984 74.893 249.807 71.0351C250.574 67.4081 252.555 64.1515 255.424 61.8039C258.293 59.4563 261.878 58.1583 265.584 58.1248C267.586 58.0971 269.562 58.5822 271.323 59.534C272.852 60.3948 274.046 61.746 274.713 63.3693C275.404 64.9835 275.165 66.5977 273.996 68.2119C272.827 69.826 270.682 70.9996 267.56 71.7324L256.829 74.4006C256.868 75.8097 257.453 77.1485 258.461 78.1342C259.498 79.0386 260.844 79.5086 262.219 79.4466C264.03 79.4754 265.814 79.001 267.371 78.0761C268.749 77.2774 269.952 76.2084 270.906 74.9333L272.538 75.9696C273.759 76.7283 273.709 77.7678 272.388 79.0882C270.865 80.5218 269.107 81.6846 267.192 82.5264C264.944 83.527 262.505 84.026 260.045 83.9889ZM257.323 70.3377L264.199 68.6041C265.473 68.333 266.676 67.8022 267.735 67.0448C268.102 66.7995 268.387 66.4481 268.551 66.0373C268.714 65.6264 268.749 65.1756 268.65 64.7446C268.582 64.4153 268.443 64.105 268.242 63.8355C268.042 63.566 267.784 63.344 267.488 63.1853C266.819 62.8011 266.06 62.6053 265.289 62.6187C263.739 62.6187 262.182 63.3273 260.616 64.7446C258.996 66.248 257.852 68.1922 257.323 70.3377Z"/>
</mask>
<path d="M61.4082 15.835C61.4082 15.835 92.4005 32.9001 59.1225 39.3843V36.808C59.1225 36.808 86.1972 30.0721 61.3453 17.9221L61.4082 15.835Z" fill="#224191"/>
<path d="M68.086 25.8106C68.086 25.8106 59.9505 14.8809 39.1033 17.2925C18.2562 19.7041 15.462 30.5127 15.462 30.5127C15.462 30.5127 8.46936 51.4858 55.752 54.6673L55.7859 53.3501C55.7859 53.3501 33.0986 54.1588 21.7525 41.2922C16.3191 34.2366 27.3795 26.7064 31.0017 25.4667C34.624 24.227 46.924 18.8421 65.8003 26.4352L68.086 25.8106Z" fill="#224191"/>
<path d="M22.4208 47.3891C22.4208 47.3891 42.406 32.8614 63.2242 41.762C78.4782 48.2946 65.689 63.0692 58.6479 69.3258C56.1997 71.5069 53.4799 73.3625 50.556 74.8463C44.745 77.7518 34.4546 81.7857 25.859 78.7494L26.0479 76.8414C26.0479 76.8414 45.4956 78.8124 59.1274 59.8538C72.7591 40.8952 47.6893 40.9921 47.6893 40.9921C47.6893 40.9921 35.7717 40.7063 23.9608 48.3334L22.4208 47.3891Z" fill="#EC2326"/>
<path d="M35.4134 83.9648C35.4134 83.9648 2.702 85.5144 24.8131 63.3452C25.161 62.9847 25.5937 62.7174 26.0718 62.5676C26.5498 62.4179 27.0578 62.3905 27.5491 62.4881C28.2513 62.643 28.8033 63.0546 28.445 64.057C28.319 64.3891 28.1224 64.6898 27.8687 64.9384C25.4475 67.4033 9.71885 84.265 35.4134 82.4975V83.9648Z" fill="#EC2326"/>
<path d="M79.8097 83.8921C78.6761 83.9115 77.5476 83.7362 76.4732 83.374C75.4353 82.9853 74.5031 82.3583 73.7517 81.5435C72.8579 80.545 72.3347 79.2695 72.2699 77.931C72.146 75.9699 72.2713 74.001 72.6428 72.0715L74.5798 62.9723C74.6344 62.7933 74.6471 62.6041 74.6168 62.4193C74.5866 62.2346 74.5143 62.0593 74.4055 61.907C74.2826 61.7612 74.1266 61.6468 73.9505 61.5735C73.7745 61.5002 73.5834 61.4701 73.3934 61.4857H72.4249L73.0205 58.6673H77.6209C80.9849 58.6673 82.3537 60.1201 81.7274 63.0256L79.6015 73.1175C79.1399 75.2934 79.1899 76.9076 79.7516 77.96C79.9894 78.4465 80.3639 78.8531 80.8292 79.1301C81.2945 79.407 81.8305 79.5423 82.3715 79.5193C83.6241 79.5193 84.8525 78.9592 86.0566 77.839C87.2608 76.7187 88.126 74.9544 88.6523 72.546L90.7297 62.8997C91.0525 61.3824 91.6385 60.3025 92.4875 59.66C93.3366 59.0176 94.6279 58.6947 96.3616 58.6915H98.7829L95.7175 73.1368C95.2559 75.3128 95.314 76.9269 95.8919 77.9794C96.1294 78.4609 96.5004 78.8639 96.9606 79.1403C97.4208 79.4168 97.9508 79.5551 98.4875 79.5387C99.7401 79.5387 100.993 78.8785 102.245 77.5581C103.498 76.2377 104.387 74.3588 104.914 71.9214L106.792 62.9191C107.115 61.434 107.709 60.3622 108.574 59.7036C109.44 59.045 110.742 58.7222 112.482 58.7351H114.831L112.11 71.2482C111.319 74.7489 109.379 77.884 106.599 80.1537C103.693 82.6428 100.09 83.8873 95.7902 83.8873C92.6586 83.8873 90.5812 82.5685 89.5578 79.9309C86.6523 82.5717 83.4029 83.8921 79.8097 83.8921Z" fill="#224191"/>
<path d="M121.95 83.3934C120.2 83.3934 118.897 83.0221 118.042 82.2796C117.186 81.5371 116.923 80.4426 117.252 78.9963L120.642 62.9723C120.839 61.9845 120.444 61.4905 119.456 61.4905H118.487L119.083 58.6722H123.063C124.81 58.6722 126.113 59.0434 126.971 59.7859C127.83 60.5285 128.093 61.6084 127.761 63.0256L124.371 79.098C124.206 80.0859 124.602 80.5799 125.557 80.5799H126.526L125.969 83.3934H121.95ZM125.214 55.6456C124.7 55.6715 124.188 55.5752 123.719 55.3648C123.25 55.1543 122.838 54.8357 122.516 54.4349C122.195 54.0239 121.972 53.545 121.865 53.0347C121.758 52.5243 121.768 51.9962 121.896 51.4907C122.139 50.3168 122.787 49.2658 123.727 48.5222C124.615 47.737 125.757 47.2985 126.942 47.2873C127.458 47.2623 127.972 47.3613 128.441 47.5762C128.911 47.7911 129.322 48.1155 129.64 48.5222C129.96 48.9384 130.182 49.4215 130.289 49.9355C130.397 50.4495 130.386 50.9811 130.26 51.4907C129.988 52.6581 129.325 53.6973 128.381 54.4349C127.502 55.201 126.379 55.63 125.214 55.6456Z" fill="#224191"/>
<path d="M139.455 83.8922C136.618 83.8922 134.713 82.8284 133.741 80.7009C132.769 78.5734 132.711 75.4823 133.567 71.4275L135.349 62.9191H132.085L132.976 58.6673H136.24L137.475 53.079C137.639 52.0912 137.244 51.5972 136.288 51.5972H135.252L135.896 48.7789H139.901C141.647 48.7789 142.95 49.1501 143.809 49.8926C144.668 50.6352 144.931 51.7151 144.598 53.1323L143.402 58.6577H148.729L147.789 62.9094H142.525L140.55 72.3572C140.024 74.5009 139.843 76.1748 140.007 77.379C140.172 78.5831 140.766 79.1852 141.789 79.1852C143.042 79.1852 144.082 78.4605 144.908 77.0109L146.69 78.0472C147.943 78.8059 147.86 79.8454 146.443 81.1658C145.516 82.0585 144.421 82.759 143.222 83.2269C142.022 83.6948 140.742 83.9209 139.455 83.8922Z" fill="#224191"/>
<path d="M162.162 83.9891C158.372 83.9891 155.509 82.8091 153.572 80.4492C151.635 78.0892 151.083 74.9738 151.915 71.103C152.634 67.4206 154.63 64.1104 157.552 61.7569C160.389 59.4074 163.966 58.1379 167.649 58.1734C169.34 58.1357 171.019 58.4661 172.569 59.1419C173.847 59.6706 174.941 60.5652 175.712 61.7133C176.535 63.0047 176.156 64.0265 174.574 64.7787L172.458 65.8343C171.812 63.723 170.295 62.6673 167.906 62.6673C165.874 62.6831 163.932 63.5053 162.506 64.953C160.826 66.605 159.702 68.7394 159.291 71.0595C158.761 73.5647 158.976 75.584 159.935 77.1175C160.894 78.651 162.361 79.4177 164.337 79.4177C166.713 79.4177 168.676 78.362 170.225 76.2507L171.906 77.2918C173.094 78.0828 173.044 79.1223 171.755 80.4104C170.519 81.5358 169.075 82.4092 167.504 82.9818C165.801 83.6452 163.99 83.9867 162.162 83.9891Z" fill="#224191"/>
<path d="M177.048 83.3933L184.022 50.5996C184.219 49.6117 183.823 49.1178 182.835 49.1178H181.867L182.462 46.2994H186.467C188.249 46.2994 189.56 46.6707 190.399 47.4132C191.239 48.1557 191.511 49.2356 191.218 50.6529L188.922 61.137C191.182 59.158 193.655 58.1685 196.341 58.1685C199.211 58.1685 201.403 59.0999 202.917 60.9627C204.431 62.8254 204.754 65.8343 203.886 69.9892L201.949 79.0883C201.892 79.2711 201.878 79.4645 201.909 79.6535C201.939 79.8425 202.012 80.0219 202.123 80.1779C202.242 80.3149 202.392 80.4222 202.56 80.4911C202.728 80.5601 202.91 80.5888 203.092 80.575H204.128L203.532 83.3933H198.883C195.552 83.3933 194.183 81.9261 194.777 78.9915L196.903 69.0981C197.397 66.8899 197.314 65.2419 196.656 64.1539C196.374 63.6444 195.958 63.2224 195.452 62.9345C194.946 62.6465 194.371 62.5038 193.789 62.522C192.347 62.5688 190.967 63.1207 189.891 64.0813C188.579 65.1895 187.696 66.7205 187.392 68.4105L185.116 79.1949C184.793 80.6767 184.199 81.7485 183.334 82.4103C182.469 83.0721 181.177 83.395 179.46 83.3788L177.048 83.3933Z" fill="#224191"/>
<path d="M213.45 83.3934C211.7 83.3934 210.397 83.0221 209.542 82.2796C208.686 81.5371 208.423 80.4426 208.753 78.9963L212.142 62.9723C212.339 61.9845 211.944 61.4905 210.956 61.4905H209.987L210.583 58.6722H214.588C216.334 58.6722 217.637 59.0434 218.496 59.7859C219.354 60.5285 219.618 61.6051 219.285 63.0159L215.895 79.0884C215.731 80.0762 216.126 80.5702 217.082 80.5702H218.05L217.455 83.3885L213.45 83.3934ZM216.714 55.6456C216.2 55.6715 215.688 55.5752 215.219 55.3648C214.75 55.1543 214.338 54.8357 214.016 54.4349C213.695 54.0239 213.473 53.545 213.365 53.0347C213.258 52.5243 213.268 51.9962 213.396 51.4907C213.639 50.3168 214.287 49.2658 215.227 48.5222C216.115 47.737 217.257 47.2985 218.442 47.2873C218.958 47.2623 219.472 47.3613 219.941 47.5762C220.411 47.7911 220.822 48.1155 221.14 48.5222C221.46 48.9384 221.682 49.4215 221.789 49.9355C221.897 50.4495 221.886 50.9811 221.76 51.4907C221.488 52.6581 220.825 53.6973 219.881 54.4349C219.002 55.201 217.879 55.63 216.714 55.6456Z" fill="#224191"/>
<path d="M230.021 83.8921C223.987 83.8921 221.793 80.0342 223.44 72.3184L225.42 62.9723C225.475 62.7933 225.488 62.6041 225.457 62.4193C225.427 62.2346 225.355 62.0593 225.246 61.907C225.123 61.7611 224.967 61.6468 224.791 61.5735C224.615 61.5002 224.424 61.4701 224.234 61.4857H223.265L223.837 58.6576H228.437C231.801 58.6576 233.17 60.1104 232.544 63.0159L230.369 73.2531C229.511 77.3079 230.038 79.3353 231.953 79.3353C233.932 79.3353 236.03 78.2796 238.248 76.1683C240.326 74.2623 241.892 71.8643 242.8 69.195C243.204 67.9154 243.405 66.5804 243.396 65.2386C243.375 64.0561 243.508 62.8758 243.793 61.7278C244.338 59.681 245.765 58.6576 248.074 58.6576H250.597L249.706 62.4687C249.132 65.1123 248.245 67.6777 247.062 70.1102C245.889 72.5492 244.445 74.8479 242.757 76.9625C241.149 78.9926 239.168 80.697 236.921 81.9842C234.83 83.2184 232.449 83.8768 230.021 83.8921Z" fill="#224191"/>
<path d="M260.045 83.9889C256.251 83.9889 253.391 82.7944 251.464 80.4054C249.536 78.0164 248.984 74.893 249.807 71.0351C250.574 67.4081 252.555 64.1515 255.424 61.8039C258.293 59.4563 261.878 58.1583 265.584 58.1248C267.586 58.0971 269.562 58.5822 271.323 59.534C272.852 60.3948 274.046 61.746 274.713 63.3693C275.404 64.9835 275.165 66.5977 273.996 68.2119C272.827 69.826 270.682 70.9996 267.56 71.7324L256.829 74.4006C256.868 75.8097 257.453 77.1485 258.461 78.1342C259.498 79.0386 260.844 79.5086 262.219 79.4466C264.03 79.4754 265.814 79.001 267.371 78.0761C268.749 77.2774 269.952 76.2084 270.906 74.9333L272.538 75.9696C273.759 76.7283 273.709 77.7678 272.388 79.0882C270.865 80.5218 269.107 81.6846 267.192 82.5264C264.944 83.527 262.505 84.026 260.045 83.9889ZM257.323 70.3377L264.199 68.6041C265.473 68.333 266.676 67.8022 267.735 67.0448C268.102 66.7995 268.387 66.4481 268.551 66.0373C268.714 65.6264 268.749 65.1756 268.65 64.7446C268.582 64.4153 268.443 64.105 268.242 63.8355C268.042 63.566 267.784 63.344 267.488 63.1853C266.819 62.8011 266.06 62.6053 265.289 62.6187C263.739 62.6187 262.182 63.3273 260.616 64.7446C258.996 66.248 257.852 68.1922 257.323 70.3377Z" fill="#224191"/>
<path d="M61.4082 15.835C61.4082 15.835 92.4005 32.9001 59.1225 39.3843V36.808C59.1225 36.808 86.1972 30.0721 61.3453 17.9221L61.4082 15.835Z" stroke="white" stroke-width="2" mask="url(#path-1-outside-1_7756_1334)"/>
<path d="M68.086 25.8106C68.086 25.8106 59.9505 14.8809 39.1033 17.2925C18.2562 19.7041 15.462 30.5127 15.462 30.5127C15.462 30.5127 8.46936 51.4858 55.752 54.6673L55.7859 53.3501C55.7859 53.3501 33.0986 54.1588 21.7525 41.2922C16.3191 34.2366 27.3795 26.7064 31.0017 25.4667C34.624 24.227 46.924 18.8421 65.8003 26.4352L68.086 25.8106Z" stroke="white" stroke-width="2" mask="url(#path-1-outside-1_7756_1334)"/>
<path d="M22.4208 47.3891C22.4208 47.3891 42.406 32.8614 63.2242 41.762C78.4782 48.2946 65.689 63.0692 58.6479 69.3258C56.1997 71.5069 53.4799 73.3625 50.556 74.8463C44.745 77.7518 34.4546 81.7857 25.859 78.7494L26.0479 76.8414C26.0479 76.8414 45.4956 78.8124 59.1274 59.8538C72.7591 40.8952 47.6893 40.9921 47.6893 40.9921C47.6893 40.9921 35.7717 40.7063 23.9608 48.3334L22.4208 47.3891Z" stroke="white" stroke-width="2" mask="url(#path-1-outside-1_7756_1334)"/>
<path d="M35.4134 83.9648C35.4134 83.9648 2.702 85.5144 24.8131 63.3452C25.161 62.9847 25.5937 62.7174 26.0718 62.5676C26.5498 62.4179 27.0578 62.3905 27.5491 62.4881C28.2513 62.643 28.8033 63.0546 28.445 64.057C28.319 64.3891 28.1224 64.6898 27.8687 64.9384C25.4475 67.4033 9.71885 84.265 35.4134 82.4975V83.9648Z" stroke="white" stroke-width="2" mask="url(#path-1-outside-1_7756_1334)"/>
<path d="M79.8097 83.8921C78.6761 83.9115 77.5476 83.7362 76.4732 83.374C75.4353 82.9853 74.5031 82.3583 73.7517 81.5435C72.8579 80.545 72.3347 79.2695 72.2699 77.931C72.146 75.9699 72.2713 74.001 72.6428 72.0715L74.5798 62.9723C74.6344 62.7933 74.6471 62.6041 74.6168 62.4193C74.5866 62.2346 74.5143 62.0593 74.4055 61.907C74.2826 61.7612 74.1266 61.6468 73.9505 61.5735C73.7745 61.5002 73.5834 61.4701 73.3934 61.4857H72.4249L73.0205 58.6673H77.6209C80.9849 58.6673 82.3537 60.1201 81.7274 63.0256L79.6015 73.1175C79.1399 75.2934 79.1899 76.9076 79.7516 77.96C79.9894 78.4465 80.3639 78.8531 80.8292 79.1301C81.2945 79.407 81.8305 79.5423 82.3715 79.5193C83.6241 79.5193 84.8525 78.9592 86.0566 77.839C87.2608 76.7187 88.126 74.9544 88.6523 72.546L90.7297 62.8997C91.0525 61.3824 91.6385 60.3025 92.4875 59.66C93.3366 59.0176 94.6279 58.6947 96.3616 58.6915H98.7829L95.7175 73.1368C95.2559 75.3128 95.314 76.9269 95.8919 77.9794C96.1294 78.4609 96.5004 78.8639 96.9606 79.1403C97.4208 79.4168 97.9508 79.5551 98.4875 79.5387C99.7401 79.5387 100.993 78.8785 102.245 77.5581C103.498 76.2377 104.387 74.3588 104.914 71.9214L106.792 62.9191C107.115 61.434 107.709 60.3622 108.574 59.7036C109.44 59.045 110.742 58.7222 112.482 58.7351H114.831L112.11 71.2482C111.319 74.7489 109.379 77.884 106.599 80.1537C103.693 82.6428 100.09 83.8873 95.7902 83.8873C92.6586 83.8873 90.5812 82.5685 89.5578 79.9309C86.6523 82.5717 83.4029 83.8921 79.8097 83.8921Z" stroke="white" stroke-width="2" mask="url(#path-1-outside-1_7756_1334)"/>
<path d="M121.95 83.3934C120.2 83.3934 118.897 83.0221 118.042 82.2796C117.186 81.5371 116.923 80.4426 117.252 78.9963L120.642 62.9723C120.839 61.9845 120.444 61.4905 119.456 61.4905H118.487L119.083 58.6722H123.063C124.81 58.6722 126.113 59.0434 126.971 59.7859C127.83 60.5285 128.093 61.6084 127.761 63.0256L124.371 79.098C124.206 80.0859 124.602 80.5799 125.557 80.5799H126.526L125.969 83.3934H121.95ZM125.214 55.6456C124.7 55.6715 124.188 55.5752 123.719 55.3648C123.25 55.1543 122.838 54.8357 122.516 54.4349C122.195 54.0239 121.972 53.545 121.865 53.0347C121.758 52.5243 121.768 51.9962 121.896 51.4907C122.139 50.3168 122.787 49.2658 123.727 48.5222C124.615 47.737 125.757 47.2985 126.942 47.2873C127.458 47.2623 127.972 47.3613 128.441 47.5762C128.911 47.7911 129.322 48.1155 129.64 48.5222C129.96 48.9384 130.182 49.4215 130.289 49.9355C130.397 50.4495 130.386 50.9811 130.26 51.4907C129.988 52.6581 129.325 53.6973 128.381 54.4349C127.502 55.201 126.379 55.63 125.214 55.6456Z" stroke="white" stroke-width="2" mask="url(#path-1-outside-1_7756_1334)"/>
<path d="M139.455 83.8922C136.618 83.8922 134.713 82.8284 133.741 80.7009C132.769 78.5734 132.711 75.4823 133.567 71.4275L135.349 62.9191H132.085L132.976 58.6673H136.24L137.475 53.079C137.639 52.0912 137.244 51.5972 136.288 51.5972H135.252L135.896 48.7789H139.901C141.647 48.7789 142.95 49.1501 143.809 49.8926C144.668 50.6352 144.931 51.7151 144.598 53.1323L143.402 58.6577H148.729L147.789 62.9094H142.525L140.55 72.3572C140.024 74.5009 139.843 76.1748 140.007 77.379C140.172 78.5831 140.766 79.1852 141.789 79.1852C143.042 79.1852 144.082 78.4605 144.908 77.0109L146.69 78.0472C147.943 78.8059 147.86 79.8454 146.443 81.1658C145.516 82.0585 144.421 82.759 143.222 83.2269C142.022 83.6948 140.742 83.9209 139.455 83.8922Z" stroke="white" stroke-width="2" mask="url(#path-1-outside-1_7756_1334)"/>
<path d="M162.162 83.9891C158.372 83.9891 155.509 82.8091 153.572 80.4492C151.635 78.0892 151.083 74.9738 151.915 71.103C152.634 67.4206 154.63 64.1104 157.552 61.7569C160.389 59.4074 163.966 58.1379 167.649 58.1734C169.34 58.1357 171.019 58.4661 172.569 59.1419C173.847 59.6706 174.941 60.5652 175.712 61.7133C176.535 63.0047 176.156 64.0265 174.574 64.7787L172.458 65.8343C171.812 63.723 170.295 62.6673 167.906 62.6673C165.874 62.6831 163.932 63.5053 162.506 64.953C160.826 66.605 159.702 68.7394 159.291 71.0595C158.761 73.5647 158.976 75.584 159.935 77.1175C160.894 78.651 162.361 79.4177 164.337 79.4177C166.713 79.4177 168.676 78.362 170.225 76.2507L171.906 77.2918C173.094 78.0828 173.044 79.1223 171.755 80.4104C170.519 81.5358 169.075 82.4092 167.504 82.9818C165.801 83.6452 163.99 83.9867 162.162 83.9891Z" stroke="white" stroke-width="2" mask="url(#path-1-outside-1_7756_1334)"/>
<path d="M177.048 83.3933L184.022 50.5996C184.219 49.6117 183.823 49.1178 182.835 49.1178H181.867L182.462 46.2994H186.467C188.249 46.2994 189.56 46.6707 190.399 47.4132C191.239 48.1557 191.511 49.2356 191.218 50.6529L188.922 61.137C191.182 59.158 193.655 58.1685 196.341 58.1685C199.211 58.1685 201.403 59.0999 202.917 60.9627C204.431 62.8254 204.754 65.8343 203.886 69.9892L201.949 79.0883C201.892 79.2711 201.878 79.4645 201.909 79.6535C201.939 79.8425 202.012 80.0219 202.123 80.1779C202.242 80.3149 202.392 80.4222 202.56 80.4911C202.728 80.5601 202.91 80.5888 203.092 80.575H204.128L203.532 83.3933H198.883C195.552 83.3933 194.183 81.9261 194.777 78.9915L196.903 69.0981C197.397 66.8899 197.314 65.2419 196.656 64.1539C196.374 63.6444 195.958 63.2224 195.452 62.9345C194.946 62.6465 194.371 62.5038 193.789 62.522C192.347 62.5688 190.967 63.1207 189.891 64.0813C188.579 65.1895 187.696 66.7205 187.392 68.4105L185.116 79.1949C184.793 80.6767 184.199 81.7485 183.334 82.4103C182.469 83.0721 181.177 83.395 179.46 83.3788L177.048 83.3933Z" stroke="white" stroke-width="2" mask="url(#path-1-outside-1_7756_1334)"/>
<path d="M213.45 83.3934C211.7 83.3934 210.397 83.0221 209.542 82.2796C208.686 81.5371 208.423 80.4426 208.753 78.9963L212.142 62.9723C212.339 61.9845 211.944 61.4905 210.956 61.4905H209.987L210.583 58.6722H214.588C216.334 58.6722 217.637 59.0434 218.496 59.7859C219.354 60.5285 219.618 61.6051 219.285 63.0159L215.895 79.0884C215.731 80.0762 216.126 80.5702 217.082 80.5702H218.05L217.455 83.3885L213.45 83.3934ZM216.714 55.6456C216.2 55.6715 215.688 55.5752 215.219 55.3648C214.75 55.1543 214.338 54.8357 214.016 54.4349C213.695 54.0239 213.473 53.545 213.365 53.0347C213.258 52.5243 213.268 51.9962 213.396 51.4907C213.639 50.3168 214.287 49.2658 215.227 48.5222C216.115 47.737 217.257 47.2985 218.442 47.2873C218.958 47.2623 219.472 47.3613 219.941 47.5762C220.411 47.7911 220.822 48.1155 221.14 48.5222C221.46 48.9384 221.682 49.4215 221.789 49.9355C221.897 50.4495 221.886 50.9811 221.76 51.4907C221.488 52.6581 220.825 53.6973 219.881 54.4349C219.002 55.201 217.879 55.63 216.714 55.6456Z" stroke="white" stroke-width="2" mask="url(#path-1-outside-1_7756_1334)"/>
<path d="M230.021 83.8921C223.987 83.8921 221.793 80.0342 223.44 72.3184L225.42 62.9723C225.475 62.7933 225.488 62.6041 225.457 62.4193C225.427 62.2346 225.355 62.0593 225.246 61.907C225.123 61.7611 224.967 61.6468 224.791 61.5735C224.615 61.5002 224.424 61.4701 224.234 61.4857H223.265L223.837 58.6576H228.437C231.801 58.6576 233.17 60.1104 232.544 63.0159L230.369 73.2531C229.511 77.3079 230.038 79.3353 231.953 79.3353C233.932 79.3353 236.03 78.2796 238.248 76.1683C240.326 74.2623 241.892 71.8643 242.8 69.195C243.204 67.9154 243.405 66.5804 243.396 65.2386C243.375 64.0561 243.508 62.8758 243.793 61.7278C244.338 59.681 245.765 58.6576 248.074 58.6576H250.597L249.706 62.4687C249.132 65.1123 248.245 67.6777 247.062 70.1102C245.889 72.5492 244.445 74.8479 242.757 76.9625C241.149 78.9926 239.168 80.697 236.921 81.9842C234.83 83.2184 232.449 83.8768 230.021 83.8921Z" stroke="white" stroke-width="2" mask="url(#path-1-outside-1_7756_1334)"/>
<path d="M260.045 83.9889C256.251 83.9889 253.391 82.7944 251.464 80.4054C249.536 78.0164 248.984 74.893 249.807 71.0351C250.574 67.4081 252.555 64.1515 255.424 61.8039C258.293 59.4563 261.878 58.1583 265.584 58.1248C267.586 58.0971 269.562 58.5822 271.323 59.534C272.852 60.3948 274.046 61.746 274.713 63.3693C275.404 64.9835 275.165 66.5977 273.996 68.2119C272.827 69.826 270.682 70.9996 267.56 71.7324L256.829 74.4006C256.868 75.8097 257.453 77.1485 258.461 78.1342C259.498 79.0386 260.844 79.5086 262.219 79.4466C264.03 79.4754 265.814 79.001 267.371 78.0761C268.749 77.2774 269.952 76.2084 270.906 74.9333L272.538 75.9696C273.759 76.7283 273.709 77.7678 272.388 79.0882C270.865 80.5218 269.107 81.6846 267.192 82.5264C264.944 83.527 262.505 84.026 260.045 83.9889ZM257.323 70.3377L264.199 68.6041C265.473 68.333 266.676 67.8022 267.735 67.0448C268.102 66.7995 268.387 66.4481 268.551 66.0373C268.714 65.6264 268.749 65.1756 268.65 64.7446C268.582 64.4153 268.443 64.105 268.242 63.8355C268.042 63.566 267.784 63.344 267.488 63.1853C266.819 62.8011 266.06 62.6053 265.289 62.6187C263.739 62.6187 262.182 63.3273 260.616 64.7446C258.996 66.248 257.852 68.1922 257.323 70.3377Z" stroke="white" stroke-width="2" mask="url(#path-1-outside-1_7756_1334)"/>
</g>
<defs>
<filter id="filter0_d_7756_1334" x="0.0976562" y="0.170166" width="290" height="98.8206" filterUnits="userSpaceOnUse" color-interpolation-filters="sRGB">
<feFlood flood-opacity="0" result="BackgroundImageFix"/>
<feColorMatrix in="SourceAlpha" type="matrix" values="0 0 0 0 0 0 0 0 0 0 0 0 0 0 0 0 0 0 127 0" result="hardAlpha"/>
<feOffset/>
<feGaussianBlur stdDeviation="7"/>
<feComposite in2="hardAlpha" operator="out"/>
<feColorMatrix type="matrix" values="0 0 0 0 1 0 0 0 0 1 0 0 0 0 1 0 0 0 1 0"/>
<feBlend mode="normal" in2="BackgroundImageFix" result="effect1_dropShadow_7756_1334"/>
<feBlend mode="normal" in="SourceGraphic" in2="effect1_dropShadow_7756_1334" result="shape"/>
</filter>
</defs>
</svg>
