<svg width="18" height="15" viewBox="0 0 18 15" fill="none" xmlns="http://www.w3.org/2000/svg">
<path d="M16.9408 13.2465L13.7212 10.5731C14.7818 9.47107 15.3659 8.11012 15.3793 6.70908C15.3932 5.46134 14.9584 4.24162 14.1298 3.20416C13.3013 2.1667 12.1162 1.3581 10.7244 0.880614C9.33269 0.403124 7.79679 0.278191 6.31095 0.521613C4.82512 0.765035 3.4561 1.36588 2.377 2.24816C1.29791 3.13045 0.557204 4.25455 0.248564 5.47832C-0.0600755 6.70208 0.077208 7.97055 0.643055 9.12331C1.2089 10.2761 2.1779 11.2614 3.42751 11.9546C4.67711 12.6478 6.15121 13.0178 7.66339 13.0178C9.36134 13.0195 11.0159 12.5501 12.3612 11.6851L15.5712 14.3662C15.6592 14.4402 15.7643 14.4988 15.8803 14.5389C15.9963 14.5789 16.121 14.5995 16.2472 14.5995C16.3733 14.5995 16.4985 14.5789 16.6154 14.5389C16.7323 14.4988 16.8387 14.4402 16.9283 14.3662C17.0187 14.2929 17.0908 14.2057 17.1404 14.1096C17.19 14.0135 17.2161 13.9105 17.2173 13.8064C17.2184 13.7022 17.1946 13.5992 17.1471 13.5031C17.0997 13.407 17.0296 13.3198 16.9408 13.2465ZM1.99937 6.70908C2.00979 5.77327 2.35629 4.85848 2.99505 4.08039C3.6338 3.3023 4.53613 2.69585 5.58792 2.33773C6.63971 1.97961 7.79372 1.88591 8.90403 2.06848C10.0143 2.25105 11.0311 2.70168 11.8257 3.36339C12.6202 4.02511 13.157 4.86818 13.368 5.78601C13.5791 6.70383 13.4549 7.65518 13.0113 8.51975C12.5676 9.38432 11.8244 10.1233 10.8756 10.6432C9.92684 11.1631 8.81508 11.4406 7.68095 11.4406C6.16013 11.4406 4.70714 10.9421 3.64164 10.0548C2.57614 9.16743 1.9854 7.96396 1.99937 6.70908Z" fill="black" fill-opacity="0.3"/>
</svg>
