<svg width="140" height="173" viewBox="0 0 140 173" fill="none" xmlns="http://www.w3.org/2000/svg">
<rect x="0.680664" y="0.817139" width="138" height="138" rx="69" transform="rotate(-0.141456 0.680664 0.817139)" fill="#50AF95"/>
<g clip-path="url(#clip0_7832_1094)">
<path fill-rule="evenodd" clip-rule="evenodd" d="M36.0446 29.4822L16.8611 70.035C16.7881 70.1858 16.7652 70.356 16.7959 70.5208C16.8266 70.6855 16.9092 70.8361 17.0316 70.9506L69.2351 120.728C69.3834 120.869 69.5806 120.948 69.7856 120.947C69.9905 120.947 70.1874 120.867 70.335 120.725L122.292 70.6938C122.414 70.5788 122.496 70.4278 122.526 70.2629C122.555 70.098 122.532 69.9279 122.458 69.7774L103.074 29.3198C103.012 29.1839 102.912 29.0689 102.785 28.9886C102.659 28.9082 102.513 28.8659 102.363 28.8666L36.7601 29.0286C36.6098 29.0271 36.4623 29.0691 36.3353 29.1496C36.2084 29.2301 36.1074 29.3456 36.0446 29.4822Z" fill="white"/>
<path fill-rule="evenodd" clip-rule="evenodd" d="M75.8408 70.8385C75.467 70.8674 73.5355 70.9875 69.2264 70.9981C65.799 71.0066 63.3653 70.9098 62.5115 70.8714C49.2649 70.3214 39.3728 68.0402 39.366 65.2796C39.3592 62.519 49.2399 60.192 62.4836 59.5673L62.5059 68.5751C63.3722 68.6352 65.8527 68.7756 69.2801 68.7671C73.3929 68.7569 75.452 68.5805 75.8227 68.5453L75.8005 59.5407C89.0191 60.0969 98.8893 62.3783 98.8961 65.1326C98.9029 67.887 89.0472 70.217 75.8284 70.8354L75.8408 70.8385ZM75.8106 58.609L75.7907 50.5485L94.2362 50.503L94.2058 38.2112L43.9857 38.3352L44.016 50.6269L62.4583 50.5814L62.4782 58.6388C47.4899 59.3644 36.2243 62.3616 36.2331 65.9198C36.2419 69.478 47.5221 72.4164 62.5138 73.0711L62.5776 98.901L75.9069 98.8681L75.8431 73.0289C90.7972 72.3034 102.044 69.3094 102.035 65.7543C102.027 62.1991 90.7743 59.2607 75.8075 58.6059L75.8106 58.609Z" fill="#50AF95"/>
</g>
<path d="M43.9774 151.137V153.369H39.5374V167.817H36.8014V153.369H32.3374V151.137H43.9774ZM58.8682 160.881C58.8682 161.377 58.8362 161.825 58.7722 162.225H48.6682C48.7482 163.281 49.1402 164.129 49.8442 164.769C50.5482 165.409 51.4122 165.729 52.4362 165.729C53.9082 165.729 54.9482 165.113 55.5562 163.881H58.5082C58.1082 165.097 57.3802 166.097 56.3242 166.881C55.2842 167.649 53.9882 168.033 52.4362 168.033C51.1722 168.033 50.0362 167.753 49.0282 167.193C48.0362 166.617 47.2522 165.817 46.6762 164.793C46.1162 163.753 45.8362 162.553 45.8362 161.193C45.8362 159.833 46.1082 158.641 46.6522 157.617C47.2122 156.577 47.9882 155.777 48.9802 155.217C49.9882 154.657 51.1402 154.377 52.4362 154.377C53.6842 154.377 54.7962 154.649 55.7722 155.193C56.7482 155.737 57.5082 156.505 58.0522 157.497C58.5962 158.473 58.8682 159.601 58.8682 160.881ZM56.0122 160.017C55.9962 159.009 55.6362 158.201 54.9322 157.593C54.2282 156.985 53.3562 156.681 52.3162 156.681C51.3722 156.681 50.5642 156.985 49.8922 157.593C49.2202 158.185 48.8202 158.993 48.6922 160.017H56.0122ZM64.7527 156.825V164.145C64.7527 164.641 64.8647 165.001 65.0887 165.225C65.3287 165.433 65.7287 165.537 66.2887 165.537H67.9687V167.817H65.8087C64.5767 167.817 63.6327 167.529 62.9767 166.953C62.3207 166.377 61.9927 165.441 61.9927 164.145V156.825H60.4327V154.593H61.9927V151.305H64.7527V154.593H67.9687V156.825H64.7527ZM77.3304 154.377C78.3384 154.377 79.2344 154.593 80.0184 155.025C80.8184 155.457 81.4424 156.097 81.8904 156.945C82.3544 157.793 82.5864 158.817 82.5864 160.017V167.817H79.8744V160.425C79.8744 159.241 79.5784 158.337 78.9864 157.713C78.3944 157.073 77.5864 156.753 76.5624 156.753C75.5384 156.753 74.7224 157.073 74.1144 157.713C73.5224 158.337 73.2264 159.241 73.2264 160.425V167.817H70.4904V150.057H73.2264V156.129C73.6904 155.569 74.2744 155.137 74.9784 154.833C75.6984 154.529 76.4824 154.377 77.3304 154.377ZM98.1964 160.881C98.1964 161.377 98.1644 161.825 98.1004 162.225H87.9964C88.0764 163.281 88.4684 164.129 89.1724 164.769C89.8764 165.409 90.7404 165.729 91.7644 165.729C93.2364 165.729 94.2764 165.113 94.8844 163.881H97.8364C97.4364 165.097 96.7084 166.097 95.6524 166.881C94.6124 167.649 93.3164 168.033 91.7644 168.033C90.5004 168.033 89.3644 167.753 88.3564 167.193C87.3644 166.617 86.5804 165.817 86.0044 164.793C85.4444 163.753 85.1644 162.553 85.1644 161.193C85.1644 159.833 85.4364 158.641 85.9804 157.617C86.5404 156.577 87.3164 155.777 88.3084 155.217C89.3164 154.657 90.4684 154.377 91.7644 154.377C93.0124 154.377 94.1244 154.649 95.1004 155.193C96.0764 155.737 96.8364 156.505 97.3804 157.497C97.9244 158.473 98.1964 159.601 98.1964 160.881ZM95.3404 160.017C95.3244 159.009 94.9644 158.201 94.2604 157.593C93.5564 156.985 92.6844 156.681 91.6444 156.681C90.7004 156.681 89.8924 156.985 89.2204 157.593C88.5484 158.185 88.1484 158.993 88.0204 160.017H95.3404ZM103.625 156.513C104.025 155.841 104.553 155.321 105.209 154.953C105.881 154.569 106.673 154.377 107.585 154.377V157.209H106.889C105.817 157.209 105.001 157.481 104.441 158.025C103.897 158.569 103.625 159.513 103.625 160.857V167.817H100.889V154.593H103.625V156.513Z" fill="black"/>
<defs>
<clipPath id="clip0_7832_1094">
<rect width="105.759" height="92" fill="white" transform="translate(16.6807 28.8171) rotate(-0.141456)"/>
</clipPath>
</defs>
</svg>
