<svg width="139" height="173" viewBox="0 0 139 173" fill="none" xmlns="http://www.w3.org/2000/svg">
<rect x="0.345703" y="0.817139" width="138" height="138" rx="69" transform="rotate(-0.141456 0.345703 0.817139)" fill="black"/>
<path d="M113.39 54.4115C108.931 50.3149 102.762 44.0575 97.7384 39.6212L97.4413 39.4143C96.9468 39.0193 96.3897 38.7099 95.793 38.499C83.7019 36.2748 27.4298 25.9 26.3328 26.0361C26.0254 26.08 25.7318 26.1922 25.4735 26.3645L25.1923 26.5876C24.8462 26.9408 24.5838 27.3671 24.4243 27.8352L24.3506 28.0281L24.3532 29.081L24.3536 29.2441C30.7291 46.8601 55.8733 104.557 60.8299 118.098C61.1288 119.017 61.6966 120.766 62.7497 120.852L62.9869 120.851C63.5504 120.85 65.9449 117.671 65.9449 117.671C65.9449 117.671 108.761 65.4854 113.092 59.9287C113.653 59.2441 114.147 58.5081 114.57 57.7303C114.676 57.1224 114.624 56.4971 114.417 55.9155C114.21 55.3339 113.856 54.8158 113.39 54.4115ZM76.8219 60.5669L95.1129 45.322L105.888 55.2012L76.8219 60.5669ZM69.7015 59.5909L38.0817 33.8072L89.1609 43.0975L69.7015 59.5909ZM72.5654 66.3607L104.85 61.076L68.0358 105.654L72.5654 66.3607ZM33.8025 36.398L67.074 64.491L62.3712 105.698L33.8025 36.398Z" fill="#FF060A"/>
<path d="M55.2677 151.137V153.369H50.8277V167.817H48.0917V153.369H43.6277V151.137H55.2677ZM60.7745 156.513C61.1745 155.841 61.7025 155.321 62.3585 154.953C63.0305 154.569 63.8225 154.377 64.7345 154.377V157.209H64.0385C62.9665 157.209 62.1505 157.481 61.5905 158.025C61.0465 158.569 60.7745 159.513 60.7745 160.857V167.817H58.0385V154.593H60.7745V156.513ZM72.9855 168.033C71.7375 168.033 70.6095 167.753 69.6015 167.193C68.5935 166.617 67.8015 165.817 67.2255 164.793C66.6495 163.753 66.3615 162.553 66.3615 161.193C66.3615 159.849 66.6575 158.657 67.2495 157.617C67.8415 156.577 68.6495 155.777 69.6735 155.217C70.6975 154.657 71.8415 154.377 73.1055 154.377C74.3695 154.377 75.5135 154.657 76.5375 155.217C77.5615 155.777 78.3695 156.577 78.9615 157.617C79.5535 158.657 79.8495 159.849 79.8495 161.193C79.8495 162.537 79.5455 163.729 78.9375 164.769C78.3295 165.809 77.4975 166.617 76.4415 167.193C75.4015 167.753 74.2495 168.033 72.9855 168.033ZM72.9855 165.657C73.6895 165.657 74.3455 165.489 74.9535 165.153C75.5775 164.817 76.0815 164.313 76.4655 163.641C76.8495 162.969 77.0415 162.153 77.0415 161.193C77.0415 160.233 76.8575 159.425 76.4895 158.769C76.1215 158.097 75.6335 157.593 75.0255 157.257C74.4175 156.921 73.7615 156.753 73.0575 156.753C72.3535 156.753 71.6975 156.921 71.0895 157.257C70.4975 157.593 70.0255 158.097 69.6735 158.769C69.3215 159.425 69.1455 160.233 69.1455 161.193C69.1455 162.617 69.5055 163.721 70.2255 164.505C70.9615 165.273 71.8815 165.657 72.9855 165.657ZM89.2262 154.377C90.2662 154.377 91.1942 154.593 92.0102 155.025C92.8422 155.457 93.4902 156.097 93.9542 156.945C94.4182 157.793 94.6502 158.817 94.6502 160.017V167.817H91.9382V160.425C91.9382 159.241 91.6422 158.337 91.0502 157.713C90.4582 157.073 89.6502 156.753 88.6262 156.753C87.6022 156.753 86.7862 157.073 86.1782 157.713C85.5862 158.337 85.2902 159.241 85.2902 160.425V167.817H82.5542V154.593H85.2902V156.105C85.7382 155.561 86.3062 155.137 86.9942 154.833C87.6982 154.529 88.4422 154.377 89.2262 154.377Z" fill="black"/>
</svg>
