<svg width="322" height="206" viewBox="0 0 322 206" fill="none" xmlns="http://www.w3.org/2000/svg">
<g clip-path="url(#clip0_7756_2070)">
<rect width="322" height="206" rx="13" fill="#D9D9D9"/>
<path d="M539 185C539 237.467 342.83 304 239 304C135.17 304 -21 313.967 -21 261.5C-21 209.033 174 88.5 379 88.5C467 147 539 132.533 539 185Z" fill="url(#paint0_linear_7756_2070)"/>
<path d="M24.21 68.06V81.02C24.21 82.44 24.58 83.53 25.32 84.29C26.06 85.03 27.1 85.4 28.44 85.4C29.8 85.4 30.85 85.03 31.59 84.29C32.33 83.53 32.7 82.44 32.7 81.02V68.06H36.93V80.99C36.93 82.77 36.54 84.28 35.76 85.52C35 86.74 33.97 87.66 32.67 88.28C31.39 88.9 29.96 89.21 28.38 89.21C26.82 89.21 25.4 88.9 24.12 88.28C22.86 87.66 21.86 86.74 21.12 85.52C20.38 84.28 20.01 82.77 20.01 80.99V68.06H24.21ZM48.218 89.21C46.758 89.21 45.438 88.96 44.258 88.46C43.098 87.96 42.178 87.24 41.498 86.3C40.818 85.36 40.468 84.25 40.448 82.97H44.948C45.008 83.83 45.308 84.51 45.848 85.01C46.408 85.51 47.168 85.76 48.128 85.76C49.108 85.76 49.878 85.53 50.438 85.07C50.998 84.59 51.278 83.97 51.278 83.21C51.278 82.59 51.088 82.08 50.708 81.68C50.328 81.28 49.848 80.97 49.268 80.75C48.708 80.51 47.928 80.25 46.928 79.97C45.568 79.57 44.458 79.18 43.598 78.8C42.758 78.4 42.028 77.81 41.408 77.03C40.808 76.23 40.508 75.17 40.508 73.85C40.508 72.61 40.818 71.53 41.438 70.61C42.058 69.69 42.928 68.99 44.048 68.51C45.168 68.01 46.448 67.76 47.888 67.76C50.048 67.76 51.798 68.29 53.138 69.35C54.498 70.39 55.248 71.85 55.388 73.73H50.768C50.728 73.01 50.418 72.42 49.838 71.96C49.278 71.48 48.528 71.24 47.588 71.24C46.768 71.24 46.108 71.45 45.608 71.87C45.128 72.29 44.888 72.9 44.888 73.7C44.888 74.26 45.068 74.73 45.428 75.11C45.808 75.47 46.268 75.77 46.808 76.01C47.368 76.23 48.148 76.49 49.148 76.79C50.508 77.19 51.618 77.59 52.478 77.99C53.338 78.39 54.078 78.99 54.698 79.79C55.318 80.59 55.628 81.64 55.628 82.94C55.628 84.06 55.338 85.1 54.758 86.06C54.178 87.02 53.328 87.79 52.208 88.37C51.088 88.93 49.758 89.21 48.218 89.21ZM66.5892 68.06C68.7892 68.06 70.7192 68.49 72.3792 69.35C74.0592 70.21 75.3492 71.44 76.2492 73.04C77.1692 74.62 77.6292 76.46 77.6292 78.56C77.6292 80.66 77.1692 82.5 76.2492 84.08C75.3492 85.64 74.0592 86.85 72.3792 87.71C70.7192 88.57 68.7892 89 66.5892 89H59.2692V68.06H66.5892ZM66.4392 85.43C68.6392 85.43 70.3392 84.83 71.5392 83.63C72.7392 82.43 73.3392 80.74 73.3392 78.56C73.3392 76.38 72.7392 74.68 71.5392 73.46C70.3392 72.22 68.6392 71.6 66.4392 71.6H63.4692V85.43H66.4392ZM102.502 74.36C102.022 73.48 101.362 72.81 100.522 72.35C99.6816 71.89 98.7016 71.66 97.5816 71.66C96.3416 71.66 95.2416 71.94 94.2816 72.5C93.3216 73.06 92.5716 73.86 92.0316 74.9C91.4916 75.94 91.2216 77.14 91.2216 78.5C91.2216 79.9 91.4916 81.12 92.0316 82.16C92.5916 83.2 93.3616 84 94.3416 84.56C95.3216 85.12 96.4616 85.4 97.7616 85.4C99.3616 85.4 100.672 84.98 101.692 84.14C102.712 83.28 103.382 82.09 103.702 80.57H96.5016V77.36H107.842V81.02C107.562 82.48 106.962 83.83 106.042 85.07C105.122 86.31 103.932 87.31 102.472 88.07C101.032 88.81 99.4116 89.18 97.6116 89.18C95.5916 89.18 93.7616 88.73 92.1216 87.83C90.5016 86.91 89.2216 85.64 88.2816 84.02C87.3616 82.4 86.9016 80.56 86.9016 78.5C86.9016 76.44 87.3616 74.6 88.2816 72.98C89.2216 71.34 90.5016 70.07 92.1216 69.17C93.7616 68.25 95.5816 67.79 97.5816 67.79C99.9416 67.79 101.992 68.37 103.732 69.53C105.472 70.67 106.672 72.28 107.332 74.36H102.502ZM115.149 68.06V89H110.949V68.06H115.149ZM132.229 68.06V71.45H123.499V76.82H130.189V80.15H123.499V89H119.299V68.06H132.229ZM149.457 68.06V71.45H143.877V89H139.677V71.45H134.097V68.06H149.457ZM158.65 78.5C158.65 76.44 159.11 74.6 160.03 72.98C160.97 71.34 162.24 70.07 163.84 69.17C165.46 68.25 167.27 67.79 169.27 67.79C171.61 67.79 173.66 68.39 175.42 69.59C177.18 70.79 178.41 72.45 179.11 74.57H174.28C173.8 73.57 173.12 72.82 172.24 72.32C171.38 71.82 170.38 71.57 169.24 71.57C168.02 71.57 166.93 71.86 165.97 72.44C165.03 73 164.29 73.8 163.75 74.84C163.23 75.88 162.97 77.1 162.97 78.5C162.97 79.88 163.23 81.1 163.75 82.16C164.29 83.2 165.03 84.01 165.97 84.59C166.93 85.15 168.02 85.43 169.24 85.43C170.38 85.43 171.38 85.18 172.24 84.68C173.12 84.16 173.8 83.4 174.28 82.4H179.11C178.41 84.54 177.18 86.21 175.42 87.41C173.68 88.59 171.63 89.18 169.27 89.18C167.27 89.18 165.46 88.73 163.84 87.83C162.24 86.91 160.97 85.64 160.03 84.02C159.11 82.4 158.65 80.56 158.65 78.5ZM195.537 85.01H187.197L185.817 89H181.407L188.937 68.03H193.827L201.357 89H196.917L195.537 85.01ZM194.397 81.65L191.367 72.89L188.337 81.65H194.397ZM214.972 89L210.352 80.84H208.372V89H204.172V68.06H212.032C213.652 68.06 215.032 68.35 216.172 68.93C217.312 69.49 218.162 70.26 218.722 71.24C219.302 72.2 219.592 73.28 219.592 74.48C219.592 75.86 219.192 77.11 218.392 78.23C217.592 79.33 216.402 80.09 214.822 80.51L219.832 89H214.972ZM208.372 77.69H211.882C213.022 77.69 213.872 77.42 214.432 76.88C214.992 76.32 215.272 75.55 215.272 74.57C215.272 73.61 214.992 72.87 214.432 72.35C213.872 71.81 213.022 71.54 211.882 71.54H208.372V77.69ZM230.71 68.06C232.91 68.06 234.84 68.49 236.5 69.35C238.18 70.21 239.47 71.44 240.37 73.04C241.29 74.62 241.75 76.46 241.75 78.56C241.75 80.66 241.29 82.5 240.37 84.08C239.47 85.64 238.18 86.85 236.5 87.71C234.84 88.57 232.91 89 230.71 89H223.39V68.06H230.71ZM230.56 85.43C232.76 85.43 234.46 84.83 235.66 83.63C236.86 82.43 237.46 80.74 237.46 78.56C237.46 76.38 236.86 74.68 235.66 73.46C234.46 72.22 232.76 71.6 230.56 71.6H227.59V85.43H230.56Z" fill="black"/>
<path d="M163.898 171.228V177.276C163.898 177.939 164.071 178.447 164.416 178.802C164.761 179.147 165.247 179.32 165.872 179.32C166.507 179.32 166.997 179.147 167.342 178.802C167.687 178.447 167.86 177.939 167.86 177.276V171.228H169.834V177.262C169.834 178.093 169.652 178.797 169.288 179.376C168.933 179.945 168.453 180.375 167.846 180.664C167.249 180.953 166.581 181.098 165.844 181.098C165.116 181.098 164.453 180.953 163.856 180.664C163.268 180.375 162.801 179.945 162.456 179.376C162.111 178.797 161.938 178.093 161.938 177.262V171.228H163.898ZM176.026 173.132C176.95 173.132 177.696 173.426 178.266 174.014C178.835 174.593 179.12 175.405 179.12 176.45V181H177.16V176.716C177.16 176.1 177.006 175.629 176.698 175.302C176.39 174.966 175.97 174.798 175.438 174.798C174.896 174.798 174.467 174.966 174.15 175.302C173.842 175.629 173.688 176.1 173.688 176.716V181H171.728V173.244H173.688V174.21C173.949 173.874 174.28 173.613 174.682 173.426C175.092 173.23 175.54 173.132 176.026 173.132ZM181.978 172.32C181.632 172.32 181.343 172.213 181.11 171.998C180.886 171.774 180.774 171.499 180.774 171.172C180.774 170.845 180.886 170.575 181.11 170.36C181.343 170.136 181.632 170.024 181.978 170.024C182.323 170.024 182.608 170.136 182.832 170.36C183.065 170.575 183.182 170.845 183.182 171.172C183.182 171.499 183.065 171.774 182.832 171.998C182.608 172.213 182.323 172.32 181.978 172.32ZM182.944 173.244V181H180.984V173.244H182.944ZM187.162 174.854V178.606C187.162 178.867 187.223 179.059 187.344 179.18C187.475 179.292 187.689 179.348 187.988 179.348H188.898V181H187.666C186.014 181 185.188 180.197 185.188 178.592V174.854H184.264V173.244H185.188V171.326H187.162V173.244H188.898V174.854H187.162ZM197.518 176.954C197.518 177.234 197.499 177.486 197.462 177.71H191.792C191.838 178.27 192.034 178.709 192.38 179.026C192.725 179.343 193.15 179.502 193.654 179.502C194.382 179.502 194.9 179.189 195.208 178.564H197.322C197.098 179.311 196.668 179.927 196.034 180.412C195.399 180.888 194.62 181.126 193.696 181.126C192.949 181.126 192.277 180.963 191.68 180.636C191.092 180.3 190.63 179.829 190.294 179.222C189.967 178.615 189.804 177.915 189.804 177.122C189.804 176.319 189.967 175.615 190.294 175.008C190.62 174.401 191.078 173.935 191.666 173.608C192.254 173.281 192.93 173.118 193.696 173.118C194.433 173.118 195.091 173.277 195.67 173.594C196.258 173.911 196.71 174.364 197.028 174.952C197.354 175.531 197.518 176.198 197.518 176.954ZM195.488 176.394C195.478 175.89 195.296 175.489 194.942 175.19C194.587 174.882 194.153 174.728 193.64 174.728C193.154 174.728 192.744 174.877 192.408 175.176C192.081 175.465 191.88 175.871 191.806 176.394H195.488ZM198.444 177.094C198.444 176.31 198.598 175.615 198.906 175.008C199.224 174.401 199.653 173.935 200.194 173.608C200.736 173.281 201.338 173.118 202 173.118C202.504 173.118 202.985 173.23 203.442 173.454C203.9 173.669 204.264 173.958 204.534 174.322V170.64H206.522V181H204.534V179.852C204.292 180.235 203.951 180.543 203.512 180.776C203.074 181.009 202.565 181.126 201.986 181.126C201.333 181.126 200.736 180.958 200.194 180.622C199.653 180.286 199.224 179.815 198.906 179.208C198.598 178.592 198.444 177.887 198.444 177.094ZM204.548 177.122C204.548 176.646 204.455 176.24 204.268 175.904C204.082 175.559 203.83 175.297 203.512 175.12C203.195 174.933 202.854 174.84 202.49 174.84C202.126 174.84 201.79 174.929 201.482 175.106C201.174 175.283 200.922 175.545 200.726 175.89C200.54 176.226 200.446 176.627 200.446 177.094C200.446 177.561 200.54 177.971 200.726 178.326C200.922 178.671 201.174 178.937 201.482 179.124C201.8 179.311 202.136 179.404 202.49 179.404C202.854 179.404 203.195 179.315 203.512 179.138C203.83 178.951 204.082 178.69 204.268 178.354C204.455 178.009 204.548 177.598 204.548 177.122ZM215.147 181.098C214.465 181.098 213.849 180.981 213.299 180.748C212.757 180.515 212.328 180.179 212.011 179.74C211.693 179.301 211.53 178.783 211.521 178.186H213.621C213.649 178.587 213.789 178.905 214.041 179.138C214.302 179.371 214.657 179.488 215.105 179.488C215.562 179.488 215.921 179.381 216.183 179.166C216.444 178.942 216.575 178.653 216.575 178.298C216.575 178.009 216.486 177.771 216.309 177.584C216.131 177.397 215.907 177.253 215.637 177.15C215.375 177.038 215.011 176.917 214.545 176.786C213.91 176.599 213.392 176.417 212.991 176.24C212.599 176.053 212.258 175.778 211.969 175.414C211.689 175.041 211.549 174.546 211.549 173.93C211.549 173.351 211.693 172.847 211.983 172.418C212.272 171.989 212.678 171.662 213.201 171.438C213.723 171.205 214.321 171.088 214.993 171.088C216.001 171.088 216.817 171.335 217.443 171.83C218.077 172.315 218.427 172.997 218.493 173.874H216.337C216.318 173.538 216.173 173.263 215.903 173.048C215.641 172.824 215.291 172.712 214.853 172.712C214.47 172.712 214.162 172.81 213.929 173.006C213.705 173.202 213.593 173.487 213.593 173.86C213.593 174.121 213.677 174.341 213.845 174.518C214.022 174.686 214.237 174.826 214.489 174.938C214.75 175.041 215.114 175.162 215.581 175.302C216.215 175.489 216.733 175.675 217.135 175.862C217.536 176.049 217.881 176.329 218.171 176.702C218.46 177.075 218.605 177.565 218.605 178.172C218.605 178.695 218.469 179.18 218.199 179.628C217.928 180.076 217.531 180.435 217.009 180.706C216.486 180.967 215.865 181.098 215.147 181.098ZM222.586 174.854V178.606C222.586 178.867 222.647 179.059 222.768 179.18C222.899 179.292 223.113 179.348 223.412 179.348H224.322V181H223.09C221.438 181 220.612 180.197 220.612 178.592V174.854H219.688V173.244H220.612V171.326H222.586V173.244H224.322V174.854H222.586ZM225.228 177.094C225.228 176.31 225.382 175.615 225.69 175.008C226.007 174.401 226.432 173.935 226.964 173.608C227.505 173.281 228.107 173.118 228.77 173.118C229.348 173.118 229.852 173.235 230.282 173.468C230.72 173.701 231.07 173.995 231.332 174.35V173.244H233.306V181H231.332V179.866C231.08 180.23 230.73 180.533 230.282 180.776C229.843 181.009 229.334 181.126 228.756 181.126C228.102 181.126 227.505 180.958 226.964 180.622C226.432 180.286 226.007 179.815 225.69 179.208C225.382 178.592 225.228 177.887 225.228 177.094ZM231.332 177.122C231.332 176.646 231.238 176.24 231.052 175.904C230.865 175.559 230.613 175.297 230.296 175.12C229.978 174.933 229.638 174.84 229.274 174.84C228.91 174.84 228.574 174.929 228.266 175.106C227.958 175.283 227.706 175.545 227.51 175.89C227.323 176.226 227.23 176.627 227.23 177.094C227.23 177.561 227.323 177.971 227.51 178.326C227.706 178.671 227.958 178.937 228.266 179.124C228.583 179.311 228.919 179.404 229.274 179.404C229.638 179.404 229.978 179.315 230.296 179.138C230.613 178.951 230.865 178.69 231.052 178.354C231.238 178.009 231.332 177.598 231.332 177.122ZM237.502 174.854V178.606C237.502 178.867 237.563 179.059 237.684 179.18C237.815 179.292 238.029 179.348 238.328 179.348H239.238V181H238.006C236.354 181 235.528 180.197 235.528 178.592V174.854H234.604V173.244H235.528V171.326H237.502V173.244H239.238V174.854H237.502ZM247.858 176.954C247.858 177.234 247.839 177.486 247.802 177.71H242.132C242.178 178.27 242.374 178.709 242.72 179.026C243.065 179.343 243.49 179.502 243.994 179.502C244.722 179.502 245.24 179.189 245.548 178.564H247.662C247.438 179.311 247.008 179.927 246.374 180.412C245.739 180.888 244.96 181.126 244.036 181.126C243.289 181.126 242.617 180.963 242.02 180.636C241.432 180.3 240.97 179.829 240.634 179.222C240.307 178.615 240.144 177.915 240.144 177.122C240.144 176.319 240.307 175.615 240.634 175.008C240.96 174.401 241.418 173.935 242.006 173.608C242.594 173.281 243.27 173.118 244.036 173.118C244.773 173.118 245.431 173.277 246.01 173.594C246.598 173.911 247.05 174.364 247.368 174.952C247.694 175.531 247.858 176.198 247.858 176.954ZM245.828 176.394C245.818 175.89 245.636 175.489 245.282 175.19C244.927 174.882 244.493 174.728 243.98 174.728C243.494 174.728 243.084 174.877 242.748 175.176C242.421 175.465 242.22 175.871 242.146 176.394H245.828ZM252.256 181.126C251.622 181.126 251.052 181.014 250.548 180.79C250.044 180.557 249.643 180.244 249.344 179.852C249.055 179.46 248.896 179.026 248.868 178.55H250.842C250.88 178.849 251.024 179.096 251.276 179.292C251.538 179.488 251.86 179.586 252.242 179.586C252.616 179.586 252.905 179.511 253.11 179.362C253.325 179.213 253.432 179.021 253.432 178.788C253.432 178.536 253.302 178.349 253.04 178.228C252.788 178.097 252.382 177.957 251.822 177.808C251.244 177.668 250.768 177.523 250.394 177.374C250.03 177.225 249.713 176.996 249.442 176.688C249.181 176.38 249.05 175.965 249.05 175.442C249.05 175.013 249.172 174.621 249.414 174.266C249.666 173.911 250.021 173.631 250.478 173.426C250.945 173.221 251.491 173.118 252.116 173.118C253.04 173.118 253.778 173.351 254.328 173.818C254.879 174.275 255.182 174.896 255.238 175.68H253.362C253.334 175.372 253.204 175.129 252.97 174.952C252.746 174.765 252.443 174.672 252.06 174.672C251.706 174.672 251.43 174.737 251.234 174.868C251.048 174.999 250.954 175.181 250.954 175.414C250.954 175.675 251.085 175.876 251.346 176.016C251.608 176.147 252.014 176.282 252.564 176.422C253.124 176.562 253.586 176.707 253.95 176.856C254.314 177.005 254.627 177.239 254.888 177.556C255.159 177.864 255.299 178.275 255.308 178.788C255.308 179.236 255.182 179.637 254.93 179.992C254.688 180.347 254.333 180.627 253.866 180.832C253.409 181.028 252.872 181.126 252.256 181.126ZM263.669 171.228C264.696 171.228 265.596 171.429 266.371 171.83C267.155 172.231 267.757 172.805 268.177 173.552C268.606 174.289 268.821 175.148 268.821 176.128C268.821 177.108 268.606 177.967 268.177 178.704C267.757 179.432 267.155 179.997 266.371 180.398C265.596 180.799 264.696 181 263.669 181H260.253V171.228H263.669ZM263.599 179.334C264.626 179.334 265.419 179.054 265.979 178.494C266.539 177.934 266.819 177.145 266.819 176.128C266.819 175.111 266.539 174.317 265.979 173.748C265.419 173.169 264.626 172.88 263.599 172.88H262.213V179.334H263.599ZM273.732 181.126C272.986 181.126 272.314 180.963 271.716 180.636C271.119 180.3 270.648 179.829 270.302 179.222C269.966 178.615 269.798 177.915 269.798 177.122C269.798 176.329 269.971 175.629 270.316 175.022C270.671 174.415 271.152 173.949 271.758 173.622C272.365 173.286 273.042 173.118 273.788 173.118C274.535 173.118 275.212 173.286 275.818 173.622C276.425 173.949 276.901 174.415 277.246 175.022C277.601 175.629 277.778 176.329 277.778 177.122C277.778 177.915 277.596 178.615 277.232 179.222C276.878 179.829 276.392 180.3 275.776 180.636C275.17 180.963 274.488 181.126 273.732 181.126ZM273.732 179.418C274.087 179.418 274.418 179.334 274.726 179.166C275.044 178.989 275.296 178.727 275.482 178.382C275.669 178.037 275.762 177.617 275.762 177.122C275.762 176.385 275.566 175.82 275.174 175.428C274.792 175.027 274.32 174.826 273.76 174.826C273.2 174.826 272.729 175.027 272.346 175.428C271.973 175.82 271.786 176.385 271.786 177.122C271.786 177.859 271.968 178.429 272.332 178.83C272.706 179.222 273.172 179.418 273.732 179.418ZM281.176 170.64V181H279.216V170.64H281.176ZM285.072 170.64V181H283.112V170.64H285.072ZM286.505 177.094C286.505 176.31 286.659 175.615 286.967 175.008C287.284 174.401 287.709 173.935 288.241 173.608C288.782 173.281 289.384 173.118 290.047 173.118C290.626 173.118 291.13 173.235 291.559 173.468C291.998 173.701 292.348 173.995 292.609 174.35V173.244H294.583V181H292.609V179.866C292.357 180.23 292.007 180.533 291.559 180.776C291.12 181.009 290.612 181.126 290.033 181.126C289.38 181.126 288.782 180.958 288.241 180.622C287.709 180.286 287.284 179.815 286.967 179.208C286.659 178.592 286.505 177.887 286.505 177.094ZM292.609 177.122C292.609 176.646 292.516 176.24 292.329 175.904C292.142 175.559 291.89 175.297 291.573 175.12C291.256 174.933 290.915 174.84 290.551 174.84C290.187 174.84 289.851 174.929 289.543 175.106C289.235 175.283 288.983 175.545 288.787 175.89C288.6 176.226 288.507 176.627 288.507 177.094C288.507 177.561 288.6 177.971 288.787 178.326C288.983 178.671 289.235 178.937 289.543 179.124C289.86 179.311 290.196 179.404 290.551 179.404C290.915 179.404 291.256 179.315 291.573 179.138C291.89 178.951 292.142 178.69 292.329 178.354C292.516 178.009 292.609 177.598 292.609 177.122ZM298.457 174.448C298.709 174.037 299.036 173.715 299.437 173.482C299.848 173.249 300.315 173.132 300.837 173.132V175.19H300.319C299.703 175.19 299.237 175.335 298.919 175.624C298.611 175.913 298.457 176.417 298.457 177.136V181H296.497V173.244H298.457V174.448Z" fill="white"/>
<path d="M34.4384 15.4274C34.4384 15.4274 46.5539 22.0985 33.5449 24.6333V23.6262C33.5449 23.6262 44.1289 20.9929 34.4138 16.2433L34.4384 15.4274Z" fill="#224191"/>
<path d="M37.0481 19.327C37.0481 19.327 33.8678 15.0544 25.7183 15.9971C17.5687 16.9399 16.4764 21.1652 16.4764 21.1652C16.4764 21.1652 13.7429 29.3639 32.2266 30.6077L32.2398 30.0928C32.2398 30.0928 23.3709 30.4089 18.9355 25.3791C16.8115 22.6209 21.1352 19.6772 22.5512 19.1926C23.9672 18.708 28.7755 16.6029 36.1546 19.5712L37.0481 19.327Z" fill="#224191"/>
<path d="M19.1973 27.7625C19.1973 27.7625 27.0099 22.0833 35.1481 25.5628C41.1112 28.1165 36.1116 33.8922 33.3591 36.338C32.4021 37.1906 31.3389 37.916 30.1959 38.496C27.9242 39.6319 23.9015 41.2088 20.5413 40.0218L20.6152 39.276C20.6152 39.276 28.2176 40.0465 33.5466 32.6352C38.8755 25.2239 29.0752 25.2618 29.0752 25.2618C29.0752 25.2618 24.4164 25.1501 19.7993 28.1316L19.1973 27.7625Z" fill="#EC2326"/>
<path d="M24.276 42.0606C24.276 42.0606 11.4885 42.6664 20.1321 34C20.2681 33.8591 20.4373 33.7546 20.6242 33.6961C20.811 33.6375 21.0096 33.6268 21.2017 33.665C21.4762 33.7256 21.692 33.8865 21.5519 34.2783C21.5027 34.4081 21.4258 34.5257 21.3266 34.6229C20.3801 35.5864 14.2315 42.178 24.276 41.487V42.0606Z" fill="#EC2326"/>
<path d="M41.6316 42.0323C41.1884 42.0398 40.7472 41.9713 40.3273 41.8297C39.9215 41.6777 39.5571 41.4326 39.2634 41.1141C38.914 40.7238 38.7094 40.2252 38.6841 39.7019C38.6357 38.9353 38.6846 38.1656 38.8299 37.4113L39.5871 33.8543C39.6084 33.7843 39.6134 33.7103 39.6016 33.6381C39.5897 33.5659 39.5615 33.4974 39.5189 33.4378C39.4709 33.3808 39.4099 33.3361 39.3411 33.3075C39.2723 33.2788 39.1976 33.2671 39.1233 33.2731H38.7447L38.9775 32.1714H40.7759C42.0909 32.1714 42.626 32.7393 42.3812 33.8751L41.5502 37.8202C41.3697 38.6708 41.3893 39.3019 41.6088 39.7133C41.7018 39.9035 41.8482 40.0624 42.0301 40.1707C42.212 40.2789 42.4215 40.3318 42.633 40.3228C43.1227 40.3228 43.6029 40.1039 44.0736 39.666C44.5443 39.228 44.8826 38.5383 45.0883 37.5969L45.9004 33.8259C46.0266 33.2328 46.2556 32.8106 46.5876 32.5595C46.9195 32.3083 47.4243 32.1821 48.102 32.1809H49.0485L47.8502 37.8278C47.6698 38.6784 47.6925 39.3094 47.9184 39.7209C48.0112 39.9091 48.1563 40.0666 48.3362 40.1747C48.5161 40.2828 48.7233 40.3368 48.933 40.3304C49.4227 40.3304 49.9124 40.0723 50.4021 39.5562C50.8917 39.04 51.2394 38.3055 51.4451 37.3527L52.1796 33.8335C52.3058 33.2529 52.538 32.834 52.8763 32.5765C53.2145 32.319 53.7237 32.1928 54.4039 32.1979H55.3221L54.2582 37.0895C53.949 38.458 53.1906 39.6835 52.1039 40.5708C50.9681 41.5439 49.5596 42.0304 47.8786 42.0304C46.6544 42.0304 45.8423 41.5148 45.4423 40.4838C44.3064 41.5161 43.0362 42.0323 41.6316 42.0323Z" fill="#224191"/>
<path d="M58.1048 41.8373C57.4207 41.8373 56.9115 41.6921 56.5771 41.4019C56.2426 41.1116 56.1398 40.6838 56.2685 40.1184L57.5936 33.8543C57.6706 33.4681 57.516 33.275 57.1298 33.275H56.7512L56.9841 32.1733H58.5402C59.2229 32.1733 59.7322 32.3184 60.0679 32.6087C60.4036 32.8989 60.5064 33.3211 60.3764 33.8751L59.0513 40.1581C58.9869 40.5443 59.1415 40.7374 59.5151 40.7374H59.8937L59.676 41.8373H58.1048ZM59.3807 30.9901C59.18 31.0002 58.9798 30.9626 58.7965 30.8803C58.6132 30.7981 58.4521 30.6735 58.3262 30.5168C58.2008 30.3562 58.1137 30.1689 58.0717 29.9694C58.0297 29.77 58.0339 29.5635 58.0839 29.3659C58.1787 28.907 58.432 28.4961 58.7995 28.2054C59.1467 27.8985 59.5931 27.7271 60.0565 27.7227C60.2581 27.7129 60.459 27.7516 60.6425 27.8356C60.826 27.9196 60.9866 28.0465 61.1109 28.2054C61.2361 28.3681 61.3229 28.557 61.3648 28.7579C61.4068 28.9589 61.4028 29.1667 61.3532 29.3659C61.2472 29.8222 60.988 30.2285 60.6187 30.5168C60.2752 30.8163 59.8364 30.984 59.3807 30.9901Z" fill="#224191"/>
<path d="M64.9476 42.0323C63.8383 42.0323 63.0937 41.6165 62.7138 40.7848C62.334 39.9531 62.3112 38.7447 62.6457 37.1596L63.3423 33.8335H62.0664L62.4147 32.1714H63.6906L64.1734 29.9868C64.2377 29.6007 64.0831 29.4076 63.7096 29.4076H63.3045L63.5562 28.3058H65.1218C65.8045 28.3058 66.3138 28.4509 66.6495 28.7412C66.9852 29.0315 67.088 29.4536 66.958 30.0077L66.4905 32.1676H68.5728L68.2056 33.8297H66.1478L65.3754 37.5231C65.1697 38.361 65.0991 39.0154 65.1634 39.4861C65.2278 39.9569 65.46 40.1922 65.8601 40.1922C66.3497 40.1922 66.7561 39.9089 67.0792 39.3423L67.7758 39.7474C68.2655 40.044 68.2333 40.4503 67.6793 40.9665C67.3167 41.3155 66.8887 41.5893 66.4199 41.7722C65.9511 41.9551 65.4507 42.0435 64.9476 42.0323Z" fill="#224191"/>
<path d="M73.8244 42.0701C72.3428 42.0701 71.2234 41.6089 70.4662 40.6863C69.7089 39.7638 69.4931 38.5459 69.8187 37.0327C70.0996 35.5932 70.88 34.2992 72.0222 33.3792C73.1312 32.4607 74.5294 31.9644 75.9693 31.9783C76.6302 31.9635 77.2865 32.0927 77.8926 32.3569C78.3922 32.5636 78.8197 32.9133 79.1212 33.3621C79.443 33.8669 79.2947 34.2664 78.6763 34.5604L77.849 34.9731C77.5966 34.1477 77.0035 33.7351 76.0696 33.7351C75.2754 33.7412 74.5161 34.0626 73.9588 34.6286C73.302 35.2744 72.8627 36.1087 72.7018 37.0157C72.4949 37.995 72.5788 38.7844 72.9536 39.3839C73.3285 39.9834 73.902 40.2831 74.6744 40.2831C75.6033 40.2831 76.3706 39.8704 76.9764 39.0451L77.6332 39.4521C78.0977 39.7613 78.0781 40.1676 77.5746 40.6712C77.0911 41.1111 76.5266 41.4525 75.9125 41.6764C75.2468 41.9357 74.5388 42.0692 73.8244 42.0701Z" fill="#224191"/>
<path d="M79.6426 41.8373L82.3686 29.0176C82.4455 28.6314 82.2909 28.4383 81.9048 28.4383H81.5262L81.759 27.3365H83.3246C84.0212 27.3365 84.5336 27.4817 84.8617 27.7719C85.1898 28.0622 85.2965 28.4844 85.1816 29.0384L84.2843 33.1368C85.1677 32.3632 86.1345 31.9764 87.1845 31.9764C88.3064 31.9764 89.1633 32.3405 89.7552 33.0687C90.3471 33.7969 90.4733 34.9731 90.1338 36.5973L89.3766 40.1544C89.3545 40.2258 89.3491 40.3014 89.3609 40.3753C89.3727 40.4492 89.4014 40.5193 89.4448 40.5803C89.4914 40.6339 89.55 40.6758 89.6157 40.7027C89.6814 40.7297 89.7525 40.7409 89.8234 40.7355H90.2285L89.9957 41.8373H88.1783C86.8759 41.8373 86.3408 41.2637 86.573 40.1165L87.4041 36.249C87.5972 35.3858 87.565 34.7415 87.3075 34.3162C87.1975 34.117 87.0347 33.9521 86.837 33.8395C86.6392 33.727 86.4143 33.6712 86.1868 33.6783C85.6231 33.6965 85.0838 33.9123 84.6629 34.2878C84.1503 34.721 83.8048 35.3196 83.6861 35.9802L82.7964 40.196C82.6702 40.7753 82.438 41.1943 82.0997 41.453C81.7615 41.7117 81.2567 41.8379 80.5853 41.8316L79.6426 41.8373Z" fill="#224191"/>
<path d="M93.8743 41.8373C93.1903 41.8373 92.681 41.6921 92.3466 41.4019C92.0122 41.1116 91.9093 40.6838 92.038 40.1184L93.3632 33.8543C93.4402 33.4681 93.2856 33.275 92.8994 33.275H92.5208L92.7536 32.1733H94.3192C95.0019 32.1733 95.5111 32.3184 95.8468 32.6087C96.1825 32.8989 96.2854 33.3198 96.1554 33.8713L94.8303 40.1543C94.7659 40.5405 94.9205 40.7336 95.2941 40.7336H95.6727L95.4398 41.8354L93.8743 41.8373ZM95.1502 30.9901C94.9496 31.0002 94.7493 30.9626 94.5661 30.8803C94.3828 30.7981 94.2216 30.6735 94.0958 30.5168C93.9703 30.3562 93.8832 30.1689 93.8412 29.9694C93.7992 29.77 93.8034 29.5635 93.8535 29.3659C93.9482 28.907 94.2015 28.4961 94.569 28.2054C94.9163 27.8985 95.3626 27.7271 95.826 27.7227C96.0276 27.7129 96.2286 27.7516 96.412 27.8356C96.5955 27.9196 96.7562 28.0465 96.8805 28.2054C97.0056 28.3681 97.0924 28.557 97.1344 28.7579C97.1763 28.9589 97.1724 29.1667 97.1228 29.3659C97.0168 29.8222 96.7575 30.2285 96.3883 30.5168C96.0447 30.8163 95.6059 30.984 95.1502 30.9901Z" fill="#224191"/>
<path d="M100.352 42.0322C97.9931 42.0322 97.1356 40.5241 97.7792 37.5078L98.5535 33.8543C98.5748 33.7843 98.5798 33.7103 98.568 33.6381C98.5561 33.5659 98.5279 33.4973 98.4853 33.4378C98.4373 33.3808 98.3763 33.3361 98.3075 33.3074C98.2387 33.2788 98.164 33.267 98.0897 33.2731H97.7111L97.9345 32.1676H99.7329C101.048 32.1676 101.583 32.7355 101.338 33.8713L100.488 37.8732C100.152 39.4583 100.359 40.2509 101.107 40.2509C101.881 40.2509 102.701 39.8382 103.568 39.0128C104.381 38.2677 104.992 37.3303 105.348 36.2868C105.506 35.7866 105.584 35.2647 105.58 34.7402C105.572 34.2779 105.624 33.8165 105.736 33.3678C105.949 32.5676 106.507 32.1676 107.409 32.1676H108.395L108.047 33.6574C107.823 34.6908 107.476 35.6937 107.014 36.6446C106.555 37.5981 105.991 38.4966 105.331 39.3233C104.702 40.1169 103.928 40.7832 103.049 41.2864C102.232 41.7689 101.301 42.0262 100.352 42.0322Z" fill="#224191"/>
<path d="M112.088 42.07C110.605 42.07 109.487 41.6031 108.733 40.6691C107.98 39.7352 107.764 38.5142 108.086 37.0061C108.385 35.5883 109.16 34.3152 110.282 33.3975C111.403 32.4797 112.804 31.9723 114.253 31.9592C115.036 31.9484 115.808 32.1381 116.497 32.5101C117.094 32.8466 117.561 33.3748 117.822 34.0094C118.092 34.6404 117.999 35.2714 117.542 35.9025C117.085 36.5335 116.246 36.9922 115.026 37.2787L110.831 38.3218C110.846 38.8726 111.075 39.396 111.469 39.7813C111.874 40.1348 112.4 40.3186 112.938 40.2943C113.646 40.3056 114.343 40.1201 114.952 39.7586C115.491 39.4464 115.961 39.0285 116.334 38.53L116.972 38.9351C117.449 39.2317 117.429 39.6381 116.913 40.1542C116.318 40.7147 115.631 41.1692 114.882 41.4983C114.003 41.8894 113.05 42.0845 112.088 42.07ZM111.024 36.7335L113.712 36.0558C114.21 35.9498 114.68 35.7423 115.094 35.4462C115.238 35.3504 115.349 35.213 115.413 35.0524C115.477 34.8918 115.49 34.7155 115.452 34.547C115.425 34.4183 115.371 34.297 115.292 34.1916C115.214 34.0863 115.113 33.9995 114.997 33.9375C114.736 33.7873 114.439 33.7107 114.138 33.716C113.532 33.716 112.923 33.993 112.311 34.547C111.678 35.1348 111.231 35.8948 111.024 36.7335Z" fill="#224191"/>
</g>
<defs>
<linearGradient id="paint0_linear_7756_2070" x1="-128.658" y1="65.0241" x2="841.879" y2="163.363" gradientUnits="userSpaceOnUse">
<stop stop-color="#214293"/>
<stop offset="1" stop-color="#EC2127"/>
</linearGradient>
<clipPath id="clip0_7756_2070">
<rect width="322" height="206" rx="13" fill="white"/>
</clipPath>
</defs>
</svg>
